<svg version="1.1" viewBox="0.0 0.0 600.0 371.0" fill="none" stroke="none" stroke-linecap="square" stroke-miterlimit="10" width="600" height="371" xmlns:xlink="http://www.w3.org/1999/xlink" xmlns="http://www.w3.org/2000/svg"><path fill="#ffffff" d="M0 0L600.0 0L600.0 371.0L0 371.0L0 0Z" fill-rule="nonzero"/><path stroke="#333333" stroke-width="1.0" stroke-linecap="butt" d="M102.5 26.5L102.5 286.5" fill-rule="nonzero"/><path stroke="#cccccc" stroke-width="1.0" stroke-linecap="butt" d="M219.5 26.5L219.5 286.5" fill-rule="nonzero"/><path stroke="#cccccc" stroke-width="1.0" stroke-linecap="butt" d="M337.5 26.5L337.5 286.5" fill-rule="nonzero"/><path stroke="#cccccc" stroke-width="1.0" stroke-linecap="butt" d="M454.5 26.5L454.5 286.5" fill-rule="nonzero"/><path stroke="#cccccc" stroke-width="1.0" stroke-linecap="butt" d="M571.5 26.5L571.5 286.5" fill-rule="nonzero"/><path stroke="#333333" stroke-width="1.0" stroke-linecap="butt" d="M92.5 286.5L581.5 286.5" fill-rule="nonzero"/><path stroke="#cccccc" stroke-width="1.0" stroke-linecap="butt" d="M92.5 221.5L581.5 221.5" fill-rule="nonzero"/><path stroke="#cccccc" stroke-width="1.0" stroke-linecap="butt" d="M92.5 156.5L581.5 156.5" fill-rule="nonzero"/><path stroke="#cccccc" stroke-width="1.0" stroke-linecap="butt" d="M92.5 91.5L581.5 91.5" fill-rule="nonzero"/><path stroke="#cccccc" stroke-width="1.0" stroke-linecap="butt" d="M92.5 26.5L581.5 26.5" fill-rule="nonzero"/><clipPath id="id_0"><path d="M92.55 26.55L581.45 26.55L581.45 286.45L92.55 286.45L92.55 26.55Z" clip-rule="nonzero"/></clipPath><path stroke="#4285f4" stroke-width="2.0" stroke-linecap="butt" stroke-dasharray="8.0,6.0" clip-path="url(#id_0)" d="M106.85386 37.920624L125.6413 115.890625L196.0942 188.66263L337.0 234.47L454.4215 247.78987L571.843 255.262" fill-rule="nonzero"/><path stroke="#fbbc04" stroke-width="2.0" stroke-linecap="butt" clip-path="url(#id_0)" d="M106.85386 115.56575L125.6413 168.52037L196.0942 215.30237L337.0 241.7797L454.4215 252.33812L571.843 259.1605" fill-rule="nonzero"/><path stroke="#ea4335" stroke-width="2.0" stroke-linecap="butt" clip-path="url(#id_0)" d="M106.85386 153.901L125.6413 191.91138L196.0942 222.7745L337.0 245.84062L454.4215 254.93712L571.843 265.98288" fill-rule="nonzero"/><path stroke="#34a853" stroke-width="2.0" stroke-linecap="butt" clip-path="url(#id_0)" d="M106.85386 184.11438L125.6413 224.72375L196.0942 242.91675L337.0 256.88638L454.4215 260.78488L571.843 265.98288" fill-rule="nonzero"/><path stroke="#ff6d01" stroke-width="2.0" stroke-linecap="butt" clip-path="url(#id_0)" d="M106.85386 222.44963L125.6413 242.267L196.0942 263.70874L337.0 270.856L454.4215 274.10474L571.843 276.70374" fill-rule="nonzero"/><path stroke="#46bdc6" stroke-width="2.0" stroke-linecap="butt" stroke-dasharray="8.0,6.0" clip-path="url(#id_0)" d="M106.85386 248.11475L125.6413 253.31274L196.0942 259.1605L337.0 263.38388L454.4215 265.658L571.843 266.63263" fill-rule="nonzero"/><path stroke="#7baaf7" stroke-width="2.0" stroke-linecap="butt" stroke-dasharray="16.0,8.0" clip-path="url(#id_0)" d="M106.85386 277.67838L125.6413 277.67838L196.0942 277.67838L337.0 277.67838L454.4215 277.67838L571.843 277.67838" fill-rule="nonzero"/><path fill="#4285f4" clip-path="url(#id_0)" d="M103.671875 34.738644L110.035835 34.738644L110.035835 41.102604L103.671875 41.102604Z" fill-rule="nonzero"/><path fill="#4285f4" clip-path="url(#id_0)" d="M122.45931 112.70864L128.82327 112.70864L128.82327 119.07261L122.45931 119.07261Z" fill-rule="nonzero"/><path fill="#4285f4" clip-path="url(#id_0)" d="M192.91222 185.48065L199.27618 185.48065L199.27618 191.8446L192.91222 191.8446Z" fill-rule="nonzero"/><path fill="#4285f4" clip-path="url(#id_0)" d="M333.81802 231.28802L340.18198 231.28802L340.18198 237.65198L333.81802 237.65198Z" fill-rule="nonzero"/><path fill="#4285f4" clip-path="url(#id_0)" d="M451.23953 244.6079L457.6035 244.6079L457.6035 250.97186L451.23953 250.97186Z" fill-rule="nonzero"/><path fill="#4285f4" clip-path="url(#id_0)" d="M568.661 252.08002L575.02496 252.08002L575.02496 258.44397L568.661 258.44397Z" fill-rule="nonzero"/><path fill="#fbbc04" clip-path="url(#id_0)" d="M106.85386 111.06575L110.75097 117.81575L102.95674 117.81575Z" fill-rule="nonzero"/><path fill="#fbbc04" clip-path="url(#id_0)" d="M125.6413 164.02037L129.5384 170.77037L121.74418 170.77037Z" fill-rule="nonzero"/><path fill="#fbbc04" clip-path="url(#id_0)" d="M196.0942 210.80237L199.99132 217.55237L192.19708 217.55237Z" fill-rule="nonzero"/><path fill="#fbbc04" clip-path="url(#id_0)" d="M337.0 237.2797L340.89713 244.0297L333.10287 244.0297Z" fill-rule="nonzero"/><path fill="#fbbc04" clip-path="url(#id_0)" d="M454.4215 247.83812L458.3186 254.58812L450.52438 254.58812Z" fill-rule="nonzero"/><path fill="#fbbc04" clip-path="url(#id_0)" d="M571.843 254.6605L575.7401 261.4105L567.94586 261.4105Z" fill-rule="nonzero"/><path fill="#ea4335" clip-path="url(#id_0)" d="M106.85386 149.401L111.35386 153.901L106.85386 158.401L102.35386 153.901Z" fill-rule="nonzero"/><path fill="#ea4335" clip-path="url(#id_0)" d="M125.6413 187.41138L130.1413 191.91138L125.6413 196.41138L121.1413 191.91138Z" fill-rule="nonzero"/><path fill="#ea4335" clip-path="url(#id_0)" d="M196.0942 218.2745L200.5942 222.7745L196.0942 227.2745L191.5942 222.7745Z" fill-rule="nonzero"/><path fill="#ea4335" clip-path="url(#id_0)" d="M337.0 241.34062L341.5 245.84062L337.0 250.34062L332.5 245.84062Z" fill-rule="nonzero"/><path fill="#ea4335" clip-path="url(#id_0)" d="M454.4215 250.43712L458.9215 254.93712L454.4215 259.43713L449.9215 254.93712Z" fill-rule="nonzero"/><path fill="#ea4335" clip-path="url(#id_0)" d="M571.843 261.48288L576.343 265.98288L571.843 270.48288L567.343 265.98288Z" fill-rule="nonzero"/><path fill="#34a853" clip-path="url(#id_0)" d="M106.85386 179.61438L107.86417 182.7238L111.13361 182.7238L108.48858 184.64552L109.498886 187.75494L106.85386 185.83322L104.208824 187.75494L105.21913 184.64552L102.574104 182.7238L105.843544 182.7238Z" fill-rule="nonzero"/><path fill="#34a853" clip-path="url(#id_0)" d="M125.6413 220.22375L126.65161 223.33318L129.92105 223.33318L127.27602 225.2549L128.28633 228.36432L125.6413 226.4426L122.99626 228.36432L124.00658 225.2549L121.36154 223.33318L124.63098 223.33318Z" fill-rule="nonzero"/><path fill="#34a853" clip-path="url(#id_0)" d="M196.0942 238.41675L197.1045 241.52617L200.37395 241.52617L197.72891 243.4479L198.73923 246.55733L196.0942 244.63559L193.44916 246.55733L194.45947 243.4479L191.81444 241.52617L195.08388 241.52617Z" fill-rule="nonzero"/><path fill="#34a853" clip-path="url(#id_0)" d="M337.0 252.38637L338.0103 255.4958L341.27975 255.4958L338.63474 257.41754L339.64502 260.52695L337.0 258.60522L334.35498 260.52695L335.36526 257.41754L332.72025 255.4958L335.9897 255.4958Z" fill-rule="nonzero"/><path fill="#34a853" clip-path="url(#id_0)" d="M454.4215 256.28488L455.43182 259.3943L458.70126 259.3943L456.0562 261.31604L457.06653 264.42545L454.4215 262.50372L451.77646 264.42545L452.78677 261.31604L450.14175 259.3943L453.4112 259.3943Z" fill-rule="nonzero"/><path fill="#34a853" clip-path="url(#id_0)" d="M571.843 261.48288L572.85333 264.5923L576.12274 264.5923L573.4777 266.51404L574.48804 269.62344L571.843 267.70172L569.198 269.62344L570.2083 266.51404L567.56323 264.5923L570.8327 264.5923Z" fill-rule="nonzero"/><path fill="#ff6d01" clip-path="url(#id_0)" d="M103.671875 219.26764L106.85386 221.32463L110.035835 219.26764L107.97886 222.44963L110.035835 225.6316L106.85386 223.57463L103.671875 225.6316L105.72886 222.44963Z" fill-rule="nonzero"/><path fill="#ff6d01" clip-path="url(#id_0)" d="M122.45931 239.08502L125.6413 241.142L128.82327 239.08502L126.7663 242.267L128.82327 245.44897L125.6413 243.392L122.45931 245.44897L124.5163 242.267Z" fill-rule="nonzero"/><path fill="#ff6d01" clip-path="url(#id_0)" d="M192.91222 260.52676L196.0942 262.58374L199.27618 260.52676L197.2192 263.70874L199.27618 266.89072L196.0942 264.83374L192.91222 266.89072L194.9692 263.70874Z" fill-rule="nonzero"/><path fill="#ff6d01" clip-path="url(#id_0)" d="M333.81802 267.674L337.0 269.731L340.18198 267.674L338.125 270.856L340.18198 274.038L337.0 271.981L333.81802 274.038L335.875 270.856Z" fill-rule="nonzero"/><path fill="#ff6d01" clip-path="url(#id_0)" d="M451.23953 270.92276L454.4215 272.97974L457.6035 270.92276L455.5465 274.10474L457.6035 277.28674L454.4215 275.22974L451.23953 277.28674L453.2965 274.10474Z" fill-rule="nonzero"/><path fill="#ff6d01" clip-path="url(#id_0)" d="M568.661 273.52176L571.843 275.57874L575.02496 273.52176L572.968 276.70374L575.02496 279.88574L571.843 277.82874L568.661 279.88574L570.718 276.70374Z" fill-rule="nonzero"/><path fill="#46bdc6" clip-path="url(#id_0)" d="M111.35386 248.11475C111.35386 250.60004 109.339134 252.61475 106.85386 252.61475C104.368576 252.61475 102.35386 250.60004 102.35386 248.11475C102.35386 245.62947 104.368576 243.61475 106.85386 243.61475C109.339134 243.61475 111.35386 245.62947 111.35386 248.11475Z" fill-rule="nonzero"/><path fill="#46bdc6" clip-path="url(#id_0)" d="M130.1413 253.31274C130.1413 255.79803 128.12657 257.81274 125.6413 257.81274C123.15601 257.81274 121.1413 255.79803 121.1413 253.31274C121.1413 250.82747 123.15601 248.81274 125.6413 248.81274C128.12657 248.81274 130.1413 250.82747 130.1413 253.31274Z" fill-rule="nonzero"/><path fill="#46bdc6" clip-path="url(#id_0)" d="M200.5942 259.1605C200.5942 261.64578 198.57948 263.6605 196.0942 263.6605C193.60892 263.6605 191.5942 261.64578 191.5942 259.1605C191.5942 256.67523 193.60892 254.6605 196.0942 254.6605C198.57948 254.6605 200.5942 256.67523 200.5942 259.1605Z" fill-rule="nonzero"/><path fill="#46bdc6" clip-path="url(#id_0)" d="M341.5 263.38388C341.5 265.86917 339.4853 267.88388 337.0 267.88388C334.5147 267.88388 332.5 265.86917 332.5 263.38388C332.5 260.8986 334.5147 258.88388 337.0 258.88388C339.4853 258.88388 341.5 260.8986 341.5 263.38388Z" fill-rule="nonzero"/><path fill="#46bdc6" clip-path="url(#id_0)" d="M458.9215 265.658C458.9215 268.14328 456.90677 270.158 454.4215 270.158C451.93622 270.158 449.9215 268.14328 449.9215 265.658C449.9215 263.17273 451.93622 261.158 454.4215 261.158C456.90677 261.158 458.9215 263.17273 458.9215 265.658Z" fill-rule="nonzero"/><path fill="#46bdc6" clip-path="url(#id_0)" d="M576.343 266.63263C576.343 269.11792 574.3283 271.13263 571.843 271.13263C569.3577 271.13263 567.343 269.11792 567.343 266.63263C567.343 264.14734 569.3577 262.13263 571.843 262.13263C574.3283 262.13263 576.343 264.14734 576.343 266.63263Z" fill-rule="nonzero"/><path fill="#7baaf7" clip-path="url(#id_0)" d="M106.85386 271.67838L112.560196 275.82428L110.38057 282.53247L103.32714 282.53247L101.147514 275.82428Z" fill-rule="nonzero"/><path fill="#7baaf7" clip-path="url(#id_0)" d="M125.6413 271.67838L131.34764 275.82428L129.16801 282.53247L122.114586 282.53247L119.93496 275.82428Z" fill-rule="nonzero"/><path fill="#7baaf7" clip-path="url(#id_0)" d="M196.0942 271.67838L201.80054 275.82428L199.62091 282.53247L192.56749 282.53247L190.38786 275.82428Z" fill-rule="nonzero"/><path fill="#7baaf7" clip-path="url(#id_0)" d="M337.0 271.67838L342.70633 275.82428L340.5267 282.53247L333.4733 282.53247L331.29367 275.82428Z" fill-rule="nonzero"/><path fill="#7baaf7" clip-path="url(#id_0)" d="M454.4215 271.67838L460.12784 275.82428L457.9482 282.53247L450.8948 282.53247L448.71515 275.82428Z" fill-rule="nonzero"/><path fill="#7baaf7" clip-path="url(#id_0)" d="M571.843 271.67838L577.5493 275.82428L575.3697 282.53247L568.3163 282.53247L566.13666 275.82428Z" fill-rule="nonzero"/><path fill="#000000" d="M291.73438 348.45L288.70312 336.9969L290.25 336.9969L292.0 344.4969Q292.28125 345.6844 292.48438 346.84064Q292.92188 345.0125 293.0 344.73126L295.17188 336.9969L297.0 336.9969L298.64062 342.79376Q299.26562 344.95 299.53125 346.84064Q299.75 345.7625 300.10938 344.35626L301.90625 336.9969L303.42188 336.9969L300.28125 348.45L298.82812 348.45L296.40625 339.71564Q296.10938 338.6219 296.04688 338.3719Q295.875 339.16876 295.71875 339.71564L293.28125 348.45L291.73438 348.45ZM304.54688 348.45L304.54688 340.15314L305.8125 340.15314L305.8125 341.40314Q306.29688 340.52814 306.70312 340.2469Q307.10938 339.96564 307.60938 339.96564Q308.3125 339.96564 309.04688 340.41876L308.5625 341.71564Q308.04688 341.41876 307.53125 341.41876Q307.07812 341.41876 306.70312 341.7Q306.34375 341.96564 306.1875 342.46564Q305.95312 343.21564 305.95312 344.10626L305.95312 348.45L304.54688 348.45ZM309.5625 338.60626L309.5625 336.9969L310.96875 336.9969L310.96875 338.60626L309.5625 338.60626ZM309.5625 348.45L309.5625 340.15314L310.96875 340.15314L310.96875 348.45L309.5625 348.45ZM316.625 347.1844L316.82812 348.4344Q316.23438 348.5594 315.76562 348.5594Q315.0 348.5594 314.57812 348.325Q314.15625 348.075 313.98438 347.6844Q313.8125 347.27814 313.8125 346.0125L313.8125 341.2469L312.78125 341.2469L312.78125 340.15314L313.8125 340.15314L313.8125 338.09064L315.21875 337.2469L315.21875 340.15314L316.625 340.15314L316.625 341.2469L315.21875 341.2469L315.21875 346.09064Q315.21875 346.7 315.28125 346.8719Q315.35938 347.04376 315.53125 347.15314Q315.70312 347.2469 316.01562 347.2469Q316.25 347.2469 316.625 347.1844ZM323.23438 345.77814L324.6875 345.95Q324.34375 347.23126 323.40625 347.9344Q322.48438 348.6375 321.04688 348.6375Q319.21875 348.6375 318.15625 347.5125Q317.09375 346.3875 317.09375 344.3719Q317.09375 342.27814 318.17188 341.1219Q319.25 339.96564 320.96875 339.96564Q322.625 339.96564 323.67188 341.10626Q324.73438 342.23126 324.73438 344.27814Q324.73438 344.40314 324.73438 344.65314L318.54688 344.65314Q318.625 346.02814 319.3125 346.7625Q320.01562 347.48126 321.04688 347.48126Q321.82812 347.48126 322.375 347.075Q322.92188 346.66876 323.23438 345.77814ZM318.625 343.4969L323.25 343.4969Q323.15625 342.45 322.71875 341.9344Q322.04688 341.1219 320.98438 341.1219Q320.01562 341.1219 319.34375 341.77814Q318.6875 342.41876 318.625 343.4969ZM330.76562 348.45L330.76562 336.9969L335.84375 336.9969Q337.375 336.9969 338.17188 337.3094Q338.96875 337.60626 339.4375 338.3875Q339.92188 339.16876 339.92188 340.1219Q339.92188 341.34064 339.125 342.1844Q338.34375 343.0125 336.6875 343.23126Q337.29688 343.52814 337.60938 343.8094Q338.26562 344.41876 338.85938 345.325L340.85938 348.45L338.95312 348.45L337.4375 346.0594Q336.76562 345.02814 336.32812 344.48126Q335.90625 343.9344 335.5625 343.71564Q335.23438 343.4969 334.875 343.41876Q334.625 343.35626 334.03125 343.35626L332.28125 343.35626L332.28125 348.45L330.76562 348.45ZM332.28125 342.04376L335.53125 342.04376Q336.57812 342.04376 337.15625 341.84064Q337.75 341.6219 338.04688 341.15314Q338.35938 340.66876 338.35938 340.1219Q338.35938 339.3094 337.76562 338.79376Q337.17188 338.2625 335.90625 338.2625L332.28125 338.2625L332.28125 342.04376ZM347.96875 347.41876Q347.1875 348.09064 346.46875 348.3719Q345.75 348.6375 344.92188 348.6375Q343.54688 348.6375 342.8125 347.96564Q342.07812 347.29376 342.07812 346.2625Q342.07812 345.65314 342.35938 345.15314Q342.64062 344.6375 343.07812 344.34064Q343.53125 344.02814 344.09375 343.8719Q344.51562 343.7625 345.34375 343.66876Q347.04688 343.46564 347.85938 343.1844Q347.85938 342.8875 347.85938 342.8094Q347.85938 341.95 347.46875 341.60626Q346.92188 341.1219 345.85938 341.1219Q344.875 341.1219 344.39062 341.48126Q343.92188 341.825 343.70312 342.7L342.32812 342.5125Q342.51562 341.6375 342.9375 341.09064Q343.375 340.54376 344.1875 340.2625Q345.0 339.96564 346.0625 339.96564Q347.125 339.96564 347.78125 340.21564Q348.45312 340.46564 348.76562 340.84064Q349.07812 341.21564 349.20312 341.79376Q349.28125 342.15314 349.28125 343.09064L349.28125 344.96564Q349.28125 346.9344 349.35938 347.45Q349.45312 347.96564 349.71875 348.45L348.25 348.45Q348.03125 348.0125 347.96875 347.41876ZM347.85938 344.27814Q347.09375 344.59064 345.5625 344.8094Q344.6875 344.9344 344.32812 345.09064Q343.96875 345.2469 343.76562 345.5594Q343.57812 345.85626 343.57812 346.21564Q343.57812 346.77814 344.0 347.15314Q344.4375 347.52814 345.25 347.52814Q346.0625 347.52814 346.6875 347.1844Q347.32812 346.825 347.625 346.2Q347.85938 345.73126 347.85938 344.79376L347.85938 344.27814ZM354.625 347.1844L354.82812 348.4344Q354.23438 348.5594 353.76562 348.5594Q353.0 348.5594 352.57812 348.325Q352.15625 348.075 351.98438 347.6844Q351.8125 347.27814 351.8125 346.0125L351.8125 341.2469L350.78125 341.2469L350.78125 340.15314L351.8125 340.15314L351.8125 338.09064L353.21875 337.2469L353.21875 340.15314L354.625 340.15314L354.625 341.2469L353.21875 341.2469L353.21875 346.09064Q353.21875 346.7 353.28125 346.8719Q353.35938 347.04376 353.53125 347.15314Q353.70312 347.2469 354.01562 347.2469Q354.25 347.2469 354.625 347.1844ZM355.5625 338.60626L355.5625 336.9969L356.96875 336.9969L356.96875 338.60626L355.5625 338.60626ZM355.5625 348.45L355.5625 340.15314L356.96875 340.15314L356.96875 348.45L355.5625 348.45ZM359.03125 344.29376Q359.03125 341.9969 360.3125 340.8875Q361.39062 339.96564 362.92188 339.96564Q364.64062 339.96564 365.71875 341.09064Q366.8125 342.2 366.8125 344.1844Q366.8125 345.77814 366.32812 346.7Q365.84375 347.6219 364.92188 348.1375Q364.01562 348.6375 362.92188 348.6375Q361.1875 348.6375 360.10938 347.52814Q359.03125 346.40314 359.03125 344.29376ZM360.48438 344.29376Q360.48438 345.8875 361.17188 346.6844Q361.875 347.48126 362.92188 347.48126Q363.96875 347.48126 364.65625 346.6844Q365.35938 345.8875 365.35938 344.2469Q365.35938 342.71564 364.65625 341.91876Q363.96875 341.1219 362.92188 341.1219Q361.875 341.1219 361.17188 341.91876Q360.48438 342.7 360.48438 344.29376ZM372.4375 339.7469Q372.4375 338.5125 373.04688 337.65314Q373.67188 336.79376 374.84375 336.79376Q375.92188 336.79376 376.625 337.575Q377.32812 338.34064 377.32812 339.825Q377.32812 341.27814 376.60938 342.075Q375.90625 342.85626 374.85938 342.85626Q373.8125 342.85626 373.125 342.09064Q372.4375 341.3094 372.4375 339.7469ZM374.875 337.7625Q374.35938 337.7625 374.0 338.21564Q373.65625 338.66876 373.65625 339.8875Q373.65625 340.98126 374.0 341.4344Q374.35938 341.8875 374.875 341.8875Q375.40625 341.8875 375.75 341.4344Q376.10938 340.98126 376.10938 339.77814Q376.10938 338.66876 375.75 338.21564Q375.40625 337.7625 374.875 337.7625ZM374.89062 348.8719L381.15625 336.79376L382.29688 336.79376L376.04688 348.8719L374.89062 348.8719ZM379.84375 345.7625Q379.84375 344.52814 380.45312 343.66876Q381.07812 342.8094 382.25 342.8094Q383.32812 342.8094 384.03125 343.59064Q384.75 344.35626 384.75 345.84064Q384.75 347.29376 384.03125 348.09064Q383.3125 348.8719 382.26562 348.8719Q381.21875 348.8719 380.53125 348.09064Q379.84375 347.3094 379.84375 345.7625ZM382.29688 343.77814Q381.76562 343.77814 381.40625 344.23126Q381.0625 344.6844 381.0625 345.90314Q381.0625 346.9969 381.40625 347.45Q381.76562 347.90314 382.28125 347.90314Q382.82812 347.90314 383.17188 347.45Q383.51562 346.9969 383.51562 345.79376Q383.51562 344.6844 383.15625 344.23126Q382.8125 343.77814 382.29688 343.77814Z" fill-rule="nonzero"/><path fill="#000000" d="M33.55001 245.3125L22.096888 245.3125L22.096888 243.03125L30.206263 240.3125Q31.331263 239.9375 31.893763 239.76562Q31.268763 239.57812 30.065638 239.15625L22.096888 236.42188L22.096888 234.375L33.55001 234.375L33.55001 235.84375L23.956263 235.84375L33.55001 239.17188L33.55001 240.53125L23.800013 243.84375L33.55001 243.84375L33.55001 245.3125ZM23.706263 232.4375L22.096888 232.4375L22.096888 231.03125L23.706263 231.03125L23.706263 232.4375ZM33.55001 232.4375L25.253138 232.4375L25.253138 231.03125L33.55001 231.03125L33.55001 232.4375ZM33.55001 228.46875L22.096888 228.46875L22.096888 227.0625L33.55001 227.0625L33.55001 228.46875ZM33.55001 224.46875L22.096888 224.46875L22.096888 223.0625L33.55001 223.0625L33.55001 224.46875ZM23.706263 220.4375L22.096888 220.4375L22.096888 219.03125L23.706263 219.03125L23.706263 220.4375ZM33.55001 220.4375L25.253138 220.4375L25.253138 219.03125L33.55001 219.03125L33.55001 220.4375ZM29.393763 216.96875Q27.096888 216.96875 25.987513 215.6875Q25.065638 214.60938 25.065638 213.07812Q25.065638 211.35938 26.190638 210.28125Q27.300013 209.1875 29.284388 209.1875Q30.878138 209.1875 31.800013 209.67188Q32.721886 210.15625 33.23751 211.07812Q33.73751 211.98438 33.73751 213.07812Q33.73751 214.8125 32.628136 215.89062Q31.503138 216.96875 29.393763 216.96875ZM29.393763 215.51562Q30.987513 215.51562 31.784388 214.82812Q32.58126 214.125 32.58126 213.07812Q32.58126 212.03125 31.784388 211.34375Q30.987513 210.64062 29.346888 210.64062Q27.815638 210.64062 27.018763 211.34375Q26.221888 212.03125 26.221888 213.07812Q26.221888 214.125 27.018763 214.82812Q27.800013 215.51562 29.393763 215.51562ZM33.55001 207.4375L25.253138 207.4375L25.253138 206.17188L26.425013 206.17188Q25.065638 205.26562 25.065638 203.53125Q25.065638 202.78125 25.331263 202.15625Q25.596888 201.53125 26.034388 201.21875Q26.471888 200.90625 27.081263 200.78125Q27.471888 200.70312 28.440638 200.70312L33.55001 200.70312L33.55001 202.10938L28.503138 202.10938Q27.643763 202.10938 27.221888 202.28125Q26.784388 202.4375 26.534388 202.85938Q26.284388 203.26562 26.284388 203.82812Q26.284388 204.73438 26.862513 205.39062Q27.425013 206.03125 29.018763 206.03125L33.55001 206.03125L33.55001 207.4375ZM33.55001 194.45312L25.253138 194.45312L25.253138 193.1875L26.503138 193.1875Q25.628138 192.70312 25.346888 192.29688Q25.065638 191.89062 25.065638 191.39062Q25.065638 190.6875 25.518763 189.95312L26.815638 190.4375Q26.518763 190.95312 26.518763 191.46875Q26.518763 191.92188 26.800013 192.29688Q27.065638 192.65625 27.565638 192.8125Q28.315638 193.04688 29.206263 193.04688L33.55001 193.04688L33.55001 194.45312ZM30.878138 183.76562L31.050013 182.3125Q32.33126 182.65625 33.034386 183.59375Q33.73751 184.51562 33.73751 185.95312Q33.73751 187.78125 32.61251 188.84375Q31.487513 189.90625 29.471888 189.90625Q27.378138 189.90625 26.221888 188.82812Q25.065638 187.75 25.065638 186.03125Q25.065638 184.375 26.206263 183.32812Q27.331263 182.26562 29.378138 182.26562Q29.503138 182.26562 29.753138 182.26562L29.753138 188.45312Q31.128138 188.375 31.862513 187.6875Q32.58126 186.98438 32.58126 185.95312Q32.58126 185.17188 32.17501 184.625Q31.768763 184.07812 30.878138 183.76562ZM28.596888 188.375L28.596888 183.75Q27.550013 183.84375 27.034388 184.28125Q26.221888 184.95312 26.221888 186.01562Q26.221888 186.98438 26.878138 187.65625Q27.518763 188.3125 28.596888 188.375ZM36.73751 175.15625L32.659386 175.15625Q33.128136 175.48438 33.440636 176.07812Q33.73751 176.65625 33.73751 177.32812Q33.73751 178.79688 32.565636 179.875Q31.378138 180.9375 29.315638 180.9375Q28.065638 180.9375 27.081263 180.5Q26.081263 180.0625 25.581263 179.25Q25.065638 178.42188 25.065638 177.4375Q25.065638 175.89062 26.362513 175.01562L25.253138 175.01562L25.253138 173.75L36.73751 173.75L36.73751 175.15625ZM29.378138 179.48438Q30.971888 179.48438 31.784388 178.8125Q32.58126 178.14062 32.58126 177.20312Q32.58126 176.3125 31.815638 175.67188Q31.050013 175.01562 29.503138 175.01562Q27.846888 175.01562 27.018763 175.70312Q26.175013 176.375 26.175013 177.29688Q26.175013 178.21875 26.956263 178.85938Q27.721888 179.48438 29.378138 179.48438ZM31.065638 172.0L30.846888 170.60938Q31.690638 170.5 32.14376 169.96875Q32.58126 169.42188 32.58126 168.46875Q32.58126 167.5 32.190636 167.03125Q31.784388 166.5625 31.253138 166.5625Q30.784388 166.5625 30.503138 166.96875Q30.315638 167.26562 30.034388 168.40625Q29.643763 169.95312 29.362513 170.5625Q29.065638 171.15625 28.565638 171.46875Q28.065638 171.76562 27.456263 171.76562Q26.893763 171.76562 26.425013 171.51562Q25.956263 171.26562 25.643763 170.82812Q25.393763 170.5 25.237513 169.9375Q25.065638 169.35938 25.065638 168.71875Q25.065638 167.73438 25.346888 167.0Q25.628138 166.26562 26.112513 165.92188Q26.581263 165.5625 27.393763 165.42188L27.581263 166.79688Q26.940638 166.89062 26.581263 167.34375Q26.221888 167.79688 26.221888 168.60938Q26.221888 169.57812 26.550013 170.0Q26.862513 170.40625 27.284388 170.40625Q27.565638 170.40625 27.784388 170.23438Q28.003138 170.0625 28.159388 169.70312Q28.237513 169.48438 28.518763 168.45312Q28.909388 166.96875 29.175013 166.375Q29.425013 165.78125 29.909388 165.45312Q30.393763 165.10938 31.112513 165.10938Q31.815638 165.10938 32.440636 165.53125Q33.05001 165.9375 33.39376 166.71875Q33.73751 167.48438 33.73751 168.45312Q33.73751 170.07812 33.065636 170.92188Q32.39376 171.76562 31.065638 172.0ZM36.73751 159.4375L25.253138 159.4375L25.253138 158.15625L26.331263 158.15625Q25.690638 157.70312 25.378138 157.14062Q25.065638 156.5625 25.065638 155.75Q25.065638 154.6875 25.612513 153.875Q26.159388 153.0625 27.159388 152.65625Q28.143763 152.23438 29.331263 152.23438Q30.612513 152.23438 31.628138 152.70312Q32.64376 153.15625 33.190636 154.03125Q33.73751 154.89062 33.73751 155.85938Q33.73751 156.5625 33.440636 157.125Q33.14376 157.67188 32.690636 158.03125L36.73751 158.03125L36.73751 159.4375ZM29.440638 158.17188Q31.050013 158.17188 31.815638 157.53125Q32.58126 156.875 32.58126 155.95312Q32.58126 155.01562 31.784388 154.34375Q30.987513 153.67188 29.331263 153.67188Q27.737513 153.67188 26.956263 154.32812Q26.159388 154.98438 26.159388 155.89062Q26.159388 156.78125 27.003138 157.48438Q27.846888 158.17188 29.440638 158.17188ZM30.878138 144.76562L31.050013 143.3125Q32.33126 143.65625 33.034386 144.59375Q33.73751 145.51562 33.73751 146.95312Q33.73751 148.78125 32.61251 149.84375Q31.487513 150.90625 29.471888 150.90625Q27.378138 150.90625 26.221888 149.82812Q25.065638 148.75 25.065638 147.03125Q25.065638 145.375 26.206263 144.32812Q27.331263 143.26562 29.378138 143.26562Q29.503138 143.26562 29.753138 143.26562L29.753138 149.45312Q31.128138 149.375 31.862513 148.6875Q32.58126 147.98438 32.58126 146.95312Q32.58126 146.17188 32.17501 145.625Q31.768763 145.07812 30.878138 144.76562ZM28.596888 149.375L28.596888 144.75Q27.550013 144.84375 27.034388 145.28125Q26.221888 145.95312 26.221888 147.01562Q26.221888 147.98438 26.878138 148.65625Q27.518763 149.3125 28.596888 149.375ZM33.55001 141.45312L25.253138 141.45312L25.253138 140.1875L26.503138 140.1875Q25.628138 139.70312 25.346888 139.29688Q25.065638 138.89062 25.065638 138.39062Q25.065638 137.6875 25.518763 136.95312L26.815638 137.4375Q26.518763 137.95312 26.518763 138.46875Q26.518763 138.92188 26.800013 139.29688Q27.065638 139.65625 27.565638 139.8125Q28.315638 140.04688 29.206263 140.04688L33.55001 140.04688L33.55001 141.45312ZM31.065638 133.0L30.846888 131.60938Q31.690638 131.5 32.14376 130.96875Q32.58126 130.42188 32.58126 129.46875Q32.58126 128.5 32.190636 128.03125Q31.784388 127.5625 31.253138 127.5625Q30.784388 127.5625 30.503138 127.96875Q30.315638 128.26562 30.034388 129.40625Q29.643763 130.95312 29.362513 131.5625Q29.065638 132.15625 28.565638 132.46875Q28.065638 132.76562 27.456263 132.76562Q26.893763 132.76562 26.425013 132.51562Q25.956263 132.26562 25.643763 131.82812Q25.393763 131.5 25.237513 130.9375Q25.065638 130.35938 25.065638 129.71875Q25.065638 128.73438 25.346888 128.0Q25.628138 127.265625 26.112513 126.921875Q26.581263 126.5625 27.393763 126.421875L27.581263 127.796875Q26.940638 127.890625 26.581263 128.34375Q26.221888 128.79688 26.221888 129.60938Q26.221888 130.57812 26.550013 131.0Q26.862513 131.40625 27.284388 131.40625Q27.565638 131.40625 27.784388 131.23438Q28.003138 131.0625 28.159388 130.70312Q28.237513 130.48438 28.518763 129.45312Q28.909388 127.96875 29.175013 127.375Q29.425013 126.78125 29.909388 126.453125Q30.393763 126.109375 31.112513 126.109375Q31.815638 126.109375 32.440636 126.53125Q33.05001 126.9375 33.39376 127.71875Q33.73751 128.48438 33.73751 129.45312Q33.73751 131.07812 33.065636 131.92188Q32.39376 132.76562 31.065638 133.0ZM30.878138 118.765625L31.050013 117.3125Q32.33126 117.65625 33.034386 118.59375Q33.73751 119.515625 33.73751 120.953125Q33.73751 122.78125 32.61251 123.84375Q31.487513 124.90625 29.471888 124.90625Q27.378138 124.90625 26.221888 123.828125Q25.065638 122.75 25.065638 121.03125Q25.065638 119.375 26.206263 118.328125Q27.331263 117.265625 29.378138 117.265625Q29.503138 117.265625 29.753138 117.265625L29.753138 123.453125Q31.128138 123.375 31.862513 122.6875Q32.58126 121.984375 32.58126 120.953125Q32.58126 120.171875 32.17501 119.625Q31.768763 119.078125 30.878138 118.765625ZM28.596888 123.375L28.596888 118.75Q27.550013 118.84375 27.034388 119.28125Q26.221888 119.953125 26.221888 121.015625Q26.221888 121.984375 26.878138 122.65625Q27.518763 123.3125 28.596888 123.375ZM30.503138 110.03125L30.690638 108.640625Q32.11251 108.875 32.92501 109.8125Q33.73751 110.734375 33.73751 112.09375Q33.73751 113.796875 32.628136 114.84375Q31.503138 115.875 29.425013 115.875Q28.081263 115.875 27.081263 115.4375Q26.065638 114.984375 25.565638 114.078125Q25.065638 113.15625 25.065638 112.09375Q25.065638 110.734375 25.753138 109.875Q26.425013 109.015625 27.690638 108.78125L27.893763 110.140625Q27.065638 110.34375 26.643763 110.84375Q26.221888 111.328125 26.221888 112.03125Q26.221888 113.09375 26.987513 113.765625Q27.737513 114.421875 29.393763 114.421875Q31.065638 114.421875 31.831263 113.78125Q32.58126 113.140625 32.58126 112.109375Q32.58126 111.28125 32.08126 110.734375Q31.565638 110.171875 30.503138 110.03125ZM29.393763 107.96875Q27.096888 107.96875 25.987513 106.6875Q25.065638 105.609375 25.065638 104.078125Q25.065638 102.359375 26.190638 101.28125Q27.300013 100.1875 29.284388 100.1875Q30.878138 100.1875 31.800013 100.671875Q32.721886 101.15625 33.23751 102.078125Q33.73751 102.984375 33.73751 104.078125Q33.73751 105.8125 32.628136 106.890625Q31.503138 107.96875 29.393763 107.96875ZM29.393763 106.515625Q30.987513 106.515625 31.784388 105.828125Q32.58126 105.125 32.58126 104.078125Q32.58126 103.03125 31.784388 102.34375Q30.987513 101.640625 29.346888 101.640625Q27.815638 101.640625 27.018763 102.34375Q26.221888 103.03125 26.221888 104.078125Q26.221888 105.125 27.018763 105.828125Q27.800013 106.515625 29.393763 106.515625ZM33.55001 98.4375L25.253138 98.4375L25.253138 97.171875L26.425013 97.171875Q25.065638 96.265625 25.065638 94.53125Q25.065638 93.78125 25.331263 93.15625Q25.596888 92.53125 26.034388 92.21875Q26.471888 91.90625 27.081263 91.78125Q27.471888 91.703125 28.440638 91.703125L33.55001 91.703125L33.55001 93.109375L28.503138 93.109375Q27.643763 93.109375 27.221888 93.28125Q26.784388 93.4375 26.534388 93.859375Q26.284388 94.265625 26.284388 94.828125Q26.284388 95.734375 26.862513 96.390625Q27.425013 97.03125 29.018763 97.03125L33.55001 97.03125L33.55001 98.4375ZM33.55001 84.0625L32.503136 84.0625Q33.73751 84.84375 33.73751 86.375Q33.73751 87.375 33.190636 88.203125Q32.64376 89.03125 31.659388 89.5Q30.675013 89.953125 29.409388 89.953125Q28.159388 89.953125 27.159388 89.546875Q26.143763 89.125 25.612513 88.296875Q25.065638 87.46875 25.065638 86.4375Q25.065638 85.6875 25.378138 85.109375Q25.690638 84.515625 26.206263 84.15625L22.096888 84.15625L22.096888 82.75L33.55001 82.75L33.55001 84.0625ZM29.409388 88.5Q31.003138 88.5 31.800013 87.828125Q32.58126 87.15625 32.58126 86.25Q32.58126 85.328125 31.831263 84.6875Q31.065638 84.03125 29.518763 84.03125Q27.815638 84.03125 27.018763 84.6875Q26.221888 85.34375 26.221888 86.3125Q26.221888 87.25 26.987513 87.875Q27.753138 88.5 29.409388 88.5Z" fill-rule="nonzero"/><path fill="#000000" d="M78.12813 286.5125Q78.12813 284.73126 78.4875 283.65314Q78.8625 282.5594 79.58125 281.98126Q80.3 281.3875 81.39375 281.3875Q82.20625 281.3875 82.81563 281.71564Q83.425 282.04376 83.81563 282.65314Q84.22188 283.2625 84.44063 284.1375Q84.65938 285.0125 84.65938 286.5125Q84.65938 288.27814 84.3 289.35626Q83.94063 290.4344 83.22188 291.02814Q82.50313 291.6219 81.39375 291.6219Q79.95625 291.6219 79.12813 290.575Q78.12813 289.325 78.12813 286.5125ZM79.39375 286.5125Q79.39375 288.98126 79.97188 289.79376Q80.55 290.60626 81.39375 290.60626Q82.25313 290.60626 82.83125 289.79376Q83.40938 288.96564 83.40938 286.5125Q83.40938 284.02814 82.83125 283.21564Q82.25313 282.40314 81.37813 282.40314Q80.53438 282.40314 80.03438 283.1219Q79.39375 284.04376 79.39375 286.5125Z" fill-rule="nonzero"/><path fill="#000000" d="M68.59688 225.2875L68.59688 226.475L61.971874 226.475Q61.95625 226.0375 62.1125 225.61563Q62.378124 224.94376 62.925 224.2875Q63.4875 223.63126 64.53438 222.77188Q66.175 221.42813 66.7375 220.64688Q67.31563 219.86563 67.31563 219.1625Q67.31563 218.42813 66.78438 217.92813Q66.26875 217.42813 65.44063 217.42813Q64.55 217.42813 64.00313 217.95938Q63.471874 218.49063 63.471874 219.44376L62.20625 219.30313Q62.33125 217.89688 63.175 217.1625Q64.03438 216.4125 65.45625 216.4125Q66.90938 216.4125 67.7375 217.20938Q68.58125 218.00626 68.58125 219.19376Q68.58125 219.80313 68.33125 220.38126Q68.09688 220.95938 67.51875 221.6Q66.95625 222.24063 65.62813 223.36563Q64.51875 224.2875 64.20625 224.63126Q63.89375 224.95938 63.690624 225.2875L68.59688 225.2875ZM70.12813 221.5375Q70.12813 219.75626 70.4875 218.67813Q70.8625 217.58438 71.58125 217.00626Q72.3 216.4125 73.39375 216.4125Q74.20625 216.4125 74.81563 216.74063Q75.425 217.06876 75.81563 217.67813Q76.22188 218.2875 76.44063 219.1625Q76.65938 220.0375 76.65938 221.5375Q76.65938 223.30313 76.3 224.38126Q75.94063 225.45938 75.22188 226.05313Q74.50313 226.64688 73.39375 226.64688Q71.95625 226.64688 71.12813 225.6Q70.12813 224.35 70.12813 221.5375ZM71.39375 221.5375Q71.39375 224.00626 71.97188 224.81876Q72.55 225.63126 73.39375 225.63126Q74.25313 225.63126 74.83125 224.81876Q75.40938 223.99063 75.40938 221.5375Q75.40938 219.05313 74.83125 218.24063Q74.25313 217.42813 73.37813 217.42813Q72.53438 217.42813 72.03438 218.14688Q71.39375 219.06876 71.39375 221.5375ZM78.12813 221.5375Q78.12813 219.75626 78.4875 218.67813Q78.8625 217.58438 79.58125 217.00626Q80.3 216.4125 81.39375 216.4125Q82.20625 216.4125 82.81563 216.74063Q83.425 217.06876 83.81563 217.67813Q84.22188 218.2875 84.44063 219.1625Q84.65938 220.0375 84.65938 221.5375Q84.65938 223.30313 84.3 224.38126Q83.94063 225.45938 83.22188 226.05313Q82.50313 226.64688 81.39375 226.64688Q79.95625 226.64688 79.12813 225.6Q78.12813 224.35 78.12813 221.5375ZM79.39375 221.5375Q79.39375 224.00626 79.97188 224.81876Q80.55 225.63126 81.39375 225.63126Q82.25313 225.63126 82.83125 224.81876Q83.40938 223.99063 83.40938 221.5375Q83.40938 219.05313 82.83125 218.24063Q82.25313 217.42813 81.37813 217.42813Q80.53438 217.42813 80.03438 218.14688Q79.39375 219.06876 79.39375 221.5375Z" fill-rule="nonzero"/><path fill="#000000" d="M66.08125 161.5L66.08125 159.09375L61.721874 159.09375L61.721874 157.96875L66.3 151.48438L67.3 151.48438L67.3 157.96875L68.65938 157.96875L68.65938 159.09375L67.3 159.09375L67.3 161.5L66.08125 161.5ZM66.08125 157.96875L66.08125 153.45312L62.940624 157.96875L66.08125 157.96875ZM70.12813 156.5625Q70.12813 154.78125 70.4875 153.70312Q70.8625 152.60938 71.58125 152.03125Q72.3 151.4375 73.39375 151.4375Q74.20625 151.4375 74.81563 151.76562Q75.425 152.09375 75.81563 152.70312Q76.22188 153.3125 76.44063 154.1875Q76.65938 155.0625 76.65938 156.5625Q76.65938 158.32812 76.3 159.40625Q75.94063 160.48438 75.22188 161.07812Q74.50313 161.67188 73.39375 161.67188Q71.95625 161.67188 71.12813 160.625Q70.12813 159.375 70.12813 156.5625ZM71.39375 156.5625Q71.39375 159.03125 71.97188 159.84375Q72.55 160.65625 73.39375 160.65625Q74.25313 160.65625 74.83125 159.84375Q75.40938 159.01562 75.40938 156.5625Q75.40938 154.07812 74.83125 153.26562Q74.25313 152.45312 73.37813 152.45312Q72.53438 152.45312 72.03438 153.17188Q71.39375 154.09375 71.39375 156.5625ZM78.12813 156.5625Q78.12813 154.78125 78.4875 153.70312Q78.8625 152.60938 79.58125 152.03125Q80.3 151.4375 81.39375 151.4375Q82.20625 151.4375 82.81563 151.76562Q83.425 152.09375 83.81563 152.70312Q84.22188 153.3125 84.44063 154.1875Q84.65938 155.0625 84.65938 156.5625Q84.65938 158.32812 84.3 159.40625Q83.94063 160.48438 83.22188 161.07812Q82.50313 161.67188 81.39375 161.67188Q79.95625 161.67188 79.12813 160.625Q78.12813 159.375 78.12813 156.5625ZM79.39375 156.5625Q79.39375 159.03125 79.97188 159.84375Q80.55 160.65625 81.39375 160.65625Q82.25313 160.65625 82.83125 159.84375Q83.40938 159.01562 83.40938 156.5625Q83.40938 154.07812 82.83125 153.26562Q82.25313 152.45312 81.37813 152.45312Q80.53438 152.45312 80.03438 153.17188Q79.39375 154.09375 79.39375 156.5625Z" fill-rule="nonzero"/><path fill="#000000" d="M68.51875 88.9625L67.3 89.05625Q67.12813 88.32188 66.83125 87.99375Q66.33125 87.47813 65.59688 87.47813Q65.00313 87.47813 64.56563 87.80625Q63.9875 88.22813 63.64375 89.04063Q63.315624 89.85313 63.3 91.35313Q63.7375 90.68125 64.37813 90.35313Q65.03438 90.025 65.7375 90.025Q66.97188 90.025 67.83125 90.93125Q68.69063 91.8375 68.69063 93.275Q68.69063 94.2125 68.28438 95.025Q67.87813 95.8375 67.15938 96.275Q66.45625 96.69688 65.55 96.69688Q64.01875 96.69688 63.05 95.57188Q62.08125 94.43125 62.08125 91.8375Q62.08125 88.93125 63.14375 87.60313Q64.08125 86.4625 65.675 86.4625Q66.8625 86.4625 67.6125 87.13438Q68.3625 87.79063 68.51875 88.9625ZM63.4875 93.275Q63.4875 93.91563 63.753124 94.49375Q64.03438 95.07188 64.51875 95.38438Q65.00313 95.68125 65.53438 95.68125Q66.31563 95.68125 66.87813 95.05625Q67.44063 94.43125 67.44063 93.35313Q67.44063 92.30625 66.87813 91.7125Q66.33125 91.10313 65.4875 91.10313Q64.65938 91.10313 64.06563 91.7125Q63.4875 92.30625 63.4875 93.275ZM70.12813 91.5875Q70.12813 89.80625 70.4875 88.72813Q70.8625 87.63438 71.58125 87.05625Q72.3 86.4625 73.39375 86.4625Q74.20625 86.4625 74.81563 86.79063Q75.425 87.11875 75.81563 87.72813Q76.22188 88.3375 76.44063 89.2125Q76.65938 90.0875 76.65938 91.5875Q76.65938 93.35313 76.3 94.43125Q75.94063 95.50938 75.22188 96.10313Q74.50313 96.69688 73.39375 96.69688Q71.95625 96.69688 71.12813 95.65Q70.12813 94.4 70.12813 91.5875ZM71.39375 91.5875Q71.39375 94.05625 71.97188 94.86875Q72.55 95.68125 73.39375 95.68125Q74.25313 95.68125 74.83125 94.86875Q75.40938 94.04063 75.40938 91.5875Q75.40938 89.10313 74.83125 88.29063Q74.25313 87.47813 73.37813 87.47813Q72.53438 87.47813 72.03438 88.19688Q71.39375 89.11875 71.39375 91.5875ZM78.12813 91.5875Q78.12813 89.80625 78.4875 88.72813Q78.8625 87.63438 79.58125 87.05625Q80.3 86.4625 81.39375 86.4625Q82.20625 86.4625 82.81563 86.79063Q83.425 87.11875 83.81563 87.72813Q84.22188 88.3375 84.44063 89.2125Q84.65938 90.0875 84.65938 91.5875Q84.65938 93.35313 84.3 94.43125Q83.94063 95.50938 83.22188 96.10313Q82.50313 96.69688 81.39375 96.69688Q79.95625 96.69688 79.12813 95.65Q78.12813 94.4 78.12813 91.5875ZM79.39375 91.5875Q79.39375 94.05625 79.97188 94.86875Q80.55 95.68125 81.39375 95.68125Q82.25313 95.68125 82.83125 94.86875Q83.40938 94.04063 83.40938 91.5875Q83.40938 89.10313 82.83125 88.29063Q82.25313 87.47813 81.37813 87.47813Q80.53438 87.47813 80.03438 88.19688Q79.39375 89.11875 79.39375 91.5875Z" fill-rule="nonzero"/><path fill="#000000" d="M64.01875 26.1125Q63.253124 25.83125 62.878124 25.315624Q62.51875 24.8 62.51875 24.065624Q62.51875 22.971874 63.3 22.2375Q64.09688 21.4875 65.39375 21.4875Q66.70625 21.4875 67.50313 22.253124Q68.31563 23.01875 68.31563 24.1125Q68.31563 24.8 67.94063 25.315624Q67.58125 25.83125 66.83125 26.1125Q67.75313 26.409374 68.2375 27.08125Q68.72188 27.753124 68.72188 28.690624Q68.72188 29.971874 67.81563 30.846874Q66.90938 31.721874 65.425 31.721874Q63.940624 31.721874 63.01875 30.846874Q62.1125 29.95625 62.1125 28.64375Q62.1125 27.675 62.6125 27.01875Q63.1125 26.346874 64.01875 26.1125ZM63.784374 24.034374Q63.784374 24.7375 64.2375 25.190624Q64.69063 25.64375 65.425 25.64375Q66.14375 25.64375 66.59688 25.20625Q67.05 24.753124 67.05 24.096874Q67.05 23.425 66.58125 22.971874Q66.1125 22.503124 65.40938 22.503124Q64.70625 22.503124 64.2375 22.95625Q63.784374 23.39375 63.784374 24.034374ZM63.378124 28.659374Q63.378124 29.190624 63.628124 29.690624Q63.878124 30.175 64.3625 30.440624Q64.8625 30.70625 65.44063 30.70625Q66.31563 30.70625 66.87813 30.14375Q67.45625 29.58125 67.45625 28.70625Q67.45625 27.815624 66.8625 27.2375Q66.28438 26.64375 65.39375 26.64375Q64.51875 26.64375 63.940624 27.221874Q63.378124 27.8 63.378124 28.659374ZM70.12813 26.6125Q70.12813 24.83125 70.4875 23.753124Q70.8625 22.659374 71.58125 22.08125Q72.3 21.4875 73.39375 21.4875Q74.20625 21.4875 74.81563 21.815624Q75.425 22.14375 75.81563 22.753124Q76.22188 23.3625 76.44063 24.2375Q76.65938 25.1125 76.65938 26.6125Q76.65938 28.378124 76.3 29.45625Q75.94063 30.534374 75.22188 31.128124Q74.50313 31.721874 73.39375 31.721874Q71.95625 31.721874 71.12813 30.675Q70.12813 29.425 70.12813 26.6125ZM71.39375 26.6125Q71.39375 29.08125 71.97188 29.89375Q72.55 30.70625 73.39375 30.70625Q74.25313 30.70625 74.83125 29.89375Q75.40938 29.065624 75.40938 26.6125Q75.40938 24.128124 74.83125 23.315624Q74.25313 22.503124 73.37813 22.503124Q72.53438 22.503124 72.03438 23.221874Q71.39375 24.14375 71.39375 26.6125ZM78.12813 26.6125Q78.12813 24.83125 78.4875 23.753124Q78.8625 22.659374 79.58125 22.08125Q80.3 21.4875 81.39375 21.4875Q82.20625 21.4875 82.81563 21.815624Q83.425 22.14375 83.81563 22.753124Q84.22188 23.3625 84.44063 24.2375Q84.65938 25.1125 84.65938 26.6125Q84.65938 28.378124 84.3 29.45625Q83.94063 30.534374 83.22188 31.128124Q82.50313 31.721874 81.39375 31.721874Q79.95625 31.721874 79.12813 30.675Q78.12813 29.425 78.12813 26.6125ZM79.39375 26.6125Q79.39375 29.08125 79.97188 29.89375Q80.55 30.70625 81.39375 30.70625Q82.25313 30.70625 82.83125 29.89375Q83.40938 29.065624 83.40938 26.6125Q83.40938 24.128124 82.83125 23.315624Q82.25313 22.503124 81.37813 22.503124Q80.53438 22.503124 80.03438 23.221874Q79.39375 24.14375 79.39375 26.6125Z" fill-rule="nonzero"/><path fill="#000000" d="M98.73512 301.5125Q98.73512 299.73126 99.0945 298.65314Q99.4695 297.5594 100.18825 296.98126Q100.907 296.3875 102.00075 296.3875Q102.81325 296.3875 103.42262 296.71564Q104.032 297.04376 104.42262 297.65314Q104.82887 298.2625 105.04762 299.1375Q105.26637 300.0125 105.26637 301.5125Q105.26637 303.27814 104.907 304.35626Q104.54762 305.4344 103.82887 306.02814Q103.11012 306.6219 102.00075 306.6219Q100.56325 306.6219 99.73512 305.575Q98.73512 304.325 98.73512 301.5125ZM100.00075 301.5125Q100.00075 303.98126 100.57887 304.79376Q101.157 305.60626 102.00075 305.60626Q102.86012 305.60626 103.43825 304.79376Q104.01637 303.96564 104.01637 301.5125Q104.01637 299.02814 103.43825 298.21564Q102.86012 297.40314 101.98512 297.40314Q101.14137 297.40314 100.64137 298.1219Q100.00075 299.04376 100.00075 301.5125Z" fill-rule="nonzero"/><path fill="#000000" d="M218.62537 305.2625L218.62537 306.45L212.00037 306.45Q211.98474 306.0125 212.14099 305.59064Q212.40662 304.91876 212.95349 304.2625Q213.51599 303.60626 214.56287 302.7469Q216.20349 301.40314 216.76599 300.6219Q217.34412 299.84064 217.34412 299.1375Q217.34412 298.40314 216.81287 297.90314Q216.29724 297.40314 215.46912 297.40314Q214.57849 297.40314 214.03162 297.9344Q213.50037 298.46564 213.50037 299.41876L212.23474 299.27814Q212.35974 297.8719 213.20349 297.1375Q214.06287 296.3875 215.48474 296.3875Q216.93787 296.3875 217.76599 297.1844Q218.60974 297.98126 218.60974 299.16876Q218.60974 299.77814 218.35974 300.35626Q218.12537 300.9344 217.54724 301.575Q216.98474 302.21564 215.65662 303.34064Q214.54724 304.2625 214.23474 304.60626Q213.92224 304.9344 213.71912 305.2625L218.62537 305.2625ZM220.15662 303.825L221.45349 303.71564Q221.59412 304.65314 222.10974 305.1375Q222.64099 305.60626 223.37537 305.60626Q224.26599 305.60626 224.87537 304.9344Q225.50037 304.2625 225.50037 303.16876Q225.50037 302.10626 224.90662 301.4969Q224.31287 300.8875 223.35974 300.8875Q222.76599 300.8875 222.28162 301.16876Q221.81287 301.4344 221.53162 301.85626L220.37537 301.71564L221.34412 296.5594L226.32849 296.5594L226.32849 297.7469L222.32849 297.7469L221.79724 300.4344Q222.70349 299.8094 223.68787 299.8094Q225.00037 299.8094 225.89099 300.71564Q226.79724 301.6219 226.79724 303.0594Q226.79724 304.41876 226.01599 305.40314Q225.04724 306.6219 223.37537 306.6219Q222.01599 306.6219 221.14099 305.85626Q220.28162 305.09064 220.15662 303.825Z" fill-rule="nonzero"/><path fill="#000000" d="M329.57812 303.825L330.875 303.71564Q331.01562 304.65314 331.53125 305.1375Q332.0625 305.60626 332.79688 305.60626Q333.6875 305.60626 334.29688 304.9344Q334.92188 304.2625 334.92188 303.16876Q334.92188 302.10626 334.32812 301.4969Q333.73438 300.8875 332.78125 300.8875Q332.1875 300.8875 331.70312 301.16876Q331.23438 301.4344 330.95312 301.85626L329.79688 301.71564L330.76562 296.5594L335.75 296.5594L335.75 297.7469L331.75 297.7469L331.21875 300.4344Q332.125 299.8094 333.10938 299.8094Q334.42188 299.8094 335.3125 300.71564Q336.21875 301.6219 336.21875 303.0594Q336.21875 304.41876 335.4375 305.40314Q334.46875 306.6219 332.79688 306.6219Q331.4375 306.6219 330.5625 305.85626Q329.70312 305.09064 329.57812 303.825ZM337.57812 301.5125Q337.57812 299.73126 337.9375 298.65314Q338.3125 297.5594 339.03125 296.98126Q339.75 296.3875 340.84375 296.3875Q341.65625 296.3875 342.26562 296.71564Q342.875 297.04376 343.26562 297.65314Q343.67188 298.2625 343.89062 299.1375Q344.10938 300.0125 344.10938 301.5125Q344.10938 303.27814 343.75 304.35626Q343.39062 305.4344 342.67188 306.02814Q341.95312 306.6219 340.84375 306.6219Q339.40625 306.6219 338.57812 305.575Q337.57812 304.325 337.57812 301.5125ZM338.84375 301.5125Q338.84375 303.98126 339.42188 304.79376Q340.0 305.60626 340.84375 305.60626Q341.70312 305.60626 342.28125 304.79376Q342.85938 303.96564 342.85938 301.5125Q342.85938 299.02814 342.28125 298.21564Q341.70312 297.40314 340.82812 297.40314Q339.98438 297.40314 339.48438 298.1219Q338.84375 299.04376 338.84375 301.5125Z" fill-rule="nonzero"/><path fill="#000000" d="M447.07776 297.7469L447.07776 296.5594L453.57776 296.5594L453.57776 297.5125Q452.609 298.52814 451.6715 300.21564Q450.734 301.90314 450.21838 303.7Q449.859 304.95 449.74963 306.45L448.484 306.45Q448.49963 305.2625 448.93713 303.59064Q449.39026 301.91876 450.21838 300.3719Q451.06213 298.8094 451.99963 297.7469L447.07776 297.7469ZM454.99963 303.825L456.2965 303.71564Q456.43713 304.65314 456.95276 305.1375Q457.484 305.60626 458.21838 305.60626Q459.109 305.60626 459.71838 304.9344Q460.34338 304.2625 460.34338 303.16876Q460.34338 302.10626 459.74963 301.4969Q459.15588 300.8875 458.20276 300.8875Q457.609 300.8875 457.12463 301.16876Q456.65588 301.4344 456.37463 301.85626L455.21838 301.71564L456.18713 296.5594L461.1715 296.5594L461.1715 297.7469L457.1715 297.7469L456.64026 300.4344Q457.5465 299.8094 458.53088 299.8094Q459.84338 299.8094 460.734 300.71564Q461.64026 301.6219 461.64026 303.0594Q461.64026 304.41876 460.859 305.40314Q459.89026 306.6219 458.21838 306.6219Q456.859 306.6219 455.984 305.85626Q455.12463 305.09064 454.99963 303.825Z" fill-rule="nonzero"/><path fill="#000000" d="M565.06177 306.45L563.8274 306.45L563.8274 298.60626Q563.3899 299.02814 562.6555 299.46564Q561.93677 299.8875 561.37427 300.09064L561.37427 298.90314Q562.4055 298.41876 563.17114 297.73126Q563.9524 297.04376 564.2649 296.3875L565.06177 296.3875L565.06177 306.45ZM568.42114 301.5125Q568.42114 299.73126 568.7805 298.65314Q569.1555 297.5594 569.87427 296.98126Q570.593 296.3875 571.68677 296.3875Q572.49927 296.3875 573.10864 296.71564Q573.718 297.04376 574.10864 297.65314Q574.5149 298.2625 574.73364 299.1375Q574.9524 300.0125 574.9524 301.5125Q574.9524 303.27814 574.593 304.35626Q574.23364 305.4344 573.5149 306.02814Q572.79614 306.6219 571.68677 306.6219Q570.24927 306.6219 569.42114 305.575Q568.42114 304.325 568.42114 301.5125ZM569.68677 301.5125Q569.68677 303.98126 570.2649 304.79376Q570.843 305.60626 571.68677 305.60626Q572.54614 305.60626 573.12427 304.79376Q573.7024 303.96564 573.7024 301.5125Q573.7024 299.02814 573.12427 298.21564Q572.54614 297.40314 571.67114 297.40314Q570.8274 297.40314 570.3274 298.1219Q569.68677 299.04376 569.68677 301.5125ZM576.42114 301.5125Q576.42114 299.73126 576.7805 298.65314Q577.1555 297.5594 577.87427 296.98126Q578.593 296.3875 579.68677 296.3875Q580.49927 296.3875 581.10864 296.71564Q581.718 297.04376 582.10864 297.65314Q582.5149 298.2625 582.73364 299.1375Q582.9524 300.0125 582.9524 301.5125Q582.9524 303.27814 582.593 304.35626Q582.23364 305.4344 581.5149 306.02814Q580.79614 306.6219 579.68677 306.6219Q578.24927 306.6219 577.42114 305.575Q576.42114 304.325 576.42114 301.5125ZM577.68677 301.5125Q577.68677 303.98126 578.2649 304.79376Q578.843 305.60626 579.68677 305.60626Q580.54614 305.60626 581.12427 304.79376Q581.7024 303.96564 581.7024 301.5125Q581.7024 299.02814 581.12427 298.21564Q580.54614 297.40314 579.67114 297.40314Q578.8274 297.40314 578.3274 298.1219Q577.68677 299.04376 577.68677 301.5125Z" fill-rule="nonzero"/></svg>