<svg version="1.1" viewBox="0.0 0.0 960.0 540.0" fill="none" stroke="none" stroke-linecap="square" stroke-miterlimit="10" xmlns:xlink="http://www.w3.org/1999/xlink" xmlns="http://www.w3.org/2000/svg"><clipPath id="gd3fb8edd5e_0_0.0"><path d="m0 0l960.0 0l0 540.0l-960.0 0l0 -540.0z" clip-rule="nonzero"/></clipPath><g clip-path="url(#gd3fb8edd5e_0_0.0)"><path fill="#ffffff" d="m0 0l960.0 0l0 540.0l-960.0 0z" fill-rule="evenodd"/><path fill="#000000" fill-opacity="0.0" d="m278.4736 348.73315l112.787384 0l0 44.094482l-112.787384 0z" fill-rule="evenodd"/><path stroke="#595959" stroke-width="1.0" stroke-linejoin="round" stroke-linecap="butt" d="m278.4736 348.73315l112.787384 0l0 44.094482l-112.787384 0z" fill-rule="evenodd"/><path fill="#000000" d="m317.86124 377.70038l-0.546875 0q-0.1875 0 -0.1875 -0.21875l0 -11.546875q0 -0.234375 0.1875 -0.234375l0.515625 0q0.15625 0 0.21875 0.109375l5.734375 9.859375l0.0625 0l0 -9.734375q0 -0.234375 0.203125 -0.234375l0.53125 0q0.203125 0 0.203125 0.234375l0 11.546875q0 0.21875 -0.203125 0.21875l-0.4375 0q-0.15625 0 -0.296875 -0.203125l-5.703125 -9.78125l-0.078125 0l0 9.765625q0 0.21875 -0.203125 0.21875zm13.911346 0l-1.59375 0q-1.21875 0 -1.921875 -0.703125q-0.6875 -0.71875 -0.6875 -1.953125l0 -4.203125q0 -1.234375 0.6875 -1.9375q0.703125 -0.71875 1.921875 -0.71875l1.59375 0q1.21875 0 1.921875 0.71875q0.71875 0.703125 0.71875 1.9375l0 4.203125q0 1.234375 -0.71875 1.953125q-0.703125 0.703125 -1.921875 0.703125zm-1.515625 -0.84375l1.453125 0q0.859375 0 1.3125 -0.46875q0.453125 -0.484375 0.453125 -1.359375l0 -4.171875q0 -0.875 -0.453125 -1.34375q-0.453125 -0.484375 -1.3125 -0.484375l-1.453125 0q-0.859375 0 -1.3125 0.484375q-0.453125 0.46875 -0.453125 1.34375l0 4.171875q0 0.875 0.453125 1.359375q0.453125 0.46875 1.3125 0.46875zm10.3785095 0.84375l-1.25 0q-1.1875 0 -1.875 -0.703125q-0.6875 -0.71875 -0.6875 -1.953125l0 -4.203125q0 -1.234375 0.6875 -1.9375q0.6875 -0.71875 1.875 -0.71875l1.25 0q1.4375 0 1.96875 0.96875l0.078125 0l0 -4.34375q0 -0.21875 0.171875 -0.21875l0.546875 0q0.203125 0 0.203125 0.21875l0 12.671875q0 0.21875 -0.203125 0.21875l-0.546875 0q-0.171875 0 -0.171875 -0.21875l0 -0.75l-0.078125 0q-0.53125 0.96875 -1.96875 0.96875zm2.046875 -2.671875l0 -4.171875q0 -0.875 -0.515625 -1.34375q-0.515625 -0.484375 -1.40625 -0.484375l-1.25 0q-0.859375 0 -1.3125 0.484375q-0.453125 0.484375 -0.453125 1.359375l0 4.140625q0 0.875 0.453125 1.359375q0.453125 0.484375 1.3125 0.484375l1.25 0q0.890625 0 1.40625 -0.46875q0.515625 -0.484375 0.515625 -1.359375zm10.0433655 2.671875l-3.890625 0q-1.21875 0 -1.921875 -0.703125q-0.6875 -0.71875 -0.6875 -1.953125l0 -4.203125q0 -1.234375 0.6875 -1.9375q0.703125 -0.71875 1.921875 -0.71875l1.59375 0q1.21875 0 1.921875 0.71875q0.71875 0.703125 0.71875 1.9375l0 2.359375q0 0.234375 -0.234375 0.234375l-5.515625 0q-0.171875 0 -0.171875 0.15625l0 1.4375q0 0.875 0.453125 1.359375q0.453125 0.46875 1.3125 0.46875l3.8125 0q0.203125 0 0.203125 0.203125l0 0.4375q0 0.203125 -0.203125 0.203125zm-5.40625 -5.015625l4.640625 0q0.171875 0 0.171875 -0.171875l0 -1.65625q0 -0.875 -0.453125 -1.34375q-0.4375 -0.484375 -1.296875 -0.484375l-1.46875 0q-0.859375 0 -1.3125 0.484375q-0.453125 0.46875 -0.453125 1.34375l0 1.65625q0 0.171875 0.171875 0.171875z" fill-rule="nonzero"/><path fill="#000000" fill-opacity="0.0" d="m201.90489 447.84338l94.23622 0l0 44.094482l-94.23622 0z" fill-rule="evenodd"/><path stroke="#595959" stroke-width="1.0" stroke-linejoin="round" stroke-linecap="butt" d="m201.90489 447.84338l94.23622 0l0 44.094482l-94.23622 0z" fill-rule="evenodd"/><path fill="#000000" d="m232.01695 476.81064l-0.546875 0q-0.1875 0 -0.1875 -0.21875l0 -11.546875q0 -0.234375 0.1875 -0.234375l0.515625 0q0.15625 0 0.21875 0.109375l5.734375 9.859375l0.0625 0l0 -9.734375q0 -0.234375 0.203125 -0.234375l0.53125 0q0.203125 0 0.203125 0.234375l0 11.546875q0 0.21875 -0.203125 0.21875l-0.4375 0q-0.15625 0 -0.296875 -0.203125l-5.703125 -9.78125l-0.078125 0l0 9.765625q0 0.21875 -0.203125 0.21875zm13.911346 0l-1.59375 0q-1.21875 0 -1.921875 -0.703125q-0.6875 -0.71875 -0.6875 -1.953125l0 -4.203125q0 -1.234375 0.6875 -1.9375q0.703125 -0.71875 1.921875 -0.71875l1.59375 0q1.21875 0 1.921875 0.71875q0.71875 0.703125 0.71875 1.9375l0 4.203125q0 1.234375 -0.71875 1.953125q-0.703125 0.703125 -1.921875 0.703125zm-1.515625 -0.84375l1.453125 0q0.859375 0 1.3125 -0.46875q0.453125 -0.484375 0.453125 -1.359375l0 -4.171875q0 -0.875 -0.453125 -1.34375q-0.453125 -0.484375 -1.3125 -0.484375l-1.453125 0q-0.859375 0 -1.3125 0.484375q-0.453125 0.46875 -0.453125 1.34375l0 4.171875q0 0.875 0.453125 1.359375q0.453125 0.46875 1.3125 0.46875zm10.3785095 0.84375l-1.25 0q-1.1875 0 -1.875 -0.703125q-0.6875 -0.71875 -0.6875 -1.953125l0 -4.203125q0 -1.234375 0.6875 -1.9375q0.6875 -0.71875 1.875 -0.71875l1.25 0q1.4374847 0 1.9687347 0.96875l0.078125 0l0 -4.34375q0 -0.21875 0.171875 -0.21875l0.546875 0q0.203125 0 0.203125 0.21875l0 12.671875q0 0.21875 -0.203125 0.21875l-0.546875 0q-0.171875 0 -0.171875 -0.21875l0 -0.75l-0.078125 0q-0.53125 0.96875 -1.9687347 0.96875zm2.0468597 -2.671875l0 -4.171875q0 -0.875 -0.515625 -1.34375q-0.51560974 -0.484375 -1.4062347 -0.484375l-1.25 0q-0.859375 0 -1.3125 0.484375q-0.453125 0.484375 -0.453125 1.359375l0 4.140625q0 0.875 0.453125 1.359375q0.453125 0.484375 1.3125 0.484375l1.25 0q0.890625 0 1.4062347 -0.46875q0.515625 -0.484375 0.515625 -1.359375zm10.043396 2.671875l-3.890625 0q-1.21875 0 -1.921875 -0.703125q-0.6875 -0.71875 -0.6875 -1.953125l0 -4.203125q0 -1.234375 0.6875 -1.9375q0.703125 -0.71875 1.921875 -0.71875l1.59375 0q1.21875 0 1.921875 0.71875q0.71875 0.703125 0.71875 1.9375l0 2.359375q0 0.234375 -0.234375 0.234375l-5.515625 0q-0.171875 0 -0.171875 0.15625l0 1.4375q0 0.875 0.453125 1.359375q0.453125 0.46875 1.3125 0.46875l3.8125 0q0.203125 0 0.203125 0.203125l0 0.4375q0 0.203125 -0.203125 0.203125zm-5.40625 -5.015625l4.640625 0q0.171875 0 0.171875 -0.171875l0 -1.65625q0 -0.875 -0.453125 -1.34375q-0.4375 -0.484375 -1.296875 -0.484375l-1.46875 0q-0.859375 0 -1.3125 0.484375q-0.453125 0.46875 -0.453125 1.34375l0 1.65625q0 0.171875 0.171875 0.171875z" fill-rule="nonzero"/><path fill="#000000" fill-opacity="0.0" d="m376.14026 447.84338l94.236206 0l0 44.094482l-94.236206 0z" fill-rule="evenodd"/><path stroke="#595959" stroke-width="1.0" stroke-linejoin="round" stroke-linecap="butt" d="m376.14026 447.84338l94.236206 0l0 44.094482l-94.236206 0z" fill-rule="evenodd"/><path fill="#000000" d="m406.25232 476.81064l-0.546875 0q-0.1875 0 -0.1875 -0.21875l0 -11.546875q0 -0.234375 0.1875 -0.234375l0.515625 0q0.15625 0 0.21875 0.109375l5.734375 9.859375l0.0625 0l0 -9.734375q0 -0.234375 0.203125 -0.234375l0.53125 0q0.203125 0 0.203125 0.234375l0 11.546875q0 0.21875 -0.203125 0.21875l-0.4375 0q-0.15625 0 -0.296875 -0.203125l-5.703125 -9.78125l-0.078125 0l0 9.765625q0 0.21875 -0.203125 0.21875zm13.911346 0l-1.59375 0q-1.21875 0 -1.921875 -0.703125q-0.6875 -0.71875 -0.6875 -1.953125l0 -4.203125q0 -1.234375 0.6875 -1.9375q0.703125 -0.71875 1.921875 -0.71875l1.59375 0q1.21875 0 1.921875 0.71875q0.71875 0.703125 0.71875 1.9375l0 4.203125q0 1.234375 -0.71875 1.953125q-0.703125 0.703125 -1.921875 0.703125zm-1.515625 -0.84375l1.453125 0q0.859375 0 1.3125 -0.46875q0.453125 -0.484375 0.453125 -1.359375l0 -4.171875q0 -0.875 -0.453125 -1.34375q-0.453125 -0.484375 -1.3125 -0.484375l-1.453125 0q-0.859375 0 -1.3125 0.484375q-0.453125 0.46875 -0.453125 1.34375l0 4.171875q0 0.875 0.453125 1.359375q0.453125 0.46875 1.3125 0.46875zm10.3785095 0.84375l-1.25 0q-1.1875 0 -1.875 -0.703125q-0.6875 -0.71875 -0.6875 -1.953125l0 -4.203125q0 -1.234375 0.6875 -1.9375q0.6875 -0.71875 1.875 -0.71875l1.25 0q1.4375 0 1.96875 0.96875l0.078125 0l0 -4.34375q0 -0.21875 0.171875 -0.21875l0.546875 0q0.203125 0 0.203125 0.21875l0 12.671875q0 0.21875 -0.203125 0.21875l-0.546875 0q-0.171875 0 -0.171875 -0.21875l0 -0.75l-0.078125 0q-0.53125 0.96875 -1.96875 0.96875zm2.046875 -2.671875l0 -4.171875q0 -0.875 -0.515625 -1.34375q-0.515625 -0.484375 -1.40625 -0.484375l-1.25 0q-0.859375 0 -1.3125 0.484375q-0.453125 0.484375 -0.453125 1.359375l0 4.140625q0 0.875 0.453125 1.359375q0.453125 0.484375 1.3125 0.484375l1.25 0q0.890625 0 1.40625 -0.46875q0.515625 -0.484375 0.515625 -1.359375zm10.0433655 2.671875l-3.890625 0q-1.21875 0 -1.921875 -0.703125q-0.6875 -0.71875 -0.6875 -1.953125l0 -4.203125q0 -1.234375 0.6875 -1.9375q0.703125 -0.71875 1.921875 -0.71875l1.59375 0q1.21875 0 1.921875 0.71875q0.71875 0.703125 0.71875 1.9375l0 2.359375q0 0.234375 -0.234375 0.234375l-5.515625 0q-0.171875 0 -0.171875 0.15625l0 1.4375q0 0.875 0.453125 1.359375q0.453125 0.46875 1.3125 0.46875l3.8125 0q0.203125 0 0.203125 0.203125l0 0.4375q0 0.203125 -0.203125 0.203125zm-5.40625 -5.015625l4.640625 0q0.171875 0 0.171875 -0.171875l0 -1.65625q0 -0.875 -0.453125 -1.34375q-0.4375 -0.484375 -1.296875 -0.484375l-1.46875 0q-0.859375 0 -1.3125 0.484375q-0.453125 0.46875 -0.453125 1.34375l0 1.65625q0 0.171875 0.171875 0.171875z" fill-rule="nonzero"/><path fill="#000000" fill-opacity="0.0" d="m334.86728 392.82764l-61.385803 54.992126" fill-rule="evenodd"/><path stroke="#595959" stroke-width="1.0" stroke-linejoin="round" stroke-linecap="butt" d="m334.86728 392.82764l-56.91681 50.988586" fill-rule="evenodd"/><path fill="#595959" stroke="#595959" stroke-width="1.0" stroke-linecap="butt" d="m276.84833 442.58597l-2.2779846 4.2583313l4.482239 -1.7977905z" fill-rule="evenodd"/><path fill="#000000" fill-opacity="0.0" d="m334.86728 392.82764l60.75592 54.992126" fill-rule="evenodd"/><path stroke="#595959" stroke-width="1.0" stroke-linejoin="round" stroke-linecap="butt" d="m334.86728 392.82764l56.307495 50.96576" fill-rule="evenodd"/><path fill="#595959" stroke="#595959" stroke-width="1.0" stroke-linecap="butt" d="m390.06638 445.01797l4.4729614 1.8207397l-2.2561035 -4.269928z" fill-rule="evenodd"/><path fill="#000000" fill-opacity="0.0" d="m139.50656 0.6351706l0 536.81885" fill-rule="evenodd"/><path stroke="#595959" stroke-width="1.0" stroke-linejoin="round" stroke-linecap="butt" d="m139.50656 0.6351706l0 536.81885" fill-rule="evenodd"/><path fill="#000000" fill-opacity="0.0" d="m1.2729659 62.968502l954.07874 0" fill-rule="evenodd"/><path stroke="#595959" stroke-width="1.0" stroke-linejoin="round" stroke-linecap="butt" d="m1.2729659 62.968502l954.07874 0" fill-rule="evenodd"/><path fill="#000000" fill-opacity="0.0" d="m0 137.48032l135.27559 0l0 80.7874l-135.27559 0z" fill-rule="evenodd"/><path fill="#000000" d="m39.26284 170.80031l-8.046875 0q-0.25 0 -0.25 -0.296875l0 -15.6875q0 -0.296875 0.25 -0.296875l0.734375 0q0.28125 0 0.28125 0.296875l0 14.5625q0 0.234375 0.25 0.234375l6.78125 0q0.3125 0 0.3125 0.28125l0 0.625q0 0.28125 -0.3125 0.28125zm11.454254 0l-5.296875 0q-1.640625 0 -2.59375 -0.953125q-0.953125 -0.96875 -0.953125 -2.640625l0 -5.734375q0 -1.671875 0.953125 -2.625q0.953125 -0.96875 2.59375 -0.96875l2.1875 0q1.640625 0 2.59375 0.96875q0.96875 0.953125 0.96875 2.625l0 3.21875q0 0.3125 -0.296875 0.3125l-7.5 0q-0.234375 0 -0.234375 0.21875l0 1.953125q0 1.1875 0.609375 1.84375q0.609375 0.640625 1.78125 0.640625l5.1875 0q0.28125 0 0.28125 0.28125l0 0.578125q0 0.28125 -0.28125 0.28125zm-7.34375 -6.8125l6.3125 0q0.21875 0 0.21875 -0.234375l0 -2.25q0 -1.1875 -0.609375 -1.828125q-0.609375 -0.65625 -1.765625 -0.65625l-2.0 0q-1.171875 0 -1.78125 0.65625q-0.609375 0.640625 -0.609375 1.828125l0 2.25q0 0.234375 0.234375 0.234375zm16.133331 6.8125l-1.625 0q-1.640625 0 -2.59375 -0.953125q-0.953125 -0.96875 -0.953125 -2.640625l0 -5.734375q0 -1.671875 0.953125 -2.625q0.953125 -0.96875 2.59375 -0.96875l5.375 0q0.25 0 0.25 0.3125l0 12.3125q0 0.296875 -0.25 0.296875l-0.734375 0q-0.28125 0 -0.28125 -0.296875l0 -1.015625l-0.09375 0q-0.671875 1.3125 -2.640625 1.3125zm2.734375 -3.625l0 -7.921875q0 -0.234375 -0.25 -0.234375l-4.0 0q-1.171875 0 -1.78125 0.671875q-0.609375 0.65625 -0.609375 1.84375l0 5.625q0 1.1875 0.609375 1.84375q0.609375 0.65625 1.78125 0.65625l1.640625 0q1.21875 0 1.90625 -0.640625q0.703125 -0.65625 0.703125 -1.84375zm10.011612 3.625l-1.703125 0q-1.625 0 -2.5625 -0.953125q-0.9375 -0.96875 -0.9375 -2.640625l0 -5.734375q0 -1.671875 0.9375 -2.625q0.9375 -0.96875 2.5625 -0.96875l1.703125 0q1.9375 0 2.65625 1.328125l0.09375 0l0 -5.90625q0 -0.3125 0.265625 -0.3125l0.734375 0q0.265625 0 0.265625 0.3125l0 17.203125q0 0.296875 -0.265625 0.296875l-0.734375 0q-0.265625 0 -0.265625 -0.296875l0 -1.015625l-0.09375 0q-0.71875 1.3125 -2.65625 1.3125zm2.75 -3.625l0 -5.671875q0 -1.1875 -0.703125 -1.828125q-0.6875 -0.65625 -1.90625 -0.65625l-1.6875 0q-1.171875 0 -1.78125 0.671875q-0.609375 0.65625 -0.609375 1.84375l0 5.625q0 1.1875 0.609375 1.84375q0.609375 0.65625 1.78125 0.65625l1.6875 0q1.21875 0 1.90625 -0.640625q0.703125 -0.65625 0.703125 -1.84375zm13.656021 3.625l-5.296875 0q-1.640625 0 -2.59375 -0.953125q-0.953125 -0.96875 -0.953125 -2.640625l0 -5.734375q0 -1.671875 0.953125 -2.625q0.953125 -0.96875 2.59375 -0.96875l2.1875 0q1.640625 0 2.59375 0.96875q0.96875 0.953125 0.96875 2.625l0 3.21875q0 0.3125 -0.296875 0.3125l-7.5 0q-0.234375 0 -0.234375 0.21875l0 1.953125q0 1.1875 0.609375 1.84375q0.609375 0.640625 1.78125 0.640625l5.1875 0q0.28125 0 0.28125 0.28125l0 0.578125q0 0.28125 -0.28125 0.28125zm-7.34375 -6.8125l6.3125 0q0.21875 0 0.21875 -0.234375l0 -2.25q0 -1.1875 -0.609375 -1.828125q-0.609375 -0.65625 -1.765625 -0.65625l-2.0 0q-1.171875 0 -1.78125 0.65625q-0.609375 0.640625 -0.609375 1.828125l0 2.25q0 0.234375 0.234375 0.234375zm12.211456 6.8125l-0.734375 0q-0.25 0 -0.25 -0.296875l0 -12.3125q0 -0.3125 0.25 -0.3125l0.734375 0q0.28125 0 0.28125 0.3125l0 1.0625l0.09375 0q0.28125 -0.53125 0.984375 -0.953125q0.71875 -0.421875 1.75 -0.421875l0.984375 0q0.28125 0 0.28125 0.28125l0 0.609375q0 0.28125 -0.28125 0.25l-1.1875 0q-1.234375 0 -1.9375 0.765625q-0.6875 0.75 -0.6875 2.046875l0 8.671875q0 0.296875 -0.28125 0.296875zm11.615219 -7.546875l-5.265625 0q-0.296875 0 -0.296875 -0.28125l0 -0.5625q0 -0.265625 0.296875 -0.265625l5.265625 0q0.3125 0 0.3125 0.265625l0 0.5625q0 0.28125 -0.3125 0.28125z" fill-rule="nonzero"/><path fill="#000000" d="m40.247955 200.0597l4.03125 0q1.15625 0 1.78125 -0.640625q0.625 -0.65625 0.625 -1.859375l0 -5.859375q0 -1.1875 -0.625 -1.828125q-0.625 -0.65625 -1.78125 -0.65625l-1.671875 0q-1.21875 0 -1.921875 0.65625q-0.6875 0.640625 -0.6875 1.828125l0 8.125q0 0.234375 0.25 0.234375zm-1.515625 0.84375l0 -17.203125q0 -0.3125 0.25 -0.3125l0.734375 0q0.28125 0 0.28125 0.3125l0 5.703125l0.09375 0q0.703125 -1.328125 2.640625 -1.328125l1.671875 0q1.640625 0 2.59375 0.96875q0.953125 0.96875 0.953125 2.609375l0 5.953125q0 1.671875 -0.953125 2.640625q-0.953125 0.953125 -2.59375 0.953125l-5.421875 0q-0.25 0 -0.25 -0.296875zm17.671646 0.296875l-1.625 0q-1.640625 0 -2.59375 -0.953125q-0.953125 -0.96875 -0.953125 -2.640625l0 -5.734375q0 -1.671875 0.953125 -2.625q0.953125 -0.96875 2.59375 -0.96875l5.375 0q0.25 0 0.25 0.3125l0 12.3125q0 0.296875 -0.25 0.296875l-0.734375 0q-0.28125 0 -0.28125 -0.296875l0 -1.015625l-0.09375 0q-0.671875 1.3125 -2.640625 1.3125zm2.734375 -3.625l0 -7.921875q0 -0.234375 -0.25 -0.234375l-4.0 0q-1.171875 0 -1.78125 0.671875q-0.609375 0.65625 -0.609375 1.84375l0 5.625q0 1.1875 0.609375 1.84375q0.609375 0.65625 1.78125 0.65625l1.640625 0q1.21875 0 1.90625 -0.640625q0.703125 -0.65625 0.703125 -1.84375zm9.245987 3.625l-4.40625 0q-0.28125 0 -0.28125 -0.28125l0 -0.578125q0 -0.25 0.28125 -0.25l4.28125 0q2.28125 0 2.28125 -1.78125l0 -0.609375q0 -1.640625 -1.421875 -2.140625l-3.171875 -1.21875q-1.28125 -0.515625 -1.828125 -1.1875q-0.546875 -0.6875 -0.546875 -1.90625q0 -2.96875 3.265625 -2.96875l4.109375 0q0.28125 0 0.28125 0.28125l0 0.578125q0 0.265625 -0.28125 0.265625l-3.984375 0q-1.03125 0 -1.5625 0.453125q-0.515625 0.453125 -0.515625 1.0625l0 0.578125q0 0.71875 0.390625 1.125q0.40625 0.390625 1.203125 0.671875l3.171875 1.265625q1.3125 0.4375 1.75 1.28125q0.453125 0.84375 0.453125 2.375q0 1.515625 -0.84375 2.25q-0.84375 0.734375 -2.625 0.734375zm15.322693 0l-5.296875 0q-1.640625 0 -2.59375 -0.953125q-0.953125 -0.96875 -0.953125 -2.640625l0 -5.734375q0 -1.671875 0.953125 -2.625q0.953125 -0.96875 2.59375 -0.96875l2.1875 0q1.640625 0 2.59375 0.96875q0.96875 0.953125 0.96875 2.625l0 3.21875q0 0.3125 -0.296875 0.3125l-7.5 0q-0.234375 0 -0.234375 0.21875l0 1.953125q0 1.1875 0.609375 1.84375q0.609375 0.640625 1.78125 0.640625l5.1875 0q0.28125 0 0.28125 0.28125l0 0.578125q0 0.28125 -0.28125 0.28125zm-7.34375 -6.8125l6.3125 0q0.21875 0 0.21875 -0.234375l0 -2.25q0 -1.1875 -0.609375 -1.828125q-0.609375 -0.65625 -1.765625 -0.65625l-2.0 0q-1.171875 0 -1.78125 0.65625q-0.609375 0.640625 -0.609375 1.828125l0 2.25q0 0.234375 0.234375 0.234375zm16.164581 6.8125l-1.703125 0q-1.625 0 -2.5625 -0.953125q-0.9375 -0.96875 -0.9375 -2.640625l0 -5.734375q0 -1.671875 0.9375 -2.625q0.9375 -0.96875 2.5625 -0.96875l1.703125 0q1.9375 0 2.65625 1.328125l0.09375 0l0 -5.90625q0 -0.3125 0.265625 -0.3125l0.734375 0q0.265625 0 0.265625 0.3125l0 17.203125q0 0.296875 -0.265625 0.296875l-0.734375 0q-0.265625 0 -0.265625 -0.296875l0 -1.015625l-0.09375 0q-0.71875 1.3125 -2.65625 1.3125zm2.75 -3.625l0 -5.671875q0 -1.1875 -0.703125 -1.828125q-0.6875 -0.65625 -1.90625 -0.65625l-1.6875 0q-1.171875 0 -1.78125 0.671875q-0.609375 0.65625 -0.609375 1.84375l0 5.625q0 1.1875 0.609375 1.84375q0.609375 0.65625 1.78125 0.65625l1.6875 0q1.21875 0 1.90625 -0.640625q0.703125 -0.65625 0.703125 -1.84375z" fill-rule="nonzero"/><path fill="#000000" fill-opacity="0.0" d="m4.2309713 368.82678l135.27559 0l0 80.787384l-135.27559 0z" fill-rule="evenodd"/><path fill="#000000" d="m25.948103 401.00613l4.859375 0q1.171875 0 1.7812519 -0.640625q0.625 -0.65625 0.625 -1.859375l0 -9.0q0 -1.21875 -0.625 -1.859375q-0.6093769 -0.640625 -1.7812519 -0.640625l-4.859375 0q-0.25 0 -0.25 0.21875l0 13.546875q0 0.234375 0.25 0.234375zm-1.515625 0.84375l0 -15.6875q0 -0.296875 0.25 -0.296875l6.25 0q1.6562519 0 2.593752 0.96875q0.953125 0.953125 0.953125 2.625l0 9.09375q0 1.671875 -0.953125 2.640625q-0.9375 0.953125 -2.593752 0.953125l-6.25 0q-0.25 0 -0.25 -0.296875zm22.435915 0.296875l-5.296875 0q-1.640625 0 -2.59375 -0.953125q-0.953125 -0.96875 -0.953125 -2.640625l0 -5.734375q0 -1.671875 0.953125 -2.625q0.953125 -0.96875 2.59375 -0.96875l2.1875 0q1.640625 0 2.59375 0.96875q0.96875 0.953125 0.96875 2.625l0 3.21875q0 0.3125 -0.296875 0.3125l-7.5 0q-0.234375 0 -0.234375 0.21875l0 1.953125q0 1.1875 0.609375 1.84375q0.609375 0.640625 1.78125 0.640625l5.1875 0q0.28125 0 0.28125 0.28125l0 0.578125q0 0.28125 -0.28125 0.28125zm-7.34375 -6.8125l6.3125 0q0.21875 0 0.21875 -0.234375l0 -2.25q0 -1.1875 -0.609375 -1.828125q-0.609375 -0.65625 -1.765625 -0.65625l-2.0 0q-1.171875 0 -1.78125 0.65625q-0.609375 0.640625 -0.609375 1.828125l0 2.25q0 0.234375 0.234375 0.234375zm18.445831 5.953125l0 0.578125q0 0.28125 -0.28125 0.28125l-3.65625 0q-1.640625 0 -2.59375 -0.953125q-0.953125 -0.96875 -0.953125 -2.640625l0 -5.734375q0 -1.671875 0.953125 -2.625q0.953125 -0.96875 2.59375 -0.96875l3.65625 0q0.28125 0 0.28125 0.28125l0 0.609375q0 0.25 -0.28125 0.25l-3.546875 0q-1.171875 0 -1.78125 0.671875q-0.609375 0.65625 -0.609375 1.84375l0 5.625q0 1.1875 0.609375 1.84375q0.609375 0.65625 1.78125 0.65625l3.546875 0q0.28125 0 0.28125 0.28125zm11.338669 0.859375l-5.296875 0q-1.640625 0 -2.59375 -0.953125q-0.953125 -0.96875 -0.953125 -2.640625l0 -5.734375q0 -1.671875 0.953125 -2.625q0.953125 -0.96875 2.59375 -0.96875l2.1875 0q1.640625 0 2.59375 0.96875q0.96875 0.953125 0.96875 2.625l0 3.21875q0 0.3125 -0.296875 0.3125l-7.5 0q-0.234375 0 -0.234375 0.21875l0 1.953125q0 1.1875 0.609375 1.84375q0.609375 0.640625 1.78125 0.640625l5.1875 0q0.28125 0 0.28125 0.28125l0 0.578125q0 0.28125 -0.28125 0.28125zm-7.34375 -6.8125l6.3125 0q0.21875 0 0.21875 -0.234375l0 -2.25q0 -1.1875 -0.609375 -1.828125q-0.609375 -0.65625 -1.765625 -0.65625l-2.0 0q-1.171875 0 -1.78125 0.65625q-0.609375 0.640625 -0.609375 1.828125l0 2.25q0 0.234375 0.234375 0.234375zm12.211456 6.8125l-0.734375 0q-0.25 0 -0.25 -0.296875l0 -12.3125q0 -0.3125 0.25 -0.3125l0.734375 0q0.28125 0 0.28125 0.3125l0 1.015625l0.09375 0q0.703125 -1.328125 2.640625 -1.328125l1.671875 0q1.609375 0 2.546875 0.96875q0.9375 0.953125 0.9375 2.625l0 9.03125q0 0.296875 -0.25 0.296875l-0.734375 0q-0.28125 0 -0.28125 -0.296875l0 -8.96875q0 -1.1875 -0.609375 -1.84375q-0.59375 -0.671875 -1.765625 -0.671875l-1.640625 0q-1.21875 0 -1.921875 0.65625q-0.6875 0.640625 -0.6875 1.828125l0 9.0q0 0.296875 -0.28125 0.296875zm12.40387 -11.78125l-1.546875 0q-0.265625 0 -0.265625 -0.25l0 -0.609375q0 -0.28125 0.265625 -0.28125l1.546875 0q0.234375 0 0.234375 -0.21875l0 -2.0625q0 -0.296875 0.28125 -0.296875l0.734375 0q0.265625 0 0.265625 0.296875l0 2.0625q0 0.21875 0.234375 0.21875l3.015625 0q0.28125 0 0.28125 0.28125l0 0.609375q0 0.25 -0.28125 0.25l-3.015625 0q-0.234375 0 -0.234375 0.234375l0 7.96875q0 1.171875 0.65625 1.8125q0.671875 0.625 1.859375 0.625l0.984375 0q0.28125 0 0.28125 0.28125l0 0.578125q0 0.28125 -0.28125 0.28125l-1.09375 0q-1.65625 0 -2.671875 -0.9375q-1.015625 -0.9375 -1.015625 -2.578125l0 -8.03125q0 -0.234375 -0.234375 -0.234375zm9.226364 11.78125l-0.734375 0q-0.25 0 -0.25 -0.296875l0 -12.3125q0 -0.3125 0.25 -0.3125l0.734375 0q0.28125 0 0.28125 0.3125l0 1.0625l0.09375 0q0.28125 -0.53125 0.984375 -0.953125q0.71875 -0.421875 1.75 -0.421875l0.984375 0q0.28125 0 0.28125 0.28125l0 0.609375q0 0.28125 -0.28125 0.25l-1.1875 0q-1.234375 0 -1.9375 0.765625q-0.6875 0.75 -0.6875 2.046875l0 8.671875q0 0.296875 -0.28125 0.296875zm11.849594 0l-1.625 0q-1.640625 0 -2.59375 -0.953125q-0.953125 -0.96875 -0.953125 -2.640625l0 -5.734375q0 -1.671875 0.953125 -2.625q0.953125 -0.96875 2.59375 -0.96875l5.375 0q0.25 0 0.25 0.3125l0 12.3125q0 0.296875 -0.25 0.296875l-0.734375 0q-0.28125 0 -0.28125 -0.296875l0 -1.015625l-0.09375 0q-0.671875 1.3125 -2.640625 1.3125zm2.734375 -3.625l0 -7.921875q0 -0.234375 -0.25 -0.234375l-4.0 0q-1.171875 0 -1.78125 0.671875q-0.609375 0.65625 -0.609375 1.84375l0 5.625q0 1.1875 0.609375 1.84375q0.609375 0.65625 1.78125 0.65625l1.640625 0q1.21875 0 1.90625 -0.640625q0.703125 -0.65625 0.703125 -1.84375zm9.745987 -3.921875l-5.265625 0q-0.296875 0 -0.296875 -0.28125l0 -0.5625q0 -0.265625 0.296875 -0.265625l5.265625 0q0.3125 0 0.3125 0.265625l0 0.5625q0 0.28125 -0.3125 0.28125z" fill-rule="nonzero"/><path fill="#000000" d="m51.823105 432.54678l-0.734375 0q-0.25 0 -0.25 -0.296875l0 -17.203125q0 -0.3125 0.25 -0.3125l0.734375 0q0.28125 0 0.28125 0.3125l0 17.203125q0 0.296875 -0.28125 0.296875zm4.3345337 -15.046875l0 -2.421875q0 -0.28125 0.25 -0.28125l0.765625 0q0.25 0 0.25 0.28125l0 2.421875q0 0.3125 -0.25 0.3125l-0.765625 0q-0.25 0 -0.25 -0.3125zm0 14.75l0 -12.3125q0 -0.3125 0.25 -0.3125l0.734375 0q0.28125 0 0.28125 0.3125l0 12.3125q0 0.296875 -0.25 0.296875l-0.765625 0q-0.25 0 -0.25 -0.296875zm4.1470337 0.015625l0 -0.359375q0 -0.265625 0.15625 -0.46875l6.640625 -10.5625l0 -0.109375l-6.34375 0q-0.28125 0 -0.28125 -0.28125l0 -0.578125q0 -0.28125 0.28125 -0.28125l7.609375 0q0.296875 0 0.296875 0.28125l0 0.5625q0 0.21875 -0.125 0.421875l-6.53125 10.421875l0 0.09375l6.53125 0q0.296875 0 0.296875 0.28125l0 0.578125q0 0.28125 -0.296875 0.28125l-7.921875 0q-0.3125 0 -0.3125 -0.28125zm19.882904 0.28125l-5.296875 0q-1.640625 0 -2.59375 -0.953125q-0.953125 -0.96875 -0.953125 -2.640625l0 -5.734375q0 -1.671875 0.953125 -2.625q0.953125 -0.96875 2.59375 -0.96875l2.1875 0q1.640625 0 2.59375 0.96875q0.96875 0.953125 0.96875 2.625l0 3.21875q0 0.3125 -0.296875 0.3125l-7.5 0q-0.234375 0 -0.234375 0.21875l0 1.953125q0 1.1875 0.609375 1.84375q0.609375 0.640625 1.78125 0.640625l5.1875 0q0.28125 0 0.28125 0.28125l0 0.578125q0 0.28125 -0.28125 0.28125zm-7.34375 -6.8125l6.3125 0q0.21875 0 0.21875 -0.234375l0 -2.25q0 -1.1875 -0.609375 -1.828125q-0.609375 -0.65625 -1.765625 -0.65625l-2.0 0q-1.171875 0 -1.78125 0.65625q-0.609375 0.640625 -0.609375 1.828125l0 2.25q0 0.234375 0.234375 0.234375zm16.164581 6.8125l-1.703125 0q-1.625 0 -2.5625 -0.953125q-0.9375 -0.96875 -0.9375 -2.640625l0 -5.734375q0 -1.671875 0.9375 -2.625q0.9375 -0.96875 2.5625 -0.96875l1.703125 0q1.9375 0 2.65625 1.328125l0.09375 0l0 -5.90625q0 -0.3125 0.265625 -0.3125l0.734375 0q0.265625 0 0.265625 0.3125l0 17.203125q0 0.296875 -0.265625 0.296875l-0.734375 0q-0.265625 0 -0.265625 -0.296875l0 -1.015625l-0.09375 0q-0.71875 1.3125 -2.65625 1.3125zm2.75 -3.625l0 -5.671875q0 -1.1875 -0.703125 -1.828125q-0.6875 -0.65625 -1.90625 -0.65625l-1.6875 0q-1.171875 0 -1.78125 0.671875q-0.609375 0.65625 -0.609375 1.84375l0 5.625q0 1.1875 0.609375 1.84375q0.609375 0.65625 1.78125 0.65625l1.6875 0q1.21875 0 1.90625 -0.640625q0.703125 -0.65625 0.703125 -1.84375z" fill-rule="nonzero"/><path fill="#000000" fill-opacity="0.0" d="m296.1411 461.89062l80.0 0" fill-rule="evenodd"/><path stroke="#595959" stroke-width="1.0" stroke-linejoin="round" stroke-linecap="butt" d="m296.1411 461.89062l74.0 0" fill-rule="evenodd"/><path fill="#595959" stroke="#595959" stroke-width="1.0" stroke-linecap="butt" d="m370.1411 463.54236l4.5381165 -1.6517334l-4.5381165 -1.6517334z" fill-rule="evenodd"/><path fill="#000000" fill-opacity="0.0" d="m376.14053 478.7384l-75.212585 0" fill-rule="evenodd"/><path stroke="#595959" stroke-width="1.0" stroke-linejoin="round" stroke-linecap="butt" d="m376.14053 478.7384l-69.212585 0" fill-rule="evenodd"/><path fill="#595959" stroke="#595959" stroke-width="1.0" stroke-linecap="butt" d="m306.92795 477.08667l-4.538086 1.6517334l4.538086 1.6517334z" fill-rule="evenodd"/><path fill="#000000" fill-opacity="0.0" d="m249.02301 447.84338l63.496063 -55.149597" fill-rule="evenodd"/><path stroke="#595959" stroke-width="1.0" stroke-linejoin="round" stroke-linecap="butt" d="m249.02301 447.84338l58.966156 -51.21515" fill-rule="evenodd"/><path fill="#595959" stroke="#595959" stroke-width="1.0" stroke-linecap="butt" d="m309.07227 397.87527l2.3430786 -4.22287l-4.5092773 1.7287903z" fill-rule="evenodd"/><path fill="#000000" fill-opacity="0.0" d="m423.25836 447.84338l-59.874023 -55.149597" fill-rule="evenodd"/><path stroke="#595959" stroke-width="1.0" stroke-linejoin="round" stroke-linecap="butt" d="m423.25836 447.84338l-55.460815 -51.084656" fill-rule="evenodd"/><path fill="#595959" stroke="#595959" stroke-width="1.0" stroke-linecap="butt" d="m368.91656 395.54382l-4.4569397 -1.8596191l2.218872 4.2894287z" fill-rule="evenodd"/><path fill="#000000" fill-opacity="0.0" d="m211.6483 4.0419946l207.65355 0l0 50.07874l-207.65355 0z" fill-rule="evenodd"/><path fill="#000000" d="m265.24094 37.361996l-0.734375 0q-0.28125 0 -0.28125 -0.296875l0 -14.625002q0 -0.21875 -0.25 -0.21875l-3.671875 0q-0.3125 0 -0.3125 -0.28125l0 -0.578125q0 -0.28125 0.3125 -0.28125l9.109375 0q0.3125 0 0.3125 0.28125l0 0.578125q0 0.28125 -0.3125 0.28125l-3.671875 0q-0.25 0 -0.25 0.21875l0 14.625002q0 0.296875 -0.25 0.296875zm12.309723 0l-2.1875 0q-1.640625 0 -2.59375 -0.953125q-0.953125 -0.96875 -0.953125 -2.640625l0 -5.734377q0 -1.671875 0.953125 -2.625q0.953125 -0.96875 2.59375 -0.96875l2.1875 0q1.640625 0 2.59375 0.96875q0.96875 0.953125 0.96875 2.625l0 5.734377q0 1.671875 -0.96875 2.640625q-0.953125 0.953125 -2.59375 0.953125zm-2.078125 -1.140625l1.96875 0q1.171875 0 1.78125 -0.640625q0.625 -0.65625 0.625 -1.84375l0 -5.671877q0 -1.1875 -0.625 -1.828125q-0.609375 -0.65625 -1.78125 -0.65625l-1.96875 0q-1.171875 0 -1.78125 0.65625q-0.609375 0.640625 -0.609375 1.828125l0 5.671877q0 1.1875 0.609375 1.84375q0.609375 0.640625 1.78125 0.640625zm9.719025 -10.640627l-1.546875 0q-0.265625 0 -0.265625 -0.25l0 -0.609375q0 -0.28125 0.265625 -0.28125l1.546875 0q0.234375 0 0.234375 -0.21875l0 -2.0625q0 -0.296875 0.28125 -0.296875l0.734375 0q0.265625 0 0.265625 0.296875l0 2.0625q0 0.21875 0.234375 0.21875l3.015625 0q0.28125 0 0.28125 0.28125l0 0.609375q0 0.25 -0.28125 0.25l-3.015625 0q-0.234375 0 -0.234375 0.234375l0 7.968752q0 1.171875 0.65625 1.8125q0.671875 0.625 1.859375 0.625l0.984375 0q0.28125 0 0.28125 0.28125l0 0.578125q0 0.28125 -0.28125 0.28125l-1.09375 0q-1.65625 0 -2.671875 -0.9375q-1.015625 -0.9375 -1.015625 -2.578125l0 -8.031252q0 -0.234375 -0.234375 -0.234375zm13.148224 11.781252l-1.625 0q-1.640625 0 -2.59375 -0.953125q-0.953125 -0.96875 -0.953125 -2.640625l0 -5.734377q0 -1.671875 0.953125 -2.625q0.953125 -0.96875 2.59375 -0.96875l5.375 0q0.25 0 0.25 0.3125l0 12.312502q0 0.296875 -0.25 0.296875l-0.734375 0q-0.28125 0 -0.28125 -0.296875l0 -1.015625l-0.09375 0q-0.671875 1.3125 -2.640625 1.3125zm2.734375 -3.625l0 -7.921877q0 -0.234375 -0.25 -0.234375l-4.0 0q-1.171875 0 -1.78125 0.671875q-0.609375 0.65625 -0.609375 1.84375l0 5.625002q0 1.1875 0.609375 1.84375q0.609375 0.65625 1.78125 0.65625l1.640625 0q1.21875 0 1.90625 -0.640625q0.703125 -0.65625 0.703125 -1.84375zm6.183502 3.625l-0.734375 0q-0.25 0 -0.25 -0.296875l0 -17.203127q0 -0.3125 0.25 -0.3125l0.734375 0q0.28125 0 0.28125 0.3125l0 17.203127q0 0.296875 -0.28125 0.296875zm14.612762 -1.140625l2.890625 0q1.15625 0 1.78125 -0.640625q0.625 -0.65625 0.625 -1.859375l0 -9.000002q0 -1.21875 -0.625 -1.859375q-0.625 -0.640625 -1.78125 -0.640625l-2.890625 0q-1.171875 0 -1.78125 0.65625q-0.59375 0.65625 -0.59375 1.84375l0 9.000002q0 1.1875 0.59375 1.84375q0.609375 0.65625 1.78125 0.65625zm3.015625 1.140625l-3.109375 0q-1.65625 0 -2.609375 -0.953125q-0.9375 -0.96875 -0.9375 -2.640625l0 -9.093752q0 -1.671875 0.9375 -2.625q0.953125 -0.96875 2.609375 -0.96875l3.109375 0q1.640625 0 2.59375 0.96875q0.953125 0.953125 0.953125 2.625l0 9.093752q0 1.671875 -0.953125 2.640625q-0.953125 0.953125 -2.59375 0.953125zm8.334595 0l-0.734375 0q-0.25 0 -0.25 -0.296875l0 -12.312502q0 -0.3125 0.25 -0.3125l0.734375 0q0.28125 0 0.28125 0.3125l0 1.0625l0.09375 0q0.28125 -0.53125 0.984375 -0.953125q0.71875 -0.421875 1.75 -0.421875l0.984375 0q0.28125 0 0.28125 0.28125l0 0.609375q0 0.28125 -0.28125 0.25l-1.1875 0q-1.234375 0 -1.9375 0.765625q-0.6875 0.75 -0.6875 2.046875l0 8.671877q0 0.296875 -0.28125 0.296875zm11.880859 0l-1.703125 0q-1.625 0 -2.5625 -0.953125q-0.9375 -0.96875 -0.9375 -2.640625l0 -5.734377q0 -1.671875 0.9375 -2.625q0.9375 -0.96875 2.5625 -0.96875l1.703125 0q1.9375 0 2.65625 1.328125l0.09375 0l0 -5.90625q0 -0.3125 0.265625 -0.3125l0.734375 0q0.265625 0 0.265625 0.3125l0 17.203127q0 0.296875 -0.265625 0.296875l-0.734375 0q-0.265625 0 -0.265625 -0.296875l0 -1.015625l-0.09375 0q-0.71875 1.3125 -2.65625 1.3125zm2.75 -3.625l0 -5.671877q0 -1.1875 -0.703125 -1.828125q-0.6875 -0.65625 -1.90625 -0.65625l-1.6875 0q-1.171875 0 -1.78125 0.671875q-0.609375 0.65625 -0.609375 1.84375l0 5.625002q0 1.1875 0.609375 1.84375q0.609375 0.65625 1.78125 0.65625l1.6875 0q1.21875 0 1.90625 -0.640625q0.703125 -0.65625 0.703125 -1.84375zm13.656006 3.625l-5.296875 0q-1.640625 0 -2.59375 -0.953125q-0.953125 -0.96875 -0.953125 -2.640625l0 -5.734377q0 -1.671875 0.953125 -2.625q0.953125 -0.96875 2.59375 -0.96875l2.1875 0q1.640625 0 2.59375 0.96875q0.96875 0.953125 0.96875 2.625l0 3.21875q0 0.3125 -0.296875 0.3125l-7.5 0q-0.234375 0 -0.234375 0.21875l0 1.9531269q0 1.1875 0.609375 1.84375q0.609375 0.640625 1.78125 0.640625l5.1875 0q0.28125 0 0.28125 0.28125l0 0.578125q0 0.28125 -0.28125 0.28125zm-7.34375 -6.812502l6.3125 0q0.21875 0 0.21875 -0.234375l0 -2.25q0 -1.1875 -0.609375 -1.828125q-0.609375 -0.65625 -1.765625 -0.65625l-2.0 0q-1.171875 0 -1.78125 0.65625q-0.609375 0.640625 -0.609375 1.828125l0 2.25q0 0.234375 0.234375 0.234375zm12.211456 6.812502l-0.734375 0q-0.25 0 -0.25 -0.296875l0 -12.312502q0 -0.3125 0.25 -0.3125l0.734375 0q0.28125 0 0.28125 0.3125l0 1.0625l0.09375 0q0.28125 -0.53125 0.984375 -0.953125q0.71875 -0.421875 1.75 -0.421875l0.984375 0q0.28125 0 0.28125 0.28125l0 0.609375q0 0.28125 -0.28125 0.25l-1.1875 0q-1.234375 0 -1.9375 0.765625q-0.6875 0.75 -0.6875 2.046875l0 8.671877q0 0.296875 -0.28125 0.296875z" fill-rule="nonzero"/><path fill="#000000" fill-opacity="0.0" d="m660.49603 4.0420575l207.65356 0l0 50.07874l-207.65356 0z" fill-rule="evenodd"/><path fill="#000000" d="m698.2543 37.362057l-0.734375 0q-0.25 0 -0.25 -0.296875l0 -15.6875q0 -0.296875 0.25 -0.296875l5.828125 0q1.640625 0 2.59375 0.96875q0.96875 0.953125 0.96875 2.625l0 2.96875q0 1.671875 -0.96875 2.640625q-0.953125 0.953125 -2.59375 0.953125l-4.5625 0q-0.25 0 -0.25 0.203125l0 5.625q0 0.296875 -0.28125 0.296875zm0.53125 -7.296875l4.453125 0q1.171875 0 1.78125 -0.640625q0.609375 -0.65625 0.609375 -1.84375l0 -2.859375q0 -1.21875 -0.609375 -1.859375q-0.609375 -0.640625 -1.78125 -0.640625l-4.453125 0q-0.25 0 -0.25 0.21875l0 7.421875q0 0.203125 0.25 0.203125zm20.084412 7.296875l-5.296875 0q-1.640625 0 -2.59375 -0.953125q-0.953125 -0.96875 -0.953125 -2.640625l0 -5.734375q0 -1.671875 0.953125 -2.625q0.953125 -0.96875 2.59375 -0.96875l2.1875 0q1.640625 0 2.59375 0.96875q0.96875 0.953125 0.96875 2.625l0 3.21875q0 0.3125 -0.296875 0.3125l-7.5 0q-0.234375 0 -0.234375 0.21875l0 1.953125q0 1.1875 0.609375 1.84375q0.609375 0.640625 1.78125 0.640625l5.1875 0q0.28125 0 0.28125 0.28125l0 0.578125q0 0.28125 -0.28125 0.28125zm-7.34375 -6.8125l6.3125 0q0.21875 0 0.21875 -0.234375l0 -2.25q0 -1.1875 -0.609375 -1.828125q-0.609375 -0.65625 -1.765625 -0.65625l-2.0 0q-1.171875 0 -1.78125 0.65625q-0.609375 0.640625 -0.609375 1.828125l0 2.25q0 0.234375 0.234375 0.234375zm12.211487 6.8125l-0.734375 0q-0.25 0 -0.25 -0.296875l0 -12.3125q0 -0.3125 0.25 -0.3125l0.734375 0q0.28125 0 0.28125 0.3125l0 1.0625l0.09375 0q0.28125 -0.53125 0.984375 -0.953125q0.71875 -0.421875 1.75 -0.421875l0.984375 0q0.28125 0 0.28125 0.28125l0 0.609375q0 0.28125 -0.28125 0.25l-1.1875 0q-1.234375 0 -1.9375 0.765625q-0.6875 0.75 -0.6875 2.046875l0 8.671875q0 0.296875 -0.28125 0.296875zm11.615234 -7.546875l-5.265625 0q-0.296875 0 -0.296875 -0.28125l0 -0.5625q0 -0.265625 0.296875 -0.265625l5.265625 0q0.3125 0 0.3125 0.265625l0 0.5625q0 0.28125 -0.3125 0.28125zm10.496094 -5.375l0.78125 0q0.15625 0 0.203125 0.09375q0.046875 0.09375 -0.046875 0.21875l-3.875 5.875l0 0.09375l4.328125 6.34375q0.09375 0.125 0.046875 0.21875q-0.046875 0.078125 -0.203125 0.078125l-0.78125 0q-0.375 0 -0.578125 -0.296875l-4.1875 -6.15625q-0.09375 -0.203125 0 -0.40625l3.796875 -5.8125q0.15625 -0.25 0.515625 -0.25zm-6.28125 12.921875l-0.734375 0q-0.25 0 -0.25 -0.296875l0 -17.203125q0 -0.3125 0.25 -0.3125l0.734375 0q0.28125 0 0.28125 0.3125l0 17.203125q0 0.296875 -0.28125 0.296875zm18.510193 0l-5.296875 0q-1.640625 0 -2.59375 -0.953125q-0.953125 -0.96875 -0.953125 -2.640625l0 -5.734375q0 -1.671875 0.953125 -2.625q0.953125 -0.96875 2.59375 -0.96875l2.1875 0q1.640625 0 2.59375 0.96875q0.96875 0.953125 0.96875 2.625l0 3.21875q0 0.3125 -0.296875 0.3125l-7.5 0q-0.234375 0 -0.234375 0.21875l0 1.953125q0 1.1875 0.609375 1.84375q0.609375 0.640625 1.78125 0.640625l5.1875 0q0.28125 0 0.28125 0.28125l0 0.578125q0 0.28125 -0.28125 0.28125zm-7.34375 -6.8125l6.3125 0q0.21875 0 0.21875 -0.234375l0 -2.25q0 -1.1875 -0.609375 -1.828125q-0.609375 -0.65625 -1.765625 -0.65625l-2.0 0q-1.171875 0 -1.78125 0.65625q-0.609375 0.640625 -0.609375 1.828125l0 2.25q0 0.234375 0.234375 0.234375zm11.820862 10.65625l-0.921875 0q-0.28125 0 -0.28125 -0.265625l0 -0.609375q0 -0.28125 0.28125 -0.28125l0.671875 0q0.765625 0 1.296875 -0.21875q0.53125 -0.21875 0.9375 -0.796875q0.40625 -0.578125 0.53125 -0.90625q0.359375 -0.796875 0.578125 -1.453125l-0.484375 0q-0.265625 0 -0.34375 -0.296875l-4.03125 -11.625q-0.09375 -0.3125 0.203125 -0.3125l0.78125 0q0.25 0 0.328125 0.3125l3.734375 10.859375l0.09375 0l3.71875 -10.859375q0.078125 -0.3125 0.328125 -0.3125l0.765625 0q0.3125 0 0.234375 0.3125q-4.546875 13.265625 -4.734375 13.71875q-0.1875 0.46875 -0.6875 1.25q-0.96875 1.484375 -3.0 1.484375zm21.43512 -4.984375l2.890625 0q1.15625 0 1.78125 -0.640625q0.625 -0.65625 0.625 -1.859375l0 -9.0q0 -1.21875 -0.625 -1.859375q-0.625 -0.640625 -1.78125 -0.640625l-2.890625 0q-1.171875 0 -1.78125 0.65625q-0.59375 0.65625 -0.59375 1.84375l0 9.0q0 1.1875 0.59375 1.84375q0.609375 0.65625 1.78125 0.65625zm3.015625 1.140625l-3.109375 0q-1.65625 0 -2.609375 -0.953125q-0.9375 -0.96875 -0.9375 -2.640625l0 -9.09375q0 -1.671875 0.9375 -2.625q0.953125 -0.96875 2.609375 -0.96875l3.109375 0q1.640625 0 2.59375 0.96875q0.953125 0.953125 0.953125 2.625l0 9.09375q0 1.671875 -0.953125 2.640625q-0.953125 0.953125 -2.59375 0.953125zm8.334595 0l-0.734375 0q-0.25 0 -0.25 -0.296875l0 -12.3125q0 -0.3125 0.25 -0.3125l0.734375 0q0.28125 0 0.28125 0.3125l0 1.0625l0.09375 0q0.28125 -0.53125 0.984375 -0.953125q0.71875 -0.421875 1.75 -0.421875l0.984375 0q0.28125 0 0.28125 0.28125l0 0.609375q0 0.28125 -0.28125 0.25l-1.1875 0q-1.234375 0 -1.9375 0.765625q-0.6875 0.75 -0.6875 2.046875l0 8.671875q0 0.296875 -0.28125 0.296875zm11.880798 0l-1.703125 0q-1.625 0 -2.5625 -0.953125q-0.9375 -0.96875 -0.9375 -2.640625l0 -5.734375q0 -1.671875 0.9375 -2.625q0.9375 -0.96875 2.5625 -0.96875l1.703125 0q1.9375 0 2.65625 1.328125l0.09375 0l0 -5.90625q0 -0.3125 0.265625 -0.3125l0.734375 0q0.265625 0 0.265625 0.3125l0 17.203125q0 0.296875 -0.265625 0.296875l-0.734375 0q-0.265625 0 -0.265625 -0.296875l0 -1.015625l-0.09375 0q-0.71875 1.3125 -2.65625 1.3125zm2.75 -3.625l0 -5.671875q0 -1.1875 -0.703125 -1.828125q-0.6875 -0.65625 -1.90625 -0.65625l-1.6875 0q-1.171875 0 -1.78125 0.671875q-0.609375 0.65625 -0.609375 1.84375l0 5.625q0 1.1875 0.609375 1.84375q0.609375 0.65625 1.78125 0.65625l1.6875 0q1.21875 0 1.90625 -0.640625q0.703125 -0.65625 0.703125 -1.84375zm13.656067 3.625l-5.296875 0q-1.640625 0 -2.59375 -0.953125q-0.953125 -0.96875 -0.953125 -2.640625l0 -5.734375q0 -1.671875 0.953125 -2.625q0.953125 -0.96875 2.59375 -0.96875l2.1875 0q1.640625 0 2.59375 0.96875q0.96875 0.953125 0.96875 2.625l0 3.21875q0 0.3125 -0.296875 0.3125l-7.5 0q-0.234375 0 -0.234375 0.21875l0 1.953125q0 1.1875 0.609375 1.84375q0.609375 0.640625 1.78125 0.640625l5.1875 0q0.28125 0 0.28125 0.28125l0 0.578125q0 0.28125 -0.28125 0.28125zm-7.34375 -6.8125l6.3125 0q0.21875 0 0.21875 -0.234375l0 -2.25q0 -1.1875 -0.609375 -1.828125q-0.609375 -0.65625 -1.765625 -0.65625l-2.0 0q-1.171875 0 -1.78125 0.65625q-0.609375 0.640625 -0.609375 1.828125l0 2.25q0 0.234375 0.234375 0.234375zm12.211426 6.8125l-0.734375 0q-0.25 0 -0.25 -0.296875l0 -12.3125q0 -0.3125 0.25 -0.3125l0.734375 0q0.28125 0 0.28125 0.3125l0 1.0625l0.09375 0q0.28125 -0.53125 0.984375 -0.953125q0.71875 -0.421875 1.75 -0.421875l0.984375 0q0.28125 0 0.28125 0.28125l0 0.609375q0 0.28125 -0.28125 0.25l-1.1875 0q-1.234375 0 -1.9375 0.765625q-0.6875 0.75 -0.6875 2.046875l0 8.671875q0 0.296875 -0.28125 0.296875z" fill-rule="nonzero"/><path fill="#ffffff" d="m262.04578 316.0866l150.06299 0c3.6621094E-4 0 7.019043E-4 1.5258789E-4 9.460449E-4 3.9672852E-4c2.746582E-4 2.746582E-4 3.9672852E-4 6.1035156E-4 3.9672852E-4 9.765625E-4l-0.0013427734 13.022247l0 0c0 7.192749 -5.8308716 13.023621 -13.023621 13.023621l-150.063 0l0 0c-7.4768066E-4 0 -0.0013580322 -6.1035156E-4 -0.0013580322 -0.0013427734l0.0013580322 -13.022278l0 0c0 -7.192749 5.830887 -13.023621 13.023636 -13.023621z" fill-rule="evenodd"/><path stroke="#595959" stroke-width="1.0" stroke-linejoin="round" stroke-linecap="butt" d="m262.04578 316.0866l150.06299 0c3.6621094E-4 0 7.019043E-4 1.5258789E-4 9.460449E-4 3.9672852E-4c2.746582E-4 2.746582E-4 3.9672852E-4 6.1035156E-4 3.9672852E-4 9.765625E-4l-0.0013427734 13.022247l0 0c0 7.192749 -5.8308716 13.023621 -13.023621 13.023621l-150.063 0l0 0c-7.4768066E-4 0 -0.0013580322 -6.1035156E-4 -0.0013580322 -0.0013427734l0.0013580322 -13.022278l0 0c0 -7.192749 5.830887 -13.023621 13.023636 -13.023621z" fill-rule="evenodd"/><path fill="#000000" fill-opacity="0.0" d="m292.77542 316.0866l47.02362 0l0 26.047241l-47.02362 0z" fill-rule="evenodd"/><path stroke="#595959" stroke-width="1.0" stroke-linejoin="round" stroke-linecap="butt" d="m292.77542 316.0866l47.02362 0l0 26.047241l-47.02362 0z" fill-rule="evenodd"/><path fill="#000000" d="m306.11917 336.03024l-0.921875 0q-0.21875 0 -0.265625 -0.21875l-2.5625 -11.546875q-0.046875 -0.234375 0.1875 -0.234375l0.625 0q0.203125 0 0.234375 0.234375l2.21875 10.703125l0.09375 0l2.84375 -10.734375q0.03125 -0.203125 0.234375 -0.203125l0.71875 0q0.21875 0 0.25 0.203125l2.859375 10.734375l0.09375 0l2.203125 -10.703125q0.03125 -0.234375 0.25 -0.234375l0.640625 0q0.21875 0 0.171875 0.234375l-2.5625 11.546875q-0.03125 0.21875 -0.234375 0.21875l-0.953125 0q-0.203125 0 -0.265625 -0.21875l-2.765625 -10.53125l-0.0625 0l-2.78125 10.53125q-0.0625 0.21875 -0.25 0.21875zm11.75058 0l-0.6875 0q-0.234375 0 -0.09375 -0.21875l2.703125 -4.625l-2.5625 -4.453125q-0.15625 -0.21875 0.09375 -0.21875l0.671875 0q0.203125 0 0.3125 0.21875l2.109375 3.8125l0.078125 0l2.0 -3.8125q0.140625 -0.21875 0.328125 -0.21875l0.671875 0q0.234375 0 0.09375 0.21875l-2.515625 4.40625l2.734375 4.671875q0.125 0.21875 -0.09375 0.21875l-0.75 0q-0.140625 0 -0.25 -0.21875l-2.21875 -4.0l-0.078125 0l-2.21875 4.0q-0.140625 0.21875 -0.328125 0.21875z" fill-rule="nonzero"/><path fill="#000000" fill-opacity="0.0" d="m339.79904 316.0866l47.02362 0l0 26.047241l-47.02362 0z" fill-rule="evenodd"/><path stroke="#595959" stroke-width="1.0" stroke-linejoin="round" stroke-linecap="butt" d="m339.79904 316.0866l47.02362 0l0 26.047241l-47.02362 0z" fill-rule="evenodd"/><path fill="#000000" d="m353.1428 336.03024l-0.921875 0q-0.21875 0 -0.265625 -0.21875l-2.5625 -11.546875q-0.046875 -0.234375 0.1875 -0.234375l0.625 0q0.203125 0 0.234375 0.234375l2.21875 10.703125l0.09375 0l2.84375 -10.734375q0.03125 -0.203125 0.234375 -0.203125l0.71875 0q0.21875 0 0.25 0.203125l2.859375 10.734375l0.09375 0l2.203125 -10.703125q0.03125 -0.234375 0.25 -0.234375l0.640625 0q0.21875 0 0.171875 0.234375l-2.5625 11.546875q-0.03125 0.21875 -0.234375 0.21875l-0.953125 0q-0.203125 0 -0.265625 -0.21875l-2.765625 -10.53125l-0.0625 0l-2.78125 10.53125q-0.0625 0.21875 -0.25 0.21875zm12.31308 2.828125l-0.6875 0q-0.203125 0 -0.203125 -0.203125l0 -0.4375q0 -0.203125 0.203125 -0.203125l0.5 0q0.5625 0 0.953125 -0.171875q0.390625 -0.15625 0.6875 -0.59375q0.296875 -0.421875 0.390625 -0.65625q0.265625 -0.578125 0.4375 -1.0625l-0.359375 0q-0.203125 0 -0.265625 -0.234375l-2.953125 -8.5625q-0.078125 -0.21875 0.140625 -0.21875l0.578125 0q0.1875 0 0.25 0.21875l2.734375 8.015625l0.078125 0l2.75 -8.015625q0.046875 -0.21875 0.234375 -0.21875l0.5625 0q0.21875 0 0.171875 0.21875q-3.34375 9.78125 -3.484375 10.109375q-0.140625 0.34375 -0.515625 0.921875q-0.703125 1.09375 -2.203125 1.09375z" fill-rule="nonzero"/><path fill="#ffffff" d="m174.02477 498.40158l150.063 0c3.6621094E-4 0 7.019043E-4 1.2207031E-4 9.460449E-4 3.9672852E-4c2.746582E-4 2.4414062E-4 3.9672852E-4 6.1035156E-4 3.9672852E-4 9.460449E-4l-0.0013427734 13.022278l0 0c0 7.1927185 -5.8308716 13.02359 -13.023621 13.02359l-150.063 0l0 0c-7.4768066E-4 0 -0.0013580322 -6.1035156E-4 -0.0013580322 -0.0013427734l0.0013580322 -13.022247l0 0c0 -7.192749 5.830887 -13.023621 13.023621 -13.023621z" fill-rule="evenodd"/><path stroke="#595959" stroke-width="1.0" stroke-linejoin="round" stroke-linecap="butt" d="m174.02477 498.40158l150.063 0c3.6621094E-4 0 7.019043E-4 1.2207031E-4 9.460449E-4 3.9672852E-4c2.746582E-4 2.4414062E-4 3.9672852E-4 6.1035156E-4 3.9672852E-4 9.460449E-4l-0.0013427734 13.022278l0 0c0 7.1927185 -5.8308716 13.02359 -13.023621 13.02359l-150.063 0l0 0c-7.4768066E-4 0 -0.0013580322 -6.1035156E-4 -0.0013580322 -0.0013427734l0.0013580322 -13.022247l0 0c0 -7.192749 5.830887 -13.023621 13.023621 -13.023621z" fill-rule="evenodd"/><path fill="#000000" fill-opacity="0.0" d="m204.75443 498.40158l47.02362 0l0 26.04721l-47.02362 0z" fill-rule="evenodd"/><path stroke="#595959" stroke-width="1.0" stroke-linejoin="round" stroke-linecap="butt" d="m204.75443 498.40158l47.02362 0l0 26.04721l-47.02362 0z" fill-rule="evenodd"/><path fill="#000000" d="m218.09818 518.3452l-0.921875 0q-0.21875 0 -0.265625 -0.21875l-2.5625 -11.5469055q-0.046875 -0.234375 0.1875 -0.234375l0.625 0q0.203125 0 0.234375 0.234375l2.21875 10.7031555l0.09375 0l2.84375 -10.7344055q0.03125 -0.203125 0.234375 -0.203125l0.71875 0q0.21875 0 0.25 0.203125l2.859375 10.7344055l0.09375 0l2.203125 -10.7031555q0.03125 -0.234375 0.25 -0.234375l0.640625 0q0.21875 0 0.171875 0.234375l-2.5625 11.5469055q-0.03125 0.21875 -0.234375 0.21875l-0.953125 0q-0.203125 0 -0.265625 -0.21875l-2.765625 -10.5312805l-0.0625 0l-2.78125 10.5312805q-0.0625 0.21875 -0.25 0.21875zm11.750565 0l-0.6875 0q-0.234375 0 -0.09375 -0.21875l2.703125 -4.625l-2.5625 -4.4531555q-0.15625 -0.21875 0.09375 -0.21875l0.671875 0q0.203125 0 0.3125 0.21875l2.109375 3.8125305l0.078125 0l2.0 -3.8125305q0.140625 -0.21875 0.328125 -0.21875l0.671875 0q0.234375 0 0.09375 0.21875l-2.515625 4.4062805l2.734375 4.671875q0.125 0.21875 -0.09375 0.21875l-0.75 0q-0.140625 0 -0.25 -0.21875l-2.21875 -4.0l-0.078125 0l-2.21875 4.0q-0.140625 0.21875 -0.328125 0.21875z" fill-rule="nonzero"/><path fill="#000000" fill-opacity="0.0" d="m251.77805 498.40158l47.02362 0l0 26.04721l-47.02362 0z" fill-rule="evenodd"/><path stroke="#595959" stroke-width="1.0" stroke-linejoin="round" stroke-linecap="butt" d="m251.77805 498.40158l47.02362 0l0 26.04721l-47.02362 0z" fill-rule="evenodd"/><path fill="#000000" d="m265.1218 518.3452l-0.921875 0q-0.21875 0 -0.265625 -0.21875l-2.5625 -11.5469055q-0.046875 -0.234375 0.1875 -0.234375l0.625 0q0.203125 0 0.234375 0.234375l2.21875 10.7031555l0.09375 0l2.84375 -10.7344055q0.03125 -0.203125 0.234375 -0.203125l0.71875 0q0.21875 0 0.25 0.203125l2.859375 10.7344055l0.09375 0l2.203125 -10.7031555q0.03125 -0.234375 0.25 -0.234375l0.640625 0q0.21875 0 0.171875 0.234375l-2.5625 11.5469055q-0.03125 0.21875 -0.234375 0.21875l-0.953125 0q-0.203125 0 -0.265625 -0.21875l-2.765625 -10.5312805l-0.0625 0l-2.78125 10.5312805q-0.0625 0.21875 -0.25 0.21875zm12.31308 2.828125l-0.6875 0q-0.203125 0 -0.203125 -0.203125l0 -0.4375q0 -0.203125 0.203125 -0.203125l0.5 0q0.5625 0 0.953125 -0.171875q0.390625 -0.15625 0.6875 -0.59375q0.296875 -0.421875 0.390625 -0.65625q0.265625 -0.578125 0.4375 -1.0625l-0.359375 0q-0.203125 0 -0.265625 -0.234375l-2.953125 -8.5625305q-0.078125 -0.21875 0.140625 -0.21875l0.578125 0q0.1875 0 0.25 0.21875l2.734375 8.0156555l0.078125 0l2.75 -8.0156555q0.046875 -0.21875 0.234375 -0.21875l0.5625 0q0.21875 0 0.171875 0.21875q-3.34375 9.7812805 -3.484375 10.1094055q-0.140625 0.34375 -0.515625 0.921875q-0.703125 1.09375 -2.203125 1.09375z" fill-rule="nonzero"/><path fill="#ffffff" d="m360.07465 498.40158l150.06299 0c3.6621094E-4 0 7.019043E-4 1.2207031E-4 9.460449E-4 3.9672852E-4c2.746582E-4 2.4414062E-4 3.9672852E-4 6.1035156E-4 3.9672852E-4 9.460449E-4l-0.0013427734 13.022278l0 0c0 7.1927185 -5.8308716 13.02359 -13.023621 13.02359l-150.06299 0l0 0c-7.6293945E-4 0 -0.001373291 -6.1035156E-4 -0.001373291 -0.0013427734l0.001373291 -13.022247l0 0c0 -7.192749 5.8308716 -13.023621 13.023621 -13.023621z" fill-rule="evenodd"/><path stroke="#595959" stroke-width="1.0" stroke-linejoin="round" stroke-linecap="butt" d="m360.07465 498.40158l150.06299 0c3.6621094E-4 0 7.019043E-4 1.2207031E-4 9.460449E-4 3.9672852E-4c2.746582E-4 2.4414062E-4 3.9672852E-4 6.1035156E-4 3.9672852E-4 9.460449E-4l-0.0013427734 13.022278l0 0c0 7.1927185 -5.8308716 13.02359 -13.023621 13.02359l-150.06299 0l0 0c-7.6293945E-4 0 -0.001373291 -6.1035156E-4 -0.001373291 -0.0013427734l0.001373291 -13.022247l0 0c0 -7.192749 5.8308716 -13.023621 13.023621 -13.023621z" fill-rule="evenodd"/><path fill="#000000" fill-opacity="0.0" d="m390.8043 498.40158l47.02362 0l0 26.04721l-47.02362 0z" fill-rule="evenodd"/><path stroke="#595959" stroke-width="1.0" stroke-linejoin="round" stroke-linecap="butt" d="m390.8043 498.40158l47.02362 0l0 26.04721l-47.02362 0z" fill-rule="evenodd"/><path fill="#000000" d="m404.14804 518.3452l-0.921875 0q-0.21875 0 -0.265625 -0.21875l-2.5625 -11.5469055q-0.046875 -0.234375 0.1875 -0.234375l0.625 0q0.203125 0 0.234375 0.234375l2.21875 10.7031555l0.09375 0l2.84375 -10.7344055q0.03125 -0.203125 0.234375 -0.203125l0.71875 0q0.21875 0 0.25 0.203125l2.859375 10.7344055l0.09375 0l2.203125 -10.7031555q0.03125 -0.234375 0.25 -0.234375l0.640625 0q0.21875 0 0.171875 0.234375l-2.5625 11.5469055q-0.03125 0.21875 -0.234375 0.21875l-0.953125 0q-0.203125 0 -0.265625 -0.21875l-2.765625 -10.5312805l-0.0625 0l-2.78125 10.5312805q-0.0625 0.21875 -0.25 0.21875zm11.75058 0l-0.6875 0q-0.234375 0 -0.09375 -0.21875l2.703125 -4.625l-2.5625 -4.4531555q-0.15625 -0.21875 0.09375 -0.21875l0.671875 0q0.203125 0 0.3125 0.21875l2.109375 3.8125305l0.078125 0l2.0 -3.8125305q0.140625 -0.21875 0.328125 -0.21875l0.671875 0q0.234375 0 0.09375 0.21875l-2.515625 4.4062805l2.734375 4.671875q0.125 0.21875 -0.09375 0.21875l-0.75 0q-0.140625 0 -0.25 -0.21875l-2.21875 -4.0l-0.078125 0l-2.21875 4.0q-0.140625 0.21875 -0.328125 0.21875z" fill-rule="nonzero"/><path fill="#000000" fill-opacity="0.0" d="m437.8279 498.40158l47.02362 0l0 26.04721l-47.02362 0z" fill-rule="evenodd"/><path stroke="#595959" stroke-width="1.0" stroke-linejoin="round" stroke-linecap="butt" d="m437.8279 498.40158l47.02362 0l0 26.04721l-47.02362 0z" fill-rule="evenodd"/><path fill="#000000" d="m451.17166 518.3452l-0.921875 0q-0.21875 0 -0.265625 -0.21875l-2.5625 -11.5469055q-0.046875 -0.234375 0.1875 -0.234375l0.625 0q0.203125 0 0.234375 0.234375l2.21875 10.7031555l0.09375 0l2.84375 -10.7344055q0.03125 -0.203125 0.234375 -0.203125l0.71875 0q0.21875 0 0.25 0.203125l2.859375 10.7344055l0.09375 0l2.203125 -10.7031555q0.03125 -0.234375 0.25 -0.234375l0.640625 0q0.21875 0 0.171875 0.234375l-2.5625 11.5469055q-0.03125 0.21875 -0.234375 0.21875l-0.953125 0q-0.203125 0 -0.265625 -0.21875l-2.765625 -10.5312805l-0.0625 0l-2.78125 10.5312805q-0.0625 0.21875 -0.25 0.21875zm12.31308 2.828125l-0.6875 0q-0.203125 0 -0.203125 -0.203125l0 -0.4375q0 -0.203125 0.203125 -0.203125l0.5 0q0.5625 0 0.953125 -0.171875q0.390625 -0.15625 0.6875 -0.59375q0.296875 -0.421875 0.390625 -0.65625q0.265625 -0.578125 0.4375 -1.0625l-0.359375 0q-0.203125 0 -0.265625 -0.234375l-2.953125 -8.5625305q-0.078125 -0.21875 0.140625 -0.21875l0.578125 0q0.1875 0 0.25 0.21875l2.734375 8.0156555l0.078125 0l2.75 -8.0156555q0.046875 -0.21875 0.234375 -0.21875l0.5625 0q0.21875 0 0.171875 0.21875q-3.34375 9.7812805 -3.484375 10.1094055q-0.140625 0.34375 -0.515625 0.921875q-0.703125 1.09375 -2.203125 1.09375z" fill-rule="nonzero"/><path fill="#000000" fill-opacity="0.0" d="m550.22015 -0.26935196l0 536.8189" fill-rule="evenodd"/><path stroke="#595959" stroke-width="1.0" stroke-linejoin="round" stroke-linecap="butt" d="m550.22015 -0.26935196l0 536.8189" fill-rule="evenodd"/><path fill="#000000" fill-opacity="0.0" d="m706.6562 106.85257l112.78735 0l0 44.094482l-112.78735 0z" fill-rule="evenodd"/><path stroke="#595959" stroke-width="1.0" stroke-linejoin="round" stroke-linecap="butt" d="m706.6562 106.85257l112.78735 0l0 44.094482l-112.78735 0z" fill-rule="evenodd"/><path fill="#000000" d="m745.06335 135.81981l-5.9375 0q-0.1875 0 -0.1875 -0.21875l0 -11.546875q0 -0.234375 0.1875 -0.234375l0.546875 0q0.203125 0 0.203125 0.234375l0 10.71875q0 0.171875 0.1875 0.171875l5.0 0q0.21875 0 0.21875 0.203125l0 0.46875q0 0.203125 -0.21875 0.203125zm8.429565 0l-3.890625 0q-1.21875 0 -1.921875 -0.703125q-0.6875 -0.71875 -0.6875 -1.953125l0 -4.203125q0 -1.234375 0.6875 -1.9375q0.703125 -0.71875 1.921875 -0.71875l1.59375 0q1.21875 0 1.921875 0.71875q0.71875 0.703125 0.71875 1.9375l0 2.359375q0 0.234375 -0.234375 0.234375l-5.515625 0q-0.171875 0 -0.171875 0.15625l0 1.4375q0 0.875 0.453125 1.359375q0.453125 0.46875 1.3125 0.46875l3.8125 0q0.203125 0 0.203125 0.203125l0 0.4375q0 0.203125 -0.203125 0.203125zm-5.40625 -5.015625l4.640625 0q0.171875 0 0.171875 -0.171875l0 -1.65625q0 -0.875 -0.453125 -1.34375q-0.4375 -0.484375 -1.296875 -0.484375l-1.46875 0q-0.859375 0 -1.3125 0.484375q-0.453125 0.46875 -0.453125 1.34375l0 1.65625q0 0.171875 0.171875 0.171875zm11.882019 5.015625l-1.1875 0q-1.21875 0 -1.921875 -0.703125q-0.6875 -0.71875 -0.6875 -1.953125l0 -4.203125q0 -1.234375 0.6875 -1.9375q0.703125 -0.71875 1.921875 -0.71875l3.953125 0q0.1875 0 0.1875 0.21875l0 9.078125q0 0.21875 -0.1875 0.21875l-0.546875 0q-0.203125 0 -0.203125 -0.21875l0 -0.75l-0.078125 0q-0.484375 0.96875 -1.9375 0.96875zm2.015625 -2.671875l0 -5.828125q0 -0.171875 -0.1875 -0.171875l-2.9375 0q-0.859375 0 -1.3125 0.484375q-0.453125 0.484375 -0.453125 1.359375l0 4.140625q0 0.875 0.453125 1.359375q0.453125 0.484375 1.3125 0.484375l1.203125 0q0.890625 0 1.40625 -0.46875q0.515625 -0.484375 0.515625 -1.359375zm7.3654175 2.671875l-1.25 0q-1.1875 0 -1.875 -0.703125q-0.6875 -0.71875 -0.6875 -1.953125l0 -4.203125q0 -1.234375 0.6875 -1.9375q0.6875 -0.71875 1.875 -0.71875l1.25 0q1.4375 0 1.96875 0.96875l0.078125 0l0 -4.34375q0 -0.21875 0.171875 -0.21875l0.546875 0q0.203125 0 0.203125 0.21875l0 12.671875q0 0.21875 -0.203125 0.21875l-0.546875 0q-0.171875 0 -0.171875 -0.21875l0 -0.75l-0.078125 0q-0.53125 0.96875 -1.96875 0.96875zm2.046875 -2.671875l0 -4.171875q0 -0.875 -0.515625 -1.34375q-0.515625 -0.484375 -1.40625 -0.484375l-1.25 0q-0.859375 0 -1.3125 0.484375q-0.453125 0.484375 -0.453125 1.359375l0 4.140625q0 0.875 0.453125 1.359375q0.453125 0.484375 1.3125 0.484375l1.25 0q0.890625 0 1.40625 -0.46875q0.515625 -0.484375 0.515625 -1.359375zm10.043396 2.671875l-3.890625 0q-1.21875 0 -1.921875 -0.703125q-0.6875 -0.71875 -0.6875 -1.953125l0 -4.203125q0 -1.234375 0.6875 -1.9375q0.703125 -0.71875 1.921875 -0.71875l1.59375 0q1.21875 0 1.921875 0.71875q0.71875 0.703125 0.71875 1.9375l0 2.359375q0 0.234375 -0.234375 0.234375l-5.515625 0q-0.171875 0 -0.171875 0.15625l0 1.4375q0 0.875 0.453125 1.359375q0.453125 0.46875 1.3125 0.46875l3.8125 0q0.203125 0 0.203125 0.203125l0 0.4375q0 0.203125 -0.203125 0.203125zm-5.40625 -5.015625l4.640625 0q0.171875 0 0.171875 -0.171875l0 -1.65625q0 -0.875 -0.453125 -1.34375q-0.4375 -0.484375 -1.296875 -0.484375l-1.46875 0q-0.859375 0 -1.3125 0.484375q-0.453125 0.46875 -0.453125 1.34375l0 1.65625q0 0.171875 0.171875 0.171875zm8.991394 5.015625l-0.546875 0q-0.171875 0 -0.171875 -0.21875l0 -9.078125q0 -0.21875 0.171875 -0.21875l0.546875 0q0.203125 0 0.203125 0.21875l0 0.796875l0.078125 0q0.203125 -0.40625 0.71875 -0.703125q0.53125 -0.3125 1.296875 -0.3125l0.734375 0q0.203125 0 0.203125 0.203125l0 0.453125q0 0.203125 -0.203125 0.1875l-0.890625 0q-0.90625 0 -1.421875 0.5625q-0.515625 0.546875 -0.515625 1.5l0 6.390625q0 0.21875 -0.203125 0.21875z" fill-rule="nonzero"/><path fill="#000000" fill-opacity="0.0" d="m630.08746 205.9628l94.236206 0l0 44.094498l-94.236206 0z" fill-rule="evenodd"/><path stroke="#595959" stroke-width="1.0" stroke-linejoin="round" stroke-linecap="butt" d="m630.08746 205.9628l94.236206 0l0 44.094498l-94.236206 0z" fill-rule="evenodd"/><path fill="#000000" d="m648.1849 234.93005l-0.546875 0q-0.1875 0 -0.1875 -0.21875l0 -11.546875q0 -0.234375 0.1875 -0.234375l5.75 0q0.234375 0 0.234375 0.203125l0 0.4375q0 0.203125 -0.234375 0.203125l-4.8125 0q-0.1875 0 -0.1875 0.171875l0 4.53125q0 0.140625 0.1875 0.140625l4.3125 0q0.203125 0 0.203125 0.21875l0 0.4375q0 0.203125 -0.203125 0.203125l-4.3125 0q-0.1875 0 -0.1875 0.15625l0 5.078125q0 0.21875 -0.203125 0.21875zm11.672607 0l-1.59375 0q-1.21875 0 -1.921875 -0.703125q-0.6875 -0.71875 -0.6875 -1.953125l0 -4.203125q0 -1.234375 0.6875 -1.9375q0.703125 -0.71875 1.921875 -0.71875l1.59375 0q1.21875 0 1.921875 0.71875q0.71875 0.703125 0.71875 1.9375l0 4.203125q0 1.234375 -0.71875 1.953125q-0.703125 0.703125 -1.921875 0.703125zm-1.515625 -0.84375l1.453125 0q0.859375 0 1.3125 -0.46875q0.453125 -0.484375 0.453125 -1.359375l0 -4.171875q0 -0.875 -0.453125 -1.34375q-0.453125 -0.484375 -1.3125 -0.484375l-1.453125 0q-0.859375 0 -1.3125 0.484375q-0.453125 0.46875 -0.453125 1.34375l0 4.171875q0 0.875 0.453125 1.359375q0.453125 0.46875 1.3125 0.46875zm7.56604 0.84375l-0.546875 0q-0.171875 0 -0.171875 -0.21875l0 -12.671875q0 -0.21875 0.171875 -0.21875l0.546875 0q0.203125 0 0.203125 0.21875l0 12.671875q0 0.21875 -0.203125 0.21875zm3.9177856 0l-0.546875 0q-0.171875 0 -0.171875 -0.21875l0 -12.671875q0 -0.21875 0.171875 -0.21875l0.546875 0q0.203125 0 0.203125 0.21875l0 12.671875q0 0.21875 -0.203125 0.21875zm7.1209717 0l-1.59375 0q-1.21875 0 -1.921875 -0.703125q-0.6875 -0.71875 -0.6875 -1.953125l0 -4.203125q0 -1.234375 0.6875 -1.9375q0.703125 -0.71875 1.921875 -0.71875l1.59375 0q1.21875 0 1.921875 0.71875q0.71875 0.703125 0.71875 1.9375l0 4.203125q0 1.234375 -0.71875 1.953125q-0.703125 0.703125 -1.921875 0.703125zm-1.515625 -0.84375l1.453125 0q0.859375 0 1.3125 -0.46875q0.453125 -0.484375 0.453125 -1.359375l0 -4.171875q0 -0.875 -0.453125 -1.34375q-0.453125 -0.484375 -1.3125 -0.484375l-1.453125 0q-0.859375 0 -1.3125 0.484375q-0.453125 0.46875 -0.453125 1.34375l0 4.171875q0 0.875 0.453125 1.359375q0.453125 0.46875 1.3125 0.46875zm9.347229 0.84375l-0.75 0q-0.1875 0 -0.25 -0.21875l-2.609375 -9.078125q-0.0625 -0.21875 0.15625 -0.21875l0.59375 0q0.203125 0 0.234375 0.21875l2.203125 8.125l0.09375 0l2.171875 -8.125q0.03125 -0.21875 0.25 -0.21875l0.546875 0q0.21875 0 0.265625 0.21875l2.125 8.125l0.09375 0l2.21875 -8.125q0.0625 -0.21875 0.234375 -0.21875l0.609375 0q0.21875 0 0.140625 0.21875l-2.59375 9.078125q-0.046875 0.21875 -0.25 0.21875l-0.75 0q-0.203125 0 -0.265625 -0.21875l-2.0625 -7.875l-0.09375 0l-2.0625 7.875q-0.046875 0.21875 -0.25 0.21875zm16.460999 0l-3.890625 0q-1.21875 0 -1.921875 -0.703125q-0.6875 -0.71875 -0.6875 -1.953125l0 -4.203125q0 -1.234375 0.6875 -1.9375q0.703125 -0.71875 1.921875 -0.71875l1.59375 0q1.21875 0 1.921875 0.71875q0.71875 0.703125 0.71875 1.9375l0 2.359375q0 0.234375 -0.234375 0.234375l-5.515625 0q-0.171875 0 -0.171875 0.15625l0 1.4375q0 0.875 0.453125 1.359375q0.453125 0.46875 1.3125 0.46875l3.8125 0q0.203125 0 0.203125 0.203125l0 0.4375q0 0.203125 -0.203125 0.203125zm-5.40625 -5.015625l4.640625 0q0.171875 0 0.171875 -0.171875l0 -1.65625q0 -0.875 -0.453125 -1.34375q-0.4375 -0.484375 -1.296875 -0.484375l-1.46875 0q-0.859375 0 -1.3125 0.484375q-0.453125 0.46875 -0.453125 1.34375l0 1.65625q0 0.171875 0.171875 0.171875zm8.991333 5.015625l-0.546875 0q-0.171875 0 -0.171875 -0.21875l0 -9.078125q0 -0.21875 0.171875 -0.21875l0.546875 0q0.203125 0 0.203125 0.21875l0 0.796875l0.078125 0q0.203125 -0.40625 0.71875 -0.703125q0.53125 -0.3125 1.296875 -0.3125l0.734375 0q0.203125 0 0.203125 0.203125l0 0.453125q0 0.203125 -0.203125 0.1875l-0.890625 0q-0.90625 0 -1.421875 0.5625q-0.515625 0.546875 -0.515625 1.5l0 6.390625q0 0.21875 -0.203125 0.21875z" fill-rule="nonzero"/><path fill="#000000" fill-opacity="0.0" d="m804.3228 205.9628l94.23627 0l0 44.094498l-94.23627 0z" fill-rule="evenodd"/><path stroke="#595959" stroke-width="1.0" stroke-linejoin="round" stroke-linecap="butt" d="m804.3228 205.9628l94.23627 0l0 44.094498l-94.23627 0z" fill-rule="evenodd"/><path fill="#000000" d="m822.4203 234.93005l-0.546875 0q-0.1875 0 -0.1875 -0.21875l0 -11.546875q0 -0.234375 0.1875 -0.234375l5.75 0q0.234375 0 0.234375 0.203125l0 0.4375q0 0.203125 -0.234375 0.203125l-4.8125 0q-0.1875 0 -0.1875 0.171875l0 4.53125q0 0.140625 0.1875 0.140625l4.3125 0q0.203125 0 0.203125 0.21875l0 0.4375q0 0.203125 -0.203125 0.203125l-4.3125 0q-0.1875 0 -0.1875 0.15625l0 5.078125q0 0.21875 -0.203125 0.21875zm11.672546 0l-1.59375 0q-1.21875 0 -1.921875 -0.703125q-0.6875 -0.71875 -0.6875 -1.953125l0 -4.203125q0 -1.234375 0.6875 -1.9375q0.703125 -0.71875 1.921875 -0.71875l1.59375 0q1.21875 0 1.921875 0.71875q0.71875 0.703125 0.71875 1.9375l0 4.203125q0 1.234375 -0.71875 1.953125q-0.703125 0.703125 -1.921875 0.703125zm-1.515625 -0.84375l1.453125 0q0.859375 0 1.3125 -0.46875q0.453125 -0.484375 0.453125 -1.359375l0 -4.171875q0 -0.875 -0.453125 -1.34375q-0.453125 -0.484375 -1.3125 -0.484375l-1.453125 0q-0.859375 0 -1.3125 0.484375q-0.453125 0.46875 -0.453125 1.34375l0 4.171875q0 0.875 0.453125 1.359375q0.453125 0.46875 1.3125 0.46875zm7.56604 0.84375l-0.546875 0q-0.171875 0 -0.171875 -0.21875l0 -12.671875q0 -0.21875 0.171875 -0.21875l0.546875 0q0.203125 0 0.203125 0.21875l0 12.671875q0 0.21875 -0.203125 0.21875zm3.9177856 0l-0.546875 0q-0.171875 0 -0.171875 -0.21875l0 -12.671875q0 -0.21875 0.171875 -0.21875l0.546875 0q0.203125 0 0.203125 0.21875l0 12.671875q0 0.21875 -0.203125 0.21875zm7.1209717 0l-1.59375 0q-1.21875 0 -1.921875 -0.703125q-0.6875 -0.71875 -0.6875 -1.953125l0 -4.203125q0 -1.234375 0.6875 -1.9375q0.703125 -0.71875 1.921875 -0.71875l1.59375 0q1.21875 0 1.921875 0.71875q0.71875 0.703125 0.71875 1.9375l0 4.203125q0 1.234375 -0.71875 1.953125q-0.703125 0.703125 -1.921875 0.703125zm-1.515625 -0.84375l1.453125 0q0.859375 0 1.3125 -0.46875q0.453125 -0.484375 0.453125 -1.359375l0 -4.171875q0 -0.875 -0.453125 -1.34375q-0.453125 -0.484375 -1.3125 -0.484375l-1.453125 0q-0.859375 0 -1.3125 0.484375q-0.453125 0.46875 -0.453125 1.34375l0 4.171875q0 0.875 0.453125 1.359375q0.453125 0.46875 1.3125 0.46875zm9.347229 0.84375l-0.75 0q-0.1875 0 -0.25 -0.21875l-2.609375 -9.078125q-0.0625 -0.21875 0.15625 -0.21875l0.59375 0q0.203125 0 0.234375 0.21875l2.203125 8.125l0.09375 0l2.171875 -8.125q0.03125 -0.21875 0.25 -0.21875l0.546875 0q0.21875 0 0.265625 0.21875l2.125 8.125l0.09375 0l2.21875 -8.125q0.0625 -0.21875 0.234375 -0.21875l0.609375 0q0.21875 0 0.140625 0.21875l-2.59375 9.078125q-0.046875 0.21875 -0.25 0.21875l-0.75 0q-0.203125 0 -0.265625 -0.21875l-2.0625 -7.875l-0.09375 0l-2.0625 7.875q-0.046875 0.21875 -0.25 0.21875zm16.460999 0l-3.890625 0q-1.21875 0 -1.921875 -0.703125q-0.6875 -0.71875 -0.6875 -1.953125l0 -4.203125q0 -1.234375 0.6875 -1.9375q0.703125 -0.71875 1.921875 -0.71875l1.59375 0q1.21875 0 1.921875 0.71875q0.71875 0.703125 0.71875 1.9375l0 2.359375q0 0.234375 -0.234375 0.234375l-5.515625 0q-0.171875 0 -0.171875 0.15625l0 1.4375q0 0.875 0.453125 1.359375q0.453125 0.46875 1.3125 0.46875l3.8125 0q0.203125 0 0.203125 0.203125l0 0.4375q0 0.203125 -0.203125 0.203125zm-5.40625 -5.015625l4.640625 0q0.171875 0 0.171875 -0.171875l0 -1.65625q0 -0.875 -0.453125 -1.34375q-0.4375 -0.484375 -1.296875 -0.484375l-1.46875 0q-0.859375 0 -1.3125 0.484375q-0.453125 0.46875 -0.453125 1.34375l0 1.65625q0 0.171875 0.171875 0.171875zm8.991394 5.015625l-0.546875 0q-0.171875 0 -0.171875 -0.21875l0 -9.078125q0 -0.21875 0.171875 -0.21875l0.546875 0q0.203125 0 0.203125 0.21875l0 0.796875l0.078125 0q0.203125 -0.40625 0.71875 -0.703125q0.53125 -0.3125 1.296875 -0.3125l0.734375 0q0.203125 0 0.203125 0.203125l0 0.453125q0 0.203125 -0.203125 0.1875l-0.890625 0q-0.90625 0 -1.421875 0.5625q-0.515625 0.546875 -0.515625 1.5l0 6.390625q0 0.21875 -0.203125 0.21875z" fill-rule="nonzero"/><path fill="#000000" fill-opacity="0.0" d="m763.04987 150.94705l-85.85828 55.02362" fill-rule="evenodd"/><path stroke="#595959" stroke-width="1.0" stroke-linejoin="round" stroke-linecap="butt" d="m763.04987 150.94705l-80.80664 51.786194" fill-rule="evenodd"/><path fill="#595959" stroke="#595959" stroke-width="1.0" stroke-linecap="butt" d="m681.352 201.34259l-2.9295654 3.8392944l4.712036 -1.0579681z" fill-rule="evenodd"/><path fill="#000000" fill-opacity="0.0" d="m763.04987 150.94705l88.37793 55.02362" fill-rule="evenodd"/><path stroke="#595959" stroke-width="1.0" stroke-linejoin="round" stroke-linecap="butt" d="m763.04987 150.94705l83.284424 51.852448" fill-rule="evenodd"/><path fill="#595959" stroke="#595959" stroke-width="1.0" stroke-linecap="butt" d="m845.46136 204.20168l4.725403 0.9963379l-2.9794312 -3.8006897z" fill-rule="evenodd"/><path fill="#000000" fill-opacity="0.0" d="m706.996 348.66623l112.787415 0l0 44.094482l-112.787415 0z" fill-rule="evenodd"/><path stroke="#595959" stroke-width="1.0" stroke-linejoin="round" stroke-linecap="butt" d="m706.996 348.66623l112.787415 0l0 44.094482l-112.787415 0z" fill-rule="evenodd"/><path fill="#000000" d="m746.3836 377.63345l-0.546875 0q-0.1875 0 -0.1875 -0.21875l0 -11.546875q0 -0.234375 0.1875 -0.234375l0.515625 0q0.15625 0 0.21875 0.109375l5.734375 9.859375l0.0625 0l0 -9.734375q0 -0.234375 0.203125 -0.234375l0.53125 0q0.203125 0 0.203125 0.234375l0 11.546875q0 0.21875 -0.203125 0.21875l-0.4375 0q-0.15625 0 -0.296875 -0.203125l-5.703125 -9.78125l-0.078125 0l0 9.765625q0 0.21875 -0.203125 0.21875zm13.911377 0l-1.59375 0q-1.21875 0 -1.921875 -0.703125q-0.6875 -0.71875 -0.6875 -1.953125l0 -4.203125q0 -1.234375 0.6875 -1.9375q0.703125 -0.71875 1.921875 -0.71875l1.59375 0q1.21875 0 1.921875 0.71875q0.71875 0.703125 0.71875 1.9375l0 4.203125q0 1.234375 -0.71875 1.953125q-0.703125 0.703125 -1.921875 0.703125zm-1.515625 -0.84375l1.453125 0q0.859375 0 1.3125 -0.46875q0.453125 -0.484375 0.453125 -1.359375l0 -4.171875q0 -0.875 -0.453125 -1.34375q-0.453125 -0.484375 -1.3125 -0.484375l-1.453125 0q-0.859375 0 -1.3125 0.484375q-0.453125 0.46875 -0.453125 1.34375l0 4.171875q0 0.875 0.453125 1.359375q0.453125 0.46875 1.3125 0.46875zm10.378479 0.84375l-1.25 0q-1.1875 0 -1.875 -0.703125q-0.6875 -0.71875 -0.6875 -1.953125l0 -4.203125q0 -1.234375 0.6875 -1.9375q0.6875 -0.71875 1.875 -0.71875l1.25 0q1.4375 0 1.96875 0.96875l0.078125 0l0 -4.34375q0 -0.21875 0.171875 -0.21875l0.546875 0q0.203125 0 0.203125 0.21875l0 12.671875q0 0.21875 -0.203125 0.21875l-0.546875 0q-0.171875 0 -0.171875 -0.21875l0 -0.75l-0.078125 0q-0.53125 0.96875 -1.96875 0.96875zm2.046875 -2.671875l0 -4.171875q0 -0.875 -0.515625 -1.34375q-0.515625 -0.484375 -1.40625 -0.484375l-1.25 0q-0.859375 0 -1.3125 0.484375q-0.453125 0.484375 -0.453125 1.359375l0 4.140625q0 0.875 0.453125 1.359375q0.453125 0.484375 1.3125 0.484375l1.25 0q0.890625 0 1.40625 -0.46875q0.515625 -0.484375 0.515625 -1.359375zm10.043396 2.671875l-3.890625 0q-1.21875 0 -1.921875 -0.703125q-0.6875 -0.71875 -0.6875 -1.953125l0 -4.203125q0 -1.234375 0.6875 -1.9375q0.703125 -0.71875 1.921875 -0.71875l1.59375 0q1.21875 0 1.921875 0.71875q0.71875 0.703125 0.71875 1.9375l0 2.359375q0 0.234375 -0.234375 0.234375l-5.515625 0q-0.171875 0 -0.171875 0.15625l0 1.4375q0 0.875 0.453125 1.359375q0.453125 0.46875 1.3125 0.46875l3.8125 0q0.203125 0 0.203125 0.203125l0 0.4375q0 0.203125 -0.203125 0.203125zm-5.40625 -5.015625l4.640625 0q0.171875 0 0.171875 -0.171875l0 -1.65625q0 -0.875 -0.453125 -1.34375q-0.4375 -0.484375 -1.296875 -0.484375l-1.46875 0q-0.859375 0 -1.3125 0.484375q-0.453125 0.46875 -0.453125 1.34375l0 1.65625q0 0.171875 0.171875 0.171875z" fill-rule="nonzero"/><path fill="#000000" fill-opacity="0.0" d="m630.4273 447.77646l94.236206 0l0 44.094482l-94.236206 0z" fill-rule="evenodd"/><path stroke="#595959" stroke-width="1.0" stroke-linejoin="round" stroke-linecap="butt" d="m630.4273 447.77646l94.236206 0l0 44.094482l-94.236206 0z" fill-rule="evenodd"/><path fill="#000000" d="m660.53937 476.74368l-0.546875 0q-0.1875 0 -0.1875 -0.21875l0 -11.546875q0 -0.234375 0.1875 -0.234375l0.515625 0q0.15625 0 0.21875 0.109375l5.734375 9.859375l0.0625 0l0 -9.734375q0 -0.234375 0.203125 -0.234375l0.53125 0q0.203125 0 0.203125 0.234375l0 11.546875q0 0.21875 -0.203125 0.21875l-0.4375 0q-0.15625 0 -0.296875 -0.203125l-5.703125 -9.78125l-0.078125 0l0 9.765625q0 0.21875 -0.203125 0.21875zm13.911316 0l-1.59375 0q-1.21875 0 -1.921875 -0.703125q-0.6875 -0.71875 -0.6875 -1.953125l0 -4.203125q0 -1.234375 0.6875 -1.9375q0.703125 -0.71875 1.921875 -0.71875l1.59375 0q1.21875 0 1.921875 0.71875q0.71875 0.703125 0.71875 1.9375l0 4.203125q0 1.234375 -0.71875 1.953125q-0.703125 0.703125 -1.921875 0.703125zm-1.515625 -0.84375l1.453125 0q0.859375 0 1.3125 -0.46875q0.453125 -0.484375 0.453125 -1.359375l0 -4.171875q0 -0.875 -0.453125 -1.34375q-0.453125 -0.484375 -1.3125 -0.484375l-1.453125 0q-0.859375 0 -1.3125 0.484375q-0.453125 0.46875 -0.453125 1.34375l0 4.171875q0 0.875 0.453125 1.359375q0.453125 0.46875 1.3125 0.46875zm10.37854 0.84375l-1.25 0q-1.1875 0 -1.875 -0.703125q-0.6875 -0.71875 -0.6875 -1.953125l0 -4.203125q0 -1.234375 0.6875 -1.9375q0.6875 -0.71875 1.875 -0.71875l1.25 0q1.4375 0 1.96875 0.96875l0.078125 0l0 -4.34375q0 -0.21875 0.171875 -0.21875l0.546875 0q0.203125 0 0.203125 0.21875l0 12.671875q0 0.21875 -0.203125 0.21875l-0.546875 0q-0.171875 0 -0.171875 -0.21875l0 -0.75l-0.078125 0q-0.53125 0.96875 -1.96875 0.96875zm2.046875 -2.671875l0 -4.171875q0 -0.875 -0.515625 -1.34375q-0.515625 -0.484375 -1.40625 -0.484375l-1.25 0q-0.859375 0 -1.3125 0.484375q-0.453125 0.484375 -0.453125 1.359375l0 4.140625q0 0.875 0.453125 1.359375q0.453125 0.484375 1.3125 0.484375l1.25 0q0.890625 0 1.40625 -0.46875q0.515625 -0.484375 0.515625 -1.359375zm10.043335 2.671875l-3.890625 0q-1.21875 0 -1.921875 -0.703125q-0.6875 -0.71875 -0.6875 -1.953125l0 -4.203125q0 -1.234375 0.6875 -1.9375q0.703125 -0.71875 1.921875 -0.71875l1.59375 0q1.21875 0 1.921875 0.71875q0.71875 0.703125 0.71875 1.9375l0 2.359375q0 0.234375 -0.234375 0.234375l-5.515625 0q-0.171875 0 -0.171875 0.15625l0 1.4375q0 0.875 0.453125 1.359375q0.453125 0.46875 1.3125 0.46875l3.8125 0q0.203125 0 0.203125 0.203125l0 0.4375q0 0.203125 -0.203125 0.203125zm-5.40625 -5.015625l4.640625 0q0.171875 0 0.171875 -0.171875l0 -1.65625q0 -0.875 -0.453125 -1.34375q-0.4375 -0.484375 -1.296875 -0.484375l-1.46875 0q-0.859375 0 -1.3125 0.484375q-0.453125 0.46875 -0.453125 1.34375l0 1.65625q0 0.171875 0.171875 0.171875z" fill-rule="nonzero"/><path fill="#000000" fill-opacity="0.0" d="m804.66266 447.77646l94.236206 0l0 44.094482l-94.236206 0z" fill-rule="evenodd"/><path stroke="#595959" stroke-width="1.0" stroke-linejoin="round" stroke-linecap="butt" d="m804.66266 447.77646l94.236206 0l0 44.094482l-94.236206 0z" fill-rule="evenodd"/><path fill="#000000" d="m834.7747 476.74368l-0.546875 0q-0.1875 0 -0.1875 -0.21875l0 -11.546875q0 -0.234375 0.1875 -0.234375l0.515625 0q0.15625 0 0.21875 0.109375l5.734375 9.859375l0.0625 0l0 -9.734375q0 -0.234375 0.203125 -0.234375l0.53125 0q0.203125 0 0.203125 0.234375l0 11.546875q0 0.21875 -0.203125 0.21875l-0.4375 0q-0.15625 0 -0.296875 -0.203125l-5.703125 -9.78125l-0.078125 0l0 9.765625q0 0.21875 -0.203125 0.21875zm13.911316 0l-1.59375 0q-1.21875 0 -1.921875 -0.703125q-0.6875 -0.71875 -0.6875 -1.953125l0 -4.203125q0 -1.234375 0.6875 -1.9375q0.703125 -0.71875 1.921875 -0.71875l1.59375 0q1.21875 0 1.921875 0.71875q0.71875 0.703125 0.71875 1.9375l0 4.203125q0 1.234375 -0.71875 1.953125q-0.703125 0.703125 -1.921875 0.703125zm-1.515625 -0.84375l1.453125 0q0.859375 0 1.3125 -0.46875q0.453125 -0.484375 0.453125 -1.359375l0 -4.171875q0 -0.875 -0.453125 -1.34375q-0.453125 -0.484375 -1.3125 -0.484375l-1.453125 0q-0.859375 0 -1.3125 0.484375q-0.453125 0.46875 -0.453125 1.34375l0 4.171875q0 0.875 0.453125 1.359375q0.453125 0.46875 1.3125 0.46875zm10.37854 0.84375l-1.25 0q-1.1875 0 -1.875 -0.703125q-0.6875 -0.71875 -0.6875 -1.953125l0 -4.203125q0 -1.234375 0.6875 -1.9375q0.6875 -0.71875 1.875 -0.71875l1.25 0q1.4375 0 1.96875 0.96875l0.078125 0l0 -4.34375q0 -0.21875 0.171875 -0.21875l0.546875 0q0.203125 0 0.203125 0.21875l0 12.671875q0 0.21875 -0.203125 0.21875l-0.546875 0q-0.171875 0 -0.171875 -0.21875l0 -0.75l-0.078125 0q-0.53125 0.96875 -1.96875 0.96875zm2.046875 -2.671875l0 -4.171875q0 -0.875 -0.515625 -1.34375q-0.515625 -0.484375 -1.40625 -0.484375l-1.25 0q-0.859375 0 -1.3125 0.484375q-0.453125 0.484375 -0.453125 1.359375l0 4.140625q0 0.875 0.453125 1.359375q0.453125 0.484375 1.3125 0.484375l1.25 0q0.890625 0 1.40625 -0.46875q0.515625 -0.484375 0.515625 -1.359375zm10.043335 2.671875l-3.890625 0q-1.21875 0 -1.921875 -0.703125q-0.6875 -0.71875 -0.6875 -1.953125l0 -4.203125q0 -1.234375 0.6875 -1.9375q0.703125 -0.71875 1.921875 -0.71875l1.59375 0q1.21875 0 1.921875 0.71875q0.71875 0.703125 0.71875 1.9375l0 2.359375q0 0.234375 -0.234375 0.234375l-5.515625 0q-0.171875 0 -0.171875 0.15625l0 1.4375q0 0.875 0.453125 1.359375q0.453125 0.46875 1.3125 0.46875l3.8125 0q0.203125 0 0.203125 0.203125l0 0.4375q0 0.203125 -0.203125 0.203125zm-5.40625 -5.015625l4.640625 0q0.171875 0 0.171875 -0.171875l0 -1.65625q0 -0.875 -0.453125 -1.34375q-0.4375 -0.484375 -1.296875 -0.484375l-1.46875 0q-0.859375 0 -1.3125 0.484375q-0.453125 0.46875 -0.453125 1.34375l0 1.65625q0 0.171875 0.171875 0.171875z" fill-rule="nonzero"/><path fill="#000000" fill-opacity="0.0" d="m763.38965 392.7607l-61.385803 54.992126" fill-rule="evenodd"/><path stroke="#595959" stroke-width="1.0" stroke-linejoin="round" stroke-linecap="butt" d="m763.3897 392.7607l-56.91687 50.988586" fill-rule="evenodd"/><path fill="#595959" stroke="#595959" stroke-width="1.0" stroke-linecap="butt" d="m705.3707 442.51904l-2.2780151 4.2583313l4.482239 -1.7977905z" fill-rule="evenodd"/><path fill="#000000" fill-opacity="0.0" d="m763.38965 392.7607l60.75592 54.992126" fill-rule="evenodd"/><path stroke="#595959" stroke-width="1.0" stroke-linejoin="round" stroke-linecap="butt" d="m763.3897 392.7607l56.307495 50.96576" fill-rule="evenodd"/><path fill="#595959" stroke="#595959" stroke-width="1.0" stroke-linecap="butt" d="m818.58875 444.95105l4.4729614 1.8207397l-2.2561035 -4.269928z" fill-rule="evenodd"/><path fill="#000000" fill-opacity="0.0" d="m724.6635 461.8237l80.0 0" fill-rule="evenodd"/><path stroke="#595959" stroke-width="1.0" stroke-linejoin="round" stroke-linecap="butt" d="m724.66345 461.8237l74.0 0" fill-rule="evenodd"/><path fill="#595959" stroke="#595959" stroke-width="1.0" stroke-linecap="butt" d="m798.66345 463.47543l4.538086 -1.6517334l-4.538086 -1.6517334z" fill-rule="evenodd"/><path fill="#000000" fill-opacity="0.0" d="m804.6629 478.67148l-75.212585 0" fill-rule="evenodd"/><path stroke="#595959" stroke-width="1.0" stroke-linejoin="round" stroke-linecap="butt" d="m804.6629 478.67148l-69.212585 0" fill-rule="evenodd"/><path fill="#595959" stroke="#595959" stroke-width="1.0" stroke-linecap="butt" d="m735.4503 477.01974l-4.538147 1.6517334l4.538147 1.6517334z" fill-rule="evenodd"/><path fill="#000000" fill-opacity="0.0" d="m677.5454 447.77646l63.496033 -55.149597" fill-rule="evenodd"/><path stroke="#595959" stroke-width="1.0" stroke-linejoin="round" stroke-linecap="butt" d="m677.5454 447.77646l58.966064 -51.21515" fill-rule="evenodd"/><path fill="#595959" stroke="#595959" stroke-width="1.0" stroke-linecap="butt" d="m737.5946 397.80835l2.3430786 -4.22287l-4.5092773 1.7287903z" fill-rule="evenodd"/><path fill="#000000" fill-opacity="0.0" d="m851.78076 447.77646l-59.874023 -55.149597" fill-rule="evenodd"/><path stroke="#595959" stroke-width="1.0" stroke-linejoin="round" stroke-linecap="butt" d="m851.78076 447.77646l-55.460876 -51.084656" fill-rule="evenodd"/><path fill="#595959" stroke="#595959" stroke-width="1.0" stroke-linecap="butt" d="m797.43896 395.4769l-4.45697 -1.8596191l2.218872 4.2894287z" fill-rule="evenodd"/><path fill="#000000" fill-opacity="0.0" d="m278.74802 106.18898l112.787415 0l0 44.094482l-112.787415 0z" fill-rule="evenodd"/><path stroke="#595959" stroke-width="1.0" stroke-linejoin="round" stroke-linecap="butt" d="m278.74802 106.18898l112.787415 0l0 44.094482l-112.787415 0z" fill-rule="evenodd"/><path fill="#000000" d="m317.15518 135.15622l-5.9375 0q-0.1875 0 -0.1875 -0.21875l0 -11.546875q0 -0.234375 0.1875 -0.234375l0.546875 0q0.203125 0 0.203125 0.234375l0 10.71875q0 0.171875 0.1875 0.171875l5.0 0q0.21875 0 0.21875 0.203125l0 0.46875q0 0.203125 -0.21875 0.203125zm8.429596 0l-3.890625 0q-1.21875 0 -1.921875 -0.703125q-0.6875 -0.71875 -0.6875 -1.953125l0 -4.203125q0 -1.234375 0.6875 -1.9375q0.703125 -0.71875 1.921875 -0.71875l1.59375 0q1.21875 0 1.921875 0.71875q0.71875 0.703125 0.71875 1.9375l0 2.359375q0 0.234375 -0.234375 0.234375l-5.515625 0q-0.171875 0 -0.171875 0.15625l0 1.4375q0 0.875 0.453125 1.359375q0.453125 0.46875 1.3125 0.46875l3.8125 0q0.203125 0 0.203125 0.203125l0 0.4375q0 0.203125 -0.203125 0.203125zm-5.40625 -5.015625l4.640625 0q0.171875 0 0.171875 -0.171875l0 -1.65625q0 -0.875 -0.453125 -1.34375q-0.4375 -0.484375 -1.296875 -0.484375l-1.46875 0q-0.859375 0 -1.3125 0.484375q-0.453125 0.46875 -0.453125 1.34375l0 1.65625q0 0.171875 0.171875 0.171875zm11.882019 5.015625l-1.1875 0q-1.21875 0 -1.921875 -0.703125q-0.6875 -0.71875 -0.6875 -1.953125l0 -4.203125q0 -1.234375 0.6875 -1.9375q0.703125 -0.71875 1.921875 -0.71875l3.953125 0q0.1875 0 0.1875 0.21875l0 9.078125q0 0.21875 -0.1875 0.21875l-0.546875 0q-0.203125 0 -0.203125 -0.21875l0 -0.75l-0.078125 0q-0.484375 0.96875 -1.9375 0.96875zm2.015625 -2.671875l0 -5.828125q0 -0.171875 -0.1875 -0.171875l-2.9375 0q-0.859375 0 -1.3125 0.484375q-0.453125 0.484375 -0.453125 1.359375l0 4.140625q0 0.875 0.453125 1.359375q0.453125 0.484375 1.3125 0.484375l1.203125 0q0.890625 0 1.40625 -0.46875q0.515625 -0.484375 0.515625 -1.359375zm7.3654175 2.671875l-1.25 0q-1.1875 0 -1.875 -0.703125q-0.6875 -0.71875 -0.6875 -1.953125l0 -4.203125q0 -1.234375 0.6875 -1.9375q0.6875 -0.71875 1.875 -0.71875l1.25 0q1.4375 0 1.96875 0.96875l0.078125 0l0 -4.34375q0 -0.21875 0.171875 -0.21875l0.546875 0q0.203125 0 0.203125 0.21875l0 12.671875q0 0.21875 -0.203125 0.21875l-0.546875 0q-0.171875 0 -0.171875 -0.21875l0 -0.75l-0.078125 0q-0.53125 0.96875 -1.96875 0.96875zm2.046875 -2.671875l0 -4.171875q0 -0.875 -0.515625 -1.34375q-0.515625 -0.484375 -1.40625 -0.484375l-1.25 0q-0.859375 0 -1.3125 0.484375q-0.453125 0.484375 -0.453125 1.359375l0 4.140625q0 0.875 0.453125 1.359375q0.453125 0.484375 1.3125 0.484375l1.25 0q0.890625 0 1.40625 -0.46875q0.515625 -0.484375 0.515625 -1.359375zm10.043396 2.671875l-3.890625 0q-1.21875 0 -1.921875 -0.703125q-0.6875 -0.71875 -0.6875 -1.953125l0 -4.203125q0 -1.234375 0.6875 -1.9375q0.703125 -0.71875 1.921875 -0.71875l1.59375 0q1.21875 0 1.921875 0.71875q0.71875 0.703125 0.71875 1.9375l0 2.359375q0 0.234375 -0.234375 0.234375l-5.515625 0q-0.171875 0 -0.171875 0.15625l0 1.4375q0 0.875 0.453125 1.359375q0.453125 0.46875 1.3125 0.46875l3.8125 0q0.203125 0 0.203125 0.203125l0 0.4375q0 0.203125 -0.203125 0.203125zm-5.40625 -5.015625l4.640625 0q0.171875 0 0.171875 -0.171875l0 -1.65625q0 -0.875 -0.453125 -1.34375q-0.4375 -0.484375 -1.296875 -0.484375l-1.46875 0q-0.859375 0 -1.3125 0.484375q-0.453125 0.46875 -0.453125 1.34375l0 1.65625q0 0.171875 0.171875 0.171875zm8.991364 5.015625l-0.546875 0q-0.171875 0 -0.171875 -0.21875l0 -9.078125q0 -0.21875 0.171875 -0.21875l0.546875 0q0.203125 0 0.203125 0.21875l0 0.796875l0.078125 0q0.203125 -0.40625 0.71875 -0.703125q0.53125 -0.3125 1.296875 -0.3125l0.734375 0q0.203125 0 0.203125 0.203125l0 0.453125q0 0.203125 -0.203125 0.1875l-0.890625 0q-0.90625 0 -1.421875 0.5625q-0.515625 0.546875 -0.515625 1.5l0 6.390625q0 0.21875 -0.203125 0.21875z" fill-rule="nonzero"/><path fill="#000000" fill-opacity="0.0" d="m198.51268 205.29921l94.23622 0l0 44.094498l-94.23622 0z" fill-rule="evenodd"/><path stroke="#595959" stroke-width="1.0" stroke-linejoin="round" stroke-linecap="butt" d="m198.51268 205.29921l94.23622 0l0 44.094498l-94.23622 0z" fill-rule="evenodd"/><path fill="#000000" d="m216.6101 234.26645l-0.546875 0q-0.1875 0 -0.1875 -0.21875l0 -11.546875q0 -0.234375 0.1875 -0.234375l5.75 0q0.234375 0 0.234375 0.203125l0 0.4375q0 0.203125 -0.234375 0.203125l-4.8125 0q-0.1875 0 -0.1875 0.171875l0 4.53125q0 0.140625 0.1875 0.140625l4.3125 0q0.203125 0 0.203125 0.21875l0 0.4375q0 0.203125 -0.203125 0.203125l-4.3125 0q-0.1875 0 -0.1875 0.15625l0 5.078125q0 0.21875 -0.203125 0.21875zm11.672592 0l-1.59375 0q-1.21875 0 -1.921875 -0.703125q-0.6875 -0.71875 -0.6875 -1.953125l0 -4.203125q0 -1.234375 0.6875 -1.9375q0.703125 -0.71875 1.921875 -0.71875l1.59375 0q1.21875 0 1.921875 0.71875q0.71875 0.703125 0.71875 1.9375l0 4.203125q0 1.234375 -0.71875 1.953125q-0.703125 0.703125 -1.921875 0.703125zm-1.515625 -0.84375l1.453125 0q0.859375 0 1.3125 -0.46875q0.453125 -0.484375 0.453125 -1.359375l0 -4.171875q0 -0.875 -0.453125 -1.34375q-0.453125 -0.484375 -1.3125 -0.484375l-1.453125 0q-0.859375 0 -1.3125 0.484375q-0.453125 0.46875 -0.453125 1.34375l0 4.171875q0 0.875 0.453125 1.359375q0.453125 0.46875 1.3125 0.46875zm7.5660095 0.84375l-0.546875 0q-0.171875 0 -0.171875 -0.21875l0 -12.671875q0 -0.21875 0.171875 -0.21875l0.546875 0q0.203125 0 0.203125 0.21875l0 12.671875q0 0.21875 -0.203125 0.21875zm3.9178162 0l-0.546875 0q-0.171875 0 -0.171875 -0.21875l0 -12.671875q0 -0.21875 0.171875 -0.21875l0.546875 0q0.203125 0 0.203125 0.21875l0 12.671875q0 0.21875 -0.203125 0.21875zm7.120941 0l-1.59375 0q-1.21875 0 -1.921875 -0.703125q-0.6875 -0.71875 -0.6875 -1.953125l0 -4.203125q0 -1.234375 0.6875 -1.9375q0.703125 -0.71875 1.921875 -0.71875l1.59375 0q1.21875 0 1.921875 0.71875q0.71875 0.703125 0.71875 1.9375l0 4.203125q0 1.234375 -0.71875 1.953125q-0.703125 0.703125 -1.921875 0.703125zm-1.515625 -0.84375l1.453125 0q0.859375 0 1.3125 -0.46875q0.453125 -0.484375 0.453125 -1.359375l0 -4.171875q0 -0.875 -0.453125 -1.34375q-0.453125 -0.484375 -1.3125 -0.484375l-1.453125 0q-0.859375 0 -1.3125 0.484375q-0.453125 0.46875 -0.453125 1.34375l0 4.171875q0 0.875 0.453125 1.359375q0.453125 0.46875 1.3125 0.46875zm9.3472595 0.84375l-0.75 0q-0.1875 0 -0.25 -0.21875l-2.609375 -9.078125q-0.0625 -0.21875 0.15625 -0.21875l0.59375 0q0.203125 0 0.234375 0.21875l2.203125 8.125l0.09375 0l2.171875 -8.125q0.03125 -0.21875 0.25 -0.21875l0.546875 0q0.21873474 0 0.26560974 0.21875l2.125 8.125l0.09375 0l2.21875 -8.125q0.0625 -0.21875 0.234375 -0.21875l0.609375 0q0.21875 0 0.140625 0.21875l-2.59375 9.078125q-0.046875 0.21875 -0.25 0.21875l-0.75 0q-0.203125 0 -0.265625 -0.21875l-2.0624847 -7.875l-0.09375 0l-2.0625 7.875q-0.046875 0.21875 -0.25 0.21875zm16.460953 0l-3.890625 0q-1.21875 0 -1.921875 -0.703125q-0.6875 -0.71875 -0.6875 -1.953125l0 -4.203125q0 -1.234375 0.6875 -1.9375q0.703125 -0.71875 1.921875 -0.71875l1.59375 0q1.21875 0 1.921875 0.71875q0.71875 0.703125 0.71875 1.9375l0 2.359375q0 0.234375 -0.234375 0.234375l-5.515625 0q-0.171875 0 -0.171875 0.15625l0 1.4375q0 0.875 0.453125 1.359375q0.453125 0.46875 1.3125 0.46875l3.8125 0q0.203125 0 0.203125 0.203125l0 0.4375q0 0.203125 -0.203125 0.203125zm-5.40625 -5.015625l4.640625 0q0.171875 0 0.171875 -0.171875l0 -1.65625q0 -0.875 -0.453125 -1.34375q-0.4375 -0.484375 -1.296875 -0.484375l-1.46875 0q-0.859375 0 -1.3125 0.484375q-0.453125 0.46875 -0.453125 1.34375l0 1.65625q0 0.171875 0.171875 0.171875zm8.991394 5.015625l-0.546875 0q-0.171875 0 -0.171875 -0.21875l0 -9.078125q0 -0.21875 0.171875 -0.21875l0.546875 0q0.203125 0 0.203125 0.21875l0 0.796875l0.078125 0q0.203125 -0.40625 0.71875 -0.703125q0.53125 -0.3125 1.296875 -0.3125l0.734375 0q0.203125 0 0.203125 0.203125l0 0.453125q0 0.203125 -0.203125 0.1875l-0.890625 0q-0.90625 0 -1.421875 0.5625q-0.515625 0.546875 -0.515625 1.5l0 6.390625q0 0.21875 -0.203125 0.21875z" fill-rule="nonzero"/><path fill="#000000" fill-opacity="0.0" d="m372.74802 205.29921l94.23624 0l0 44.094498l-94.23624 0z" fill-rule="evenodd"/><path stroke="#595959" stroke-width="1.0" stroke-linejoin="round" stroke-linecap="butt" d="m372.74802 205.29921l94.23624 0l0 44.094498l-94.23624 0z" fill-rule="evenodd"/><path fill="#000000" d="m390.84546 234.26645l-0.546875 0q-0.1875 0 -0.1875 -0.21875l0 -11.546875q0 -0.234375 0.1875 -0.234375l5.75 0q0.234375 0 0.234375 0.203125l0 0.4375q0 0.203125 -0.234375 0.203125l-4.8125 0q-0.1875 0 -0.1875 0.171875l0 4.53125q0 0.140625 0.1875 0.140625l4.3125 0q0.203125 0 0.203125 0.21875l0 0.4375q0 0.203125 -0.203125 0.203125l-4.3125 0q-0.1875 0 -0.1875 0.15625l0 5.078125q0 0.21875 -0.203125 0.21875zm11.672577 0l-1.59375 0q-1.21875 0 -1.921875 -0.703125q-0.6875 -0.71875 -0.6875 -1.953125l0 -4.203125q0 -1.234375 0.6875 -1.9375q0.703125 -0.71875 1.921875 -0.71875l1.59375 0q1.21875 0 1.921875 0.71875q0.71875 0.703125 0.71875 1.9375l0 4.203125q0 1.234375 -0.71875 1.953125q-0.703125 0.703125 -1.921875 0.703125zm-1.515625 -0.84375l1.453125 0q0.859375 0 1.3125 -0.46875q0.453125 -0.484375 0.453125 -1.359375l0 -4.171875q0 -0.875 -0.453125 -1.34375q-0.453125 -0.484375 -1.3125 -0.484375l-1.453125 0q-0.859375 0 -1.3125 0.484375q-0.453125 0.46875 -0.453125 1.34375l0 4.171875q0 0.875 0.453125 1.359375q0.453125 0.46875 1.3125 0.46875zm7.5660095 0.84375l-0.546875 0q-0.171875 0 -0.171875 -0.21875l0 -12.671875q0 -0.21875 0.171875 -0.21875l0.546875 0q0.203125 0 0.203125 0.21875l0 12.671875q0 0.21875 -0.203125 0.21875zm3.9178162 0l-0.546875 0q-0.171875 0 -0.171875 -0.21875l0 -12.671875q0 -0.21875 0.171875 -0.21875l0.546875 0q0.203125 0 0.203125 0.21875l0 12.671875q0 0.21875 -0.203125 0.21875zm7.120941 0l-1.59375 0q-1.21875 0 -1.921875 -0.703125q-0.6875 -0.71875 -0.6875 -1.953125l0 -4.203125q0 -1.234375 0.6875 -1.9375q0.703125 -0.71875 1.921875 -0.71875l1.59375 0q1.21875 0 1.921875 0.71875q0.71875 0.703125 0.71875 1.9375l0 4.203125q0 1.234375 -0.71875 1.953125q-0.703125 0.703125 -1.921875 0.703125zm-1.515625 -0.84375l1.453125 0q0.859375 0 1.3125 -0.46875q0.453125 -0.484375 0.453125 -1.359375l0 -4.171875q0 -0.875 -0.453125 -1.34375q-0.453125 -0.484375 -1.3125 -0.484375l-1.453125 0q-0.859375 0 -1.3125 0.484375q-0.453125 0.46875 -0.453125 1.34375l0 4.171875q0 0.875 0.453125 1.359375q0.453125 0.46875 1.3125 0.46875zm9.3472595 0.84375l-0.75 0q-0.1875 0 -0.25 -0.21875l-2.609375 -9.078125q-0.0625 -0.21875 0.15625 -0.21875l0.59375 0q0.203125 0 0.234375 0.21875l2.203125 8.125l0.09375 0l2.171875 -8.125q0.03125 -0.21875 0.25 -0.21875l0.546875 0q0.21875 0 0.265625 0.21875l2.125 8.125l0.09375 0l2.21875 -8.125q0.0625 -0.21875 0.234375 -0.21875l0.609375 0q0.21875 0 0.140625 0.21875l-2.59375 9.078125q-0.046875 0.21875 -0.25 0.21875l-0.75 0q-0.203125 0 -0.265625 -0.21875l-2.0625 -7.875l-0.09375 0l-2.0625 7.875q-0.046875 0.21875 -0.25 0.21875zm16.460968 0l-3.890625 0q-1.21875 0 -1.921875 -0.703125q-0.6875 -0.71875 -0.6875 -1.953125l0 -4.203125q0 -1.234375 0.6875 -1.9375q0.703125 -0.71875 1.921875 -0.71875l1.59375 0q1.21875 0 1.921875 0.71875q0.71875 0.703125 0.71875 1.9375l0 2.359375q0 0.234375 -0.234375 0.234375l-5.515625 0q-0.171875 0 -0.171875 0.15625l0 1.4375q0 0.875 0.453125 1.359375q0.453125 0.46875 1.3125 0.46875l3.8125 0q0.203125 0 0.203125 0.203125l0 0.4375q0 0.203125 -0.203125 0.203125zm-5.40625 -5.015625l4.640625 0q0.171875 0 0.171875 -0.171875l0 -1.65625q0 -0.875 -0.453125 -1.34375q-0.4375 -0.484375 -1.296875 -0.484375l-1.46875 0q-0.859375 0 -1.3125 0.484375q-0.453125 0.46875 -0.453125 1.34375l0 1.65625q0 0.171875 0.171875 0.171875zm8.991394 5.015625l-0.546875 0q-0.171875 0 -0.171875 -0.21875l0 -9.078125q0 -0.21875 0.171875 -0.21875l0.546875 0q0.203125 0 0.203125 0.21875l0 0.796875l0.078125 0q0.203125 -0.40625 0.71875 -0.703125q0.53125 -0.3125 1.296875 -0.3125l0.734375 0q0.203125 0 0.203125 0.203125l0 0.453125q0 0.203125 -0.203125 0.1875l-0.890625 0q-0.90625 0 -1.421875 0.5625q-0.515625 0.546875 -0.515625 1.5l0 6.390625q0 0.21875 -0.203125 0.21875z" fill-rule="nonzero"/><path fill="#000000" fill-opacity="0.0" d="m335.14172 150.28346l-89.511795 55.02362" fill-rule="evenodd"/><path stroke="#595959" stroke-width="1.0" stroke-linejoin="round" stroke-linecap="butt" d="m335.14172 150.28346l-84.400314 51.881546" fill-rule="evenodd"/><path fill="#595959" stroke="#595959" stroke-width="1.0" stroke-linecap="butt" d="m249.87643 200.75787l-3.0010986 3.7836456l4.731064 -0.9693756z" fill-rule="evenodd"/><path fill="#000000" fill-opacity="0.0" d="m335.14172 150.28346l84.72443 55.02362" fill-rule="evenodd"/><path stroke="#595959" stroke-width="1.0" stroke-linejoin="round" stroke-linecap="butt" d="m335.14172 150.28346l79.692474 51.75566" fill-rule="evenodd"/><path fill="#595959" stroke="#595959" stroke-width="1.0" stroke-linecap="butt" d="m413.93457 203.42436l4.705536 1.0864868l-2.9062805 -3.856964z" fill-rule="evenodd"/><path fill="#ffffff" d="m260.01526 75.5538l150.06302 0c3.3569336E-4 0 7.019043E-4 1.449585E-4 9.460449E-4 4.043579E-4c2.4414062E-4 2.5177002E-4 3.9672852E-4 5.950928E-4 3.9672852E-4 9.613037E-4l-0.0013427734 13.022263l0 0c0 7.1927414 -5.830902 13.023621 -13.023621 13.023621l-150.063 0l0 0c-7.4768066E-4 0 -0.0013580322 -6.1035156E-4 -0.0013580322 -0.0013580322l0.0013580322 -13.022263l0 0c0 -7.192749 5.8308716 -13.023628 13.023605 -13.023628z" fill-rule="evenodd"/><path stroke="#595959" stroke-width="1.0" stroke-linejoin="round" stroke-linecap="butt" d="m260.01526 75.5538l150.06302 0c3.3569336E-4 0 7.019043E-4 1.449585E-4 9.460449E-4 4.043579E-4c2.4414062E-4 2.5177002E-4 3.9672852E-4 5.950928E-4 3.9672852E-4 9.613037E-4l-0.0013427734 13.022263l0 0c0 7.1927414 -5.830902 13.023621 -13.023621 13.023621l-150.063 0l0 0c-7.4768066E-4 0 -0.0013580322 -6.1035156E-4 -0.0013580322 -0.0013580322l0.0013580322 -13.022263l0 0c0 -7.192749 5.8308716 -13.023628 13.023605 -13.023628z" fill-rule="evenodd"/><path fill="#000000" fill-opacity="0.0" d="m290.74493 75.5538l47.02362 0l0 26.047249l-47.02362 0z" fill-rule="evenodd"/><path stroke="#595959" stroke-width="1.0" stroke-linejoin="round" stroke-linecap="butt" d="m290.74493 75.5538l47.02362 0l0 26.047249l-47.02362 0z" fill-rule="evenodd"/><path fill="#000000" d="m304.08868 95.49743l-0.921875 0q-0.21875 0 -0.265625 -0.21875l-2.5625 -11.546875q-0.046875 -0.234375 0.1875 -0.234375l0.625 0q0.203125 0 0.234375 0.234375l2.21875 10.703125l0.09375 0l2.84375 -10.734375q0.03125 -0.203125 0.234375 -0.203125l0.71875 0q0.21875 0 0.25 0.203125l2.859375 10.734375l0.09375 0l2.203125 -10.703125q0.03125 -0.234375 0.25 -0.234375l0.640625 0q0.21875 0 0.171875 0.234375l-2.5625 11.546875q-0.03125 0.21875 -0.234375 0.21875l-0.953125 0q-0.203125 0 -0.265625 -0.21875l-2.765625 -10.53125l-0.0625 0l-2.78125 10.53125q-0.0625 0.21875 -0.25 0.21875zm11.750549 0l-0.6875 0q-0.234375 0 -0.09375 -0.21875l2.703125 -4.625l-2.5625 -4.453125q-0.15625 -0.21875 0.09375 -0.21875l0.671875 0q0.203125 0 0.3125 0.21875l2.109375 3.8125l0.078125 0l2.0 -3.8125q0.140625 -0.21875 0.328125 -0.21875l0.671875 0q0.234375 0 0.09375 0.21875l-2.515625 4.40625l2.734375 4.671875q0.125 0.21875 -0.09375 0.21875l-0.75 0q-0.140625 0 -0.25 -0.21875l-2.21875 -4.0l-0.078125 0l-2.21875 4.0q-0.140625 0.21875 -0.328125 0.21875z" fill-rule="nonzero"/><path fill="#000000" fill-opacity="0.0" d="m337.76855 75.5538l47.02362 0l0 26.047249l-47.02362 0z" fill-rule="evenodd"/><path stroke="#595959" stroke-width="1.0" stroke-linejoin="round" stroke-linecap="butt" d="m337.76855 75.5538l47.02362 0l0 26.047249l-47.02362 0z" fill-rule="evenodd"/><path fill="#000000" d="m351.1123 95.49743l-0.921875 0q-0.21875 0 -0.265625 -0.21875l-2.5625 -11.546875q-0.046875 -0.234375 0.1875 -0.234375l0.625 0q0.203125 0 0.234375 0.234375l2.21875 10.703125l0.09375 0l2.84375 -10.734375q0.03125 -0.203125 0.234375 -0.203125l0.71875 0q0.21875 0 0.25 0.203125l2.859375 10.734375l0.09375 0l2.203125 -10.703125q0.03125 -0.234375 0.25 -0.234375l0.640625 0q0.21875 0 0.171875 0.234375l-2.5625 11.546875q-0.03125 0.21875 -0.234375 0.21875l-0.953125 0q-0.203125 0 -0.265625 -0.21875l-2.765625 -10.53125l-0.0625 0l-2.78125 10.53125q-0.0625 0.21875 -0.25 0.21875zm12.313049 2.828125l-0.6875 0q-0.203125 0 -0.203125 -0.203125l0 -0.4375q0 -0.203125 0.203125 -0.203125l0.5 0q0.5625 0 0.953125 -0.171875q0.390625 -0.15625 0.6875 -0.59375q0.296875 -0.421875 0.390625 -0.65625q0.265625 -0.578125 0.4375 -1.0625l-0.359375 0q-0.203125 0 -0.265625 -0.234375l-2.953125 -8.5625q-0.078125 -0.21875 0.140625 -0.21875l0.578125 0q0.1875 0 0.25 0.21875l2.734375 8.015625l0.078125 0l2.75 -8.015625q0.046875 -0.21875 0.234375 -0.21875l0.5625 0q0.21875 0 0.171875 0.21875q-3.34375 9.78125 -3.484375 10.109375q-0.140625 0.34375 -0.515625 0.921875q-0.703125 1.09375 -2.203125 1.09375z" fill-rule="nonzero"/><path fill="#ffffff" d="m170.63255 256.4415l150.06297 0c3.6621094E-4 0 7.324219E-4 1.5258789E-4 9.765625E-4 3.9672852E-4c2.4414062E-4 2.746582E-4 3.9672852E-4 6.1035156E-4 3.9672852E-4 9.765625E-4l-0.001373291 13.022247l0 0c0 7.192749 -5.8308716 13.023621 -13.023621 13.023621l-150.06299 0l0 0c-7.4768066E-4 0 -0.0013580322 -6.1035156E-4 -0.0013580322 -0.0013427734l0.0013580322 -13.022278l0 0c0 -7.192749 5.830887 -13.023621 13.023636 -13.023621z" fill-rule="evenodd"/><path stroke="#595959" stroke-width="1.0" stroke-linejoin="round" stroke-linecap="butt" d="m170.63255 256.4415l150.06297 0c3.6621094E-4 0 7.324219E-4 1.5258789E-4 9.765625E-4 3.9672852E-4c2.4414062E-4 2.746582E-4 3.9672852E-4 6.1035156E-4 3.9672852E-4 9.765625E-4l-0.001373291 13.022247l0 0c0 7.192749 -5.8308716 13.023621 -13.023621 13.023621l-150.06299 0l0 0c-7.4768066E-4 0 -0.0013580322 -6.1035156E-4 -0.0013580322 -0.0013427734l0.0013580322 -13.022278l0 0c0 -7.192749 5.830887 -13.023621 13.023636 -13.023621z" fill-rule="evenodd"/><path fill="#000000" fill-opacity="0.0" d="m201.3622 256.4415l47.023636 0l0 26.047241l-47.023636 0z" fill-rule="evenodd"/><path stroke="#595959" stroke-width="1.0" stroke-linejoin="round" stroke-linecap="butt" d="m201.3622 256.4415l47.023636 0l0 26.047241l-47.023636 0z" fill-rule="evenodd"/><path fill="#000000" d="m214.70595 276.38513l-0.921875 0q-0.21875 0 -0.265625 -0.21875l-2.5625 -11.546875q-0.046875 -0.234375 0.1875 -0.234375l0.625 0q0.203125 0 0.234375 0.234375l2.21875 10.703125l0.09375 0l2.84375 -10.734375q0.03125 -0.203125 0.234375 -0.203125l0.71875 0q0.21875 0 0.25 0.203125l2.859375 10.734375l0.09375 0l2.203125 -10.703125q0.03125 -0.234375 0.25 -0.234375l0.640625 0q0.21875 0 0.171875 0.234375l-2.5625 11.546875q-0.03125 0.21875 -0.234375 0.21875l-0.953125 0q-0.203125 0 -0.265625 -0.21875l-2.765625 -10.53125l-0.0625 0l-2.78125 10.53125q-0.0625 0.21875 -0.25 0.21875zm11.750565 0l-0.6875 0q-0.234375 0 -0.09375 -0.21875l2.703125 -4.625l-2.5625 -4.453125q-0.15625 -0.21875 0.09375 -0.21875l0.671875 0q0.203125 0 0.3125 0.21875l2.109375 3.8125l0.078125 0l2.0 -3.8125q0.140625 -0.21875 0.328125 -0.21875l0.671875 0q0.234375 0 0.09375 0.21875l-2.515625 4.40625l2.734375 4.671875q0.125 0.21875 -0.09375 0.21875l-0.75 0q-0.140625 0 -0.25 -0.21875l-2.21875 -4.0l-0.078125 0l-2.21875 4.0q-0.140625 0.21875 -0.328125 0.21875z" fill-rule="nonzero"/><path fill="#000000" fill-opacity="0.0" d="m248.38583 256.4415l47.02362 0l0 26.047241l-47.02362 0z" fill-rule="evenodd"/><path stroke="#595959" stroke-width="1.0" stroke-linejoin="round" stroke-linecap="butt" d="m248.38583 256.4415l47.02362 0l0 26.047241l-47.02362 0z" fill-rule="evenodd"/><path fill="#000000" d="m261.72958 276.38513l-0.921875 0q-0.21875 0 -0.265625 -0.21875l-2.5625 -11.546875q-0.046875 -0.234375 0.1875 -0.234375l0.625 0q0.203125 0 0.234375 0.234375l2.21875 10.703125l0.09375 0l2.84375 -10.734375q0.03125 -0.203125 0.234375 -0.203125l0.71875 0q0.21875 0 0.25 0.203125l2.859375 10.734375l0.09375 0l2.203125 -10.703125q0.03125 -0.234375 0.25 -0.234375l0.640625 0q0.21875 0 0.171875 0.234375l-2.5625 11.546875q-0.03125 0.21875 -0.234375 0.21875l-0.953125 0q-0.203125 0 -0.265625 -0.21875l-2.765625 -10.53125l-0.0625 0l-2.78125 10.53125q-0.0625 0.21875 -0.25 0.21875zm12.313049 2.828125l-0.6875 0q-0.203125 0 -0.203125 -0.203125l0 -0.4375q0 -0.203125 0.203125 -0.203125l0.5 0q0.5625 0 0.953125 -0.171875q0.390625 -0.15625 0.6875 -0.59375q0.296875 -0.421875 0.390625 -0.65625q0.265625 -0.578125 0.4375 -1.0625l-0.359375 0q-0.203125 0 -0.265625 -0.234375l-2.953125 -8.5625q-0.078125 -0.21875 0.140625 -0.21875l0.578125 0q0.1875 0 0.25 0.21875l2.734375 8.015625l0.078125 0l2.75 -8.015625q0.046875 -0.21875 0.234375 -0.21875l0.5625 0q0.21875 0 0.171875 0.21875q-3.34375 9.78125 -3.484375 10.109375q-0.140625 0.34375 -0.515625 0.921875q-0.703125 1.09375 -2.203125 1.09375z" fill-rule="nonzero"/><path fill="#ffffff" d="m356.6824 256.4415l150.06299 0c3.6621094E-4 0 7.324219E-4 1.5258789E-4 9.765625E-4 3.9672852E-4c2.4414062E-4 2.746582E-4 3.9672852E-4 6.1035156E-4 3.9672852E-4 9.765625E-4l-0.001373291 13.022247l0 0c0 7.192749 -5.8308716 13.023621 -13.023621 13.023621l-150.06299 0l0 0c-7.324219E-4 0 -0.0013427734 -6.1035156E-4 -0.0013427734 -0.0013427734l0.0013427734 -13.022278l0 0c0 -7.192749 5.8308716 -13.023621 13.023621 -13.023621z" fill-rule="evenodd"/><path stroke="#595959" stroke-width="1.0" stroke-linejoin="round" stroke-linecap="butt" d="m356.6824 256.4415l150.06299 0c3.6621094E-4 0 7.324219E-4 1.5258789E-4 9.765625E-4 3.9672852E-4c2.4414062E-4 2.746582E-4 3.9672852E-4 6.1035156E-4 3.9672852E-4 9.765625E-4l-0.001373291 13.022247l0 0c0 7.192749 -5.8308716 13.023621 -13.023621 13.023621l-150.06299 0l0 0c-7.324219E-4 0 -0.0013427734 -6.1035156E-4 -0.0013427734 -0.0013427734l0.0013427734 -13.022278l0 0c0 -7.192749 5.8308716 -13.023621 13.023621 -13.023621z" fill-rule="evenodd"/><path fill="#000000" fill-opacity="0.0" d="m387.41208 256.4415l47.02362 0l0 26.047241l-47.02362 0z" fill-rule="evenodd"/><path stroke="#595959" stroke-width="1.0" stroke-linejoin="round" stroke-linecap="butt" d="m387.41208 256.4415l47.02362 0l0 26.047241l-47.02362 0z" fill-rule="evenodd"/><path fill="#000000" d="m400.75583 276.38513l-0.921875 0q-0.21875 0 -0.265625 -0.21875l-2.5625 -11.546875q-0.046875 -0.234375 0.1875 -0.234375l0.625 0q0.203125 0 0.234375 0.234375l2.21875 10.703125l0.09375 0l2.84375 -10.734375q0.03125 -0.203125 0.234375 -0.203125l0.71875 0q0.21875 0 0.25 0.203125l2.859375 10.734375l0.09375 0l2.203125 -10.703125q0.03125 -0.234375 0.25 -0.234375l0.640625 0q0.21875 0 0.171875 0.234375l-2.5625 11.546875q-0.03125 0.21875 -0.234375 0.21875l-0.953125 0q-0.203125 0 -0.265625 -0.21875l-2.765625 -10.53125l-0.0625 0l-2.78125 10.53125q-0.0625 0.21875 -0.25 0.21875zm11.750549 0l-0.6875 0q-0.234375 0 -0.09375 -0.21875l2.703125 -4.625l-2.5625 -4.453125q-0.15625 -0.21875 0.09375 -0.21875l0.671875 0q0.203125 0 0.3125 0.21875l2.109375 3.8125l0.078125 0l2.0 -3.8125q0.140625 -0.21875 0.328125 -0.21875l0.671875 0q0.234375 0 0.09375 0.21875l-2.515625 4.40625l2.734375 4.671875q0.125 0.21875 -0.09375 0.21875l-0.75 0q-0.140625 0 -0.25 -0.21875l-2.21875 -4.0l-0.078125 0l-2.21875 4.0q-0.140625 0.21875 -0.328125 0.21875z" fill-rule="nonzero"/><path fill="#000000" fill-opacity="0.0" d="m434.4357 256.4415l47.02362 0l0 26.047241l-47.02362 0z" fill-rule="evenodd"/><path stroke="#595959" stroke-width="1.0" stroke-linejoin="round" stroke-linecap="butt" d="m434.4357 256.4415l47.02362 0l0 26.047241l-47.02362 0z" fill-rule="evenodd"/><path fill="#000000" d="m447.77945 276.38513l-0.921875 0q-0.21875 0 -0.265625 -0.21875l-2.5625 -11.546875q-0.046875 -0.234375 0.1875 -0.234375l0.625 0q0.203125 0 0.234375 0.234375l2.21875 10.703125l0.09375 0l2.84375 -10.734375q0.03125 -0.203125 0.234375 -0.203125l0.71875 0q0.21875 0 0.25 0.203125l2.859375 10.734375l0.09375 0l2.203125 -10.703125q0.03125 -0.234375 0.25 -0.234375l0.640625 0q0.21875 0 0.171875 0.234375l-2.5625 11.546875q-0.03125 0.21875 -0.234375 0.21875l-0.953125 0q-0.203125 0 -0.265625 -0.21875l-2.765625 -10.53125l-0.0625 0l-2.78125 10.53125q-0.0625 0.21875 -0.25 0.21875zm12.313049 2.828125l-0.6875 0q-0.203125 0 -0.203125 -0.203125l0 -0.4375q0 -0.203125 0.203125 -0.203125l0.5 0q0.5625 0 0.953125 -0.171875q0.390625 -0.15625 0.6875 -0.59375q0.296875 -0.421875 0.390625 -0.65625q0.265625 -0.578125 0.4375 -1.0625l-0.359375 0q-0.203125 0 -0.265625 -0.234375l-2.953125 -8.5625q-0.078125 -0.21875 0.140625 -0.21875l0.578125 0q0.1875 0 0.25 0.21875l2.734375 8.015625l0.078125 0l2.75 -8.015625q0.046875 -0.21875 0.234375 -0.21875l0.5625 0q0.21875 0 0.171875 0.21875q-3.34375 9.78125 -3.484375 10.109375q-0.140625 0.34375 -0.515625 0.921875q-0.703125 1.09375 -2.203125 1.09375z" fill-rule="nonzero"/><path fill="#000000" fill-opacity="0.0" d="m2.96063 302.7906l954.07874 0" fill-rule="evenodd"/><path stroke="#595959" stroke-width="1.0" stroke-linejoin="round" stroke-linecap="butt" d="m2.96063 302.7906l954.07874 0" fill-rule="evenodd"/></g></svg>